<svg xmlns="http://www.w3.org/2000/svg" width="180" height="180" fill="none" viewBox="0 0 180 180"><g clip-path="url(#a)"><mask id="b" width="180" height="180" x="0" y="0" maskUnits="userSpaceOnUse" style="mask-type:luminance"><path fill="#fff" d="M180 90c0-49.706-40.294-90-90-90S0 40.294 0 90s40.294 90 90 90 90-40.294 90-90"/></mask><g mask="url(#b)"><mask id="c" width="180" height="180" x="0" y="0" maskUnits="userSpaceOnUse" style="mask-type:luminance"><path fill="#fff" d="M180 0H0v180h180z"/></mask><g mask="url(#c)"><path fill="#fff" d="M0 0h180v180H0z"/><path fill="#131313" d="M41.11 93.588c-6.419-.382-24.033-.77-28.232-5.513-.373-.42-.742-.953-.708-1.542.042-.749.972-1.463 1.517-1.906.99-.805 2.2-1.461 3.307-2.094 1.564-.893 3.157-1.8 4.823-2.492 2.724-1.132 6.247-1.981 9.12-2.814 2.28-.662 4.549-1.419 6.887-1.853 1.315-.243 2.65-.47 3.976-.637 1.171-.147 2.507-.074 3.618-.492.837-.314 1.13-.998 1.228-1.852.205-1.787-.65-4.596-1.031-6.421q-.433-2.04-.786-4.093c-.796-4.407-1.31-8.86-1.54-13.333-.2-3.576.09-2.37 1.92-5.065 4.083-6.02 8.75-10.764 14.148-15.568a207 207 0 0 1 5.198-4.543c1.147-.954 2.227-1.46 3.718-1.733 7.597-1.387 15.255-1.777 22.936-2.457 5.403-.478 10.867-1.486 16.336-1.322 1.641.049 3.39 1.752 4.652 2.755a262 262 0 0 1 4.442 3.553c3.324 2.724 6.755 5.401 10.111 8.092a42 42 0 0 0 3.094 2.232c1.541 1.016 2.491.85 3.717 2.4 1.051 1.329 1.166 2.332 1.827 3.844.751 1.716 1.553 3.666 2.017 5.483 1.901 7.457 1.27 15.551 1.932 23.176.198 2.282.474 4.587.697 6.869.085.864.649 2.317.542 3.14-.194 1.495-1.826 1.98-1.688 3.6.213.104.317.04.541-.05 5.532-2.174 6.566 2.057 7.38 6.279.932 4.843.982 8.665-.934 13.309-.863 2.089-2.436 3.496-3.472 5.437-.573 1.057-.434 2.177-.589 3.322-.552 2.227-1.615 4.371-3.887 5.246-1.887.726-3.314-.423-4.732-1.507-.233-.662-.42-.974-.767-1.591-.275 2.171-.826 3.715-1.347 5.828-.237.96-.412 2.14-.685 3.047-.238.798-.876 1.8-1.208 2.649l-2.795 7.118c-.952 2.441-3.4 9.394-5.513 10.86-6.602 4.584-13.79 9.067-20.811 13.037-1.386.784-2.54 1.544-4.093 1.898-3.542.97-5.789.442-9.319.11-1.488-.14-3.814-.698-5.154-1.333-.528-.251-.496-.259-1.109-.421-.496-.69-.336-.492-.966-.968-1.342-1.014-2.907-2.842-4.038-4.091-.432-.421-.847-.813-1.237-1.275-1.966-2.092-4.381-3.834-6.327-5.908-2.239-2.388-5.549-5.714-7.358-8.417-4.04-6.041-5.082-14.702-5.839-21.815-6.217-.913-8.681-11.197-11.128-15.925-.743-1.436-3.054-1.892-2.391-4.253"/><path fill="#fff" d="M134.483 84.678c-.291 2.872-.406 5.81-.57 8.693-.143 2.539-.004 5.036-.146 7.583l-.001-.021.098.218-.095-.063.046.196c-.049-.097-.021-.028-.036-.221l.104.059c.175-.858.459-2.392.51-3.262.348 1.187-.172 4.233-.445 5.537-.029.245-.053.523-.111.761-.091-.426.027-.552-.248-.945a73 73 0 0 1-1.237 5.107c-.362 1.286-.509 2.481-.936 3.792l.033.064.19-.186c-.008.456-.553 3.053-.678 3.651-1.231 5.864-3.012 10.429-5.592 15.82-.115.37-.129.414-.328.74-.568 1.935-2.587 6.199-3.775 7.981-.252.379-2.544 2.159-3.014 2.522-.264.267-.295.281-.628.465-.408.291-.749.626-1.143.934-2.162 1.682-4.477 3.124-6.717 4.694-.953.667-1.87 1.411-2.864 2.012-.16.087-.299.162-.463.242-.217.314-1.397 1.046-1.768 1.266l-.336.232c-.699.548-1.819 1.192-2.556 1.684-5.04 3.364-7.335 4.171-13.304 3.359-4.732-.644-5.11-.674-9.383-3.188-.599-.349-.91-.76-1.317-1.301-.648-.571-1.667-1.686-2.3-2.339l-.084.417c-.43-.421-.846-.813-1.236-1.275.098-.342.06-.254-.047-.652-.239-.339-.995-1.071-1.332-1.462-2.143-2.49-4.373-4.892-6.444-7.443-.386-.43-.967-1.243-1.335-1.724-.65-.523-2.153-3.247-2.92-3.905-.43-.368-.532-.571-.849-1.037-.544-.85-1.507-2.364-1.903-3.268-1.727-3.94-2.717-8.35-3.258-12.609-.12-.943-.396-2.788-.327-3.633.69-.069 1.72-.075 2.45-.102 3.76-.138 7.055-1.032 10.493-2.683l-.078 1.997c.05.314.029.424.183.686.153-.666.266-1.625.39-2.328q.365-1.954.801-3.895c.762-3.33 2.078-6.504 3.16-9.716.449-1.333 2.081-1.467 3.134-.957 1.154.558 2.712 2.805 3.132 3.89.158.138.262.188.336.367.806 1.656 4.384 7.188 5.78 8.218l.614.457c3.257.364 6.593-.39 9.869-.729 2.79-.288 9.432-.961 11.643-2.511.603-1.206.856-2.509 1.227-3.73 1.056-3.48 1.514-6.61 1.782-10.227.086-1.16-.039-2.526.201-3.58.143-.635 2.209-.89 2.865-.998 1.881-.311 4.071-.817 5.979-.905 2.852-.133 5.825-.195 8.666-.52.67-.076 2.365-.861 2.991-1.196l.206-.145.69-.287c.874-.455 1.211-.532 2.231-.6"/><path fill="#999898" d="M134.483 84.678c-.291 2.872-.406 5.81-.57 8.693-.143 2.539-.004 5.036-.146 7.583l-.001-.021.098.218-.095-.063.046.196c-.049-.097-.021-.028-.036-.221l.104.059c.176-.858.459-2.392.51-3.262.348 1.187-.172 4.233-.445 5.537-.029.245-.053.523-.111.761-.091-.426.027-.552-.248-.945a73 73 0 0 1-1.237 5.107c-.361 1.286-.509 2.481-.936 3.792l.033.064.19-.186c-.008.456-.553 3.053-.678 3.651-1.231 5.864-3.012 10.429-5.592 15.82-.115.37-.128.414-.328.74-.568 1.935-2.587 6.199-3.775 7.981-.252.379-2.544 2.159-3.014 2.522-.264.267-.295.281-.628.465-.408.291-.749.626-1.143.934-2.162 1.682-4.477 3.124-6.717 4.694-.953.667-1.87 1.411-2.864 2.012-.16.087-.298.162-.463.242-.217.314-1.397 1.046-1.768 1.266l-.336.232c-.699.548-1.819 1.192-2.556 1.684-5.04 3.364-7.335 4.171-13.304 3.359-4.732-.644-5.11-.674-9.383-3.188-.599-.349-.91-.76-1.317-1.301-.648-.571-1.667-1.686-2.3-2.339l-.084.417c-.43-.421-.846-.813-1.236-1.275.098-.342.06-.254-.047-.652-.239-.339-.995-1.071-1.332-1.462-2.143-2.49-4.373-4.892-6.444-7.443-.386-.43-.967-1.243-1.335-1.724-.65-.523-2.153-3.247-2.92-3.905-.43-.368-.532-.571-.848-1.037.316-.63.5-1 .896-1.576.182-.345.387-.7.578-1.041.128-.422.208-.539.534-.787l-.067.158c.882-.856 1.762-1.738 2.706-2.525l.2-.201.075.081-.02.345c1.208-1.259 1.956-1.983 3.578-2.565.039-.014.239-.135.343-.174l.101.074c-.224.178-.212.103-.293.314l.229.057c.437-.474.437-.548 1.002-.638.317-.044.552.057.864.145l.17-.142c.68-.36.98-.249 1.749-.161.993.755-.212 1.366-.151 1.696l.294-.111c.193.501-.257 1.342-.758 1.603-.656.022-.827-.336-.488-.885l-.082-.092c-.816-.041-.57.414-1.195.639-.407-.059-.425-.06-.768.233-1.848 1.582-3.562 3.376-5.522 4.83.891-1.87 1.995-2.581 3.154-4.09-2.247 1.495-2.626 1.885-4.04 4.095.015.316.047.658.02.968l.074.109c.573.303 2.285 1.577 2.764 2.03.214.418.257.59.385 1.048.234.815.535 1.439.912 2.196-.079-.409-.25-1.21-.273-1.589.166.071.132.084.265.252l.088-.034-.05-.452.046.006.009.115.111.021.049.098c.141.263.064.189.284.362l-.011.083c.139.732.581 1.797.856 2.522l.209.202c.104-.194-.015-.534-.066-.803.186-.132.085-.102.3-.102.447.421.018.953.676 1.165.113.355.332.932.598 1.195.206.3.276.621.576.759.18-.12.166-.12.277-.309.375.16.692 1.098.903 1.499.371.701.666 1.24 1.191 1.843-.333-.809-.718-1.586-1.031-2.404-.281-.732-.022-.868-.016-1.601.21.637.255 1.001.35 1.662.344.806.514 1.172 1.116 1.847l.15-.015c-.14-.415-.506-.894-.468-1.256l.13-.086.439.113c.229.56.558 1.041.88 1.553.022-.494-.184-.9-.36-1.371.164.084.33.21.478.193l.124-.025c.754.18.467.102.907.644.407.501 1.585 3.306 1.975 3.506-.006-.537-1.25-2.908-1.48-3.827.257.348.56.987.766 1.389.607 1.189 1.35 2.449 2.375 3.328-.463-1.073-.784-2.294-1.259-3.246.31.19.478.401.725.664.313.611.593 1.214 1.093 1.696.155.149.29.261.413.436.13-.333.234-.634.547-.788.372.101.728.544.962.849.12-.363-.103-.671-.277-1.024l.115-.145c1.893 1.838 1.492 1.377 3.693 2.642-.023-.23-.087-.512-.131-.747l-.107-.124c.297-.603.012-.706.166-1.114l.271.252.136-.043.109-.334.106-.036.037-.208.117-.04c.108.257.09.258.293.441.1-1.146 1.175-2.972 1.811-3.954-.132.406-.576 1.703-.422 2.066.323-.136 1.077-1.384 1.326-1.765.673-.076 1.038-.074 1.6-.468l.154-.207c.334-.087.613-.391.858-.629.176-.111.097-.064.35-.075-.088.555-.053.916-.027 1.475.629-1.011 1.09-1.628 1.834-2.539.075-.142.156-.161.312-.27l.562-.591c.248-.226.113-.189.389-.208.149.215.085.63.08.927-.392.222-.37.296-.57.718l.125.045.162-.119c.122.195.09.12.134.344.252-.512.775-1.249 1.107-1.747l.193-.243c-.082-.161-.081-.214-.127-.391.124.148.07.098.253.185.264-.166.414-.616.584-.951.01.525.006.657-.228 1.129.14.166.054.122.244.155l.135-.243.017.018c.209.004.236-.256.41-.557.359-.619.91-1.031 1.352-1.593.05-.046.419-.706.477-.703.9.047.701-1.401 1.364-1.772l.048.094c-.288.69-.636 1.815-1.109 2.338l.17.113c.633-.664 1.51-2.021 2.184-2.477.256-.311.658-.959.899-1.009l.322-.033c.28-.485.42-.663.933-.857l.173.019.003.086c-.58.594-.653 1.365-.838 2.156q.545-.765 1.11-1.513c.448-.796 1.102-2.1 2.093-2.195.518-.643.556-.759 1.195-1.297l.438-.448c.554-.505 1.132-1.083 1.676-1.607-.725-.16-2.039-.713-2.844-.977.345.332.44.416.689.819-.172.005-.234-.108-.41-.254-.375-.017-.501.005-.83-.151-.251-.038-.814-.057-1.011-.113-.505-.145-1.417-.674-1.912-.784-.609-.137-.87-.144-1.521-.35-.034-.694-.77-.575-1.247-.487-.37-.169-.828-.152-1.228-.214-1.5-.229-2.114.809-3.63.234-.293.17-.344.11-.662.021-.604-.07-1.67-.321-2.334-.438l-.64-.105c-.488.026-1.046-.004-1.54-.016l-.45.027c-.358-.037-.975-.137-1.298-.057.162.238.2.187.174.368-.246-.107-.254-.169-.406-.391l-.27-.034c-.756-.068-1.943-.149-2.65-.299.374.538.77.972.792 1.618l-.112.132c-.537.027-1.51-.837-2.461-1.157.476.556.71.848 1.346 1.246-1.117-.099-1.898-.5-2.964-.674.308.237.514.401.796.667l-.008.064c-.438-.217-1.103-.449-1.432-.723-.262-.167-.59-.435-.844-.629-.18-.62-1.535-1.867-1.852-2.573-.158-.352-.118-.305.009-.622.682.201 2.032 1.16 2.683 1.598-1.144-1.183-1.632-2.504.659-2.507 1.12-.062 2.922.739 3.93.707 2.278-.069 4.288-.378 6.596.141.366.083 1.058.062 1.5.125l.092.013.062-.071-.45-.31-.007-.117c.763-.396 1.247-.01 1.87.386.113-.029.176-.059.283-.103l-.04-.27c.184-.078.337.037.592.128 1.756.606 2.927 1.134 4.536 2.076l.312-.308c.845.205 1.126-.045 1.853.123 1.888.436 3.321 1.504 4.88 2.576.5.342 1.291.474 1.9.9.042.222.028.213-.045.433l.152.157c.164-.36 1.033-1.836 1.323-1.984a12 12 0 0 1-.128.683c.514-.487.269-.942 1.085-1.336.109-.404.474-.735.775-1.001l.291.258c.127-.561.852-2.303 1.495-2.161.039.283-.178.624-.313.9.239-.028.373-.044.611-.098.079-.224.271-.588.379-.813.255-.671.538-1.51.981-2.066l.019-.031c.738-.709 1.489-1.646 2.173-2.434.05-.15.216-.453.293-.607.423-.285.613-.532.934-.919l.093-.055c.038.098.122.338.166.417.102-.425.235-.842.364-1.26.696-.532.929-.974 1.264-1.748l.032.334.067.008.82-.513c.393-1.143.531-2.452.931-3.708l.228-.113c.167-.227.497-1.496.598-1.839.038-.269.217-.42.4-.635a23 23 0 0 1-.135 2.113l.068.144.12-.034q.253-.556.479-1.124c-.09 1.948-.551 4.475-.949 6.385l.209.03c1.316-4.591 1.392-8.276 1.98-12.921-.053-.379.064-1.484.471-1.686.176.296.131.794.098 1.153.048.338.068.743.239 1.025l.129.038.002-.846c.009-4.696.2-9.87.961-14.513l.111-.381c-.069-.477.085-1.012.192-1.487l.041-.29.242-1.336.206-.145.69-.287c.874-.455 1.211-.532 2.231-.6"/><path fill="#898889" d="M114.497 127.525c-.073 1.008-.669 2.319-.653 3.175-.096.051-.028.022-.215.047-.08-.579.268-1.172.136-1.785l-.117-.026c-.332.369-.408.529-.643.96l-.092-.173c-.365.574-2.209 4.345-2.408 4.498l-.104-.104c.373-1.001 1.231-2.363 1.496-3.258l.32-.697c.164-.36 1.034-1.836 1.323-1.984a12 12 0 0 1-.128.683c.514-.487.269-.942 1.085-1.336M106.207 135.884c.448-.796 1.102-2.1 2.094-2.195l-.123.242c-.45.763-1.106 2.017-1.782 2.53l-.113.074q.035.153.065.309c-.171.455-.496 1.742-.708 1.938l-.078-.076c.013-.201.567-2.449.645-2.822"/><path fill="#dedddd" d="M106.396 136.461c.327-.723.962-2.383 1.782-2.53-.45.763-1.106 2.017-1.782 2.53M103.605 137.035c.256-.311.658-.959.899-1.009l.322-.033c-.481 1.019-.947 1.992-1.395 3.025-.207.479-.862 2.183-1.072 2.523.014-.504.31-1.103.496-1.602-.15-.739.508-2.119.75-2.904"/><path fill="#898889" d="M103.605 137.035c.256-.311.658-.959.899-1.009l-.044.095c-.724 1.193-1.085 2.583-1.605 3.818-.15-.739.508-2.119.75-2.904"/><path fill="#9f9e9e" d="M114.497 127.525c.109-.404.474-.735.775-1.001l.291.258-.236.719c-.28.666-.696 1.635-.93 2.31-.055.34-.169.798-.553.889-.016-.856.58-2.167.653-3.175"/><path fill="#dedddd" d="m115.272 126.524.291.258-.236.719c-.28.666-.696 1.635-.93 2.31-.027-.491.689-2.647.875-3.287"/><path fill="#898889" d="M91.33 125.62c.558.375.408.523.833.839.532.394 2.316.419 2.507 1.184l-.641-.105c-.488.025-1.046-.004-1.539-.016-.214-.285-.479-.583-.71-.859l-.507-.442c-.025-.042-.142-.148-.182-.188l.07-.227z"/><path fill="#999898" d="M91.78 126.663c.21.068 2.126.79 2.249.875-.488.026-1.046-.003-1.54-.016-.214-.284-.478-.583-.71-.859"/><path fill="#777676" d="M115.563 126.782c.128-.561.853-2.303 1.495-2.161.04.283-.177.624-.313.9l-.113.151c-.228.086-.242.037-.339.321-.337.974-.631 2.037-.912 3.027l-.207-.445q.084-.536.154-1.074z"/><path fill="#dedddd" d="M113.006 129.896c.234-.431.31-.591.642-.96l.118.026c-1.265 2.365-1.376 5.284-1.779 7.883-.14-.163-.046-1.1-.027-1.348.117-1.537.378-4.239 1.046-5.601"/><path fill="#6f6e6e" d="M85.204 124.451c1.636.213 4.295 1.511 5.263 2.753l.042.265-.27-.034c-1.128-1.361-3.75-2.136-5.035-2.984"/><path fill="#dedddd" d="M128.87 104.034c-.053-.379.065-1.484.471-1.686.176.296.132.794.098 1.153-.364.642-.416 4.354-.464 5.299-.085-.804-.173-1.359-.149-2.188.016-.516.24-2.236.044-2.578"/><path fill="#6f6e6e" d="M80.86 124.485c.451.928 2.668 3.199 2.686 3.824-.262-.167-.59-.435-.844-.629-.18-.62-1.534-1.867-1.851-2.573-.159-.352-.119-.305.008-.622"/><path fill="#fff" d="m131.562 85.566.69-.287-.002.335-.206.196c.158 1.118.586 2.236.532 3.396-.319-.366-.889-3.039-1.014-3.64"/><path fill="#6f6e6e" d="m121.201 119.472.12.146c-.138.97-.961 4.195-1.42 4.97l-.103.059c.056-.647.707-2.143.712-2.949.003-.358.356-1.181.399-1.619.05-.15.215-.453.292-.607M75.079 145.638c-.142-.414-.507-.893-.47-1.256l.131-.086.439.114c.229.56.558 1.04.88 1.552l.108.277c-.06.238-.01.135-.17.301-.377-.113-.441-.684-.918-.902M107.925 147.057c.074 2.179-1.055 2.566-1.024 3.752-.161.087-.299.162-.464.241.373-1.094.273-1.229.854-2.359l-.005.081c.358-.531.47-1.097.639-1.715"/><path fill="#dedddd" d="M97.704 141.299c.124.148.07.098.253.186.264-.167.414-.616.584-.952.01.525.006.657-.227 1.129-.698 1.311-.664 3.337-1.135 4.223-.034-1.005.224-2.063.458-3.037.098-.411.39-.844.373-1.217l-.179.059c-.082-.161-.08-.213-.127-.391M76.267 150.497c.423.513 2.771 3.493 2.823 3.907-.599-.349-.91-.76-1.317-1.301-.42-.952-1.078-1.631-1.506-2.606"/><path fill="#5d5c5c" d="M125.041 132.201c-.039-.275.152-4.991.197-5.204.433.821-.165 3.711.131 4.464-.115.37-.128.414-.328.74"/><path fill="#6f6e6e" d="m86.725 150.136.143-.074.33.426c-.378.707.617 2.779.299 3.335-.289-.177-.7-2.463-.641-2.94-.023-.23-.087-.512-.131-.747"/><path fill="#5d5c5c" d="m92.168 144.809.154-.207c.031.921-.088 1.81-.04 2.76.027.505.335 1.436.306 1.678l-.122.005c-.682-.846-.438-2.908-.328-3.954zM117.624 143.17c.21-.764.711-1.632.948-2.408.18-.585.09-1.039.321-1.606.38.587-.579 2.789-.641 3.549-.264.266-.295.28-.628.465"/><path fill="#6f6e6e" d="M68.989 138.178c.139.732.582 1.797.856 2.522-.207.197-.095.168-.32.179-.425-.498-.79-1.978-.713-2.646zM109.933 131.944c.045.757-1.49 3.373-2.029 3.952.358-1.303 1.237-1.804 1.591-3.504z"/><path fill="#dedddd" d="M130.881 88.824c.581 1.521.814 2.629 1.024 4.242l-.077.082.07.15c.023-.108.019-.052.01-.167l-.106-.065c-.224-.913-.702-3.1-1.032-3.86z"/><path fill="#6f6e6e" d="M62.702 131.066c.16.489-.301 1.166-.381 1.742-.056.398.055 1.111-.082 1.416-.55-.515-.117-1.449-.115-2.117.18-.345.386-.7.578-1.041"/><path fill="#dedddd" d="m122.135 118.553.094-.054c.037.097.121.337.165.416-.072.22-.09 1.255-.111 1.579a35 35 0 0 1-.32 2.869c-.195-1.786.306-3.043.172-4.81M74.739 149.851c-.116-.934-1.24-2.913-1.213-3.15.47.405.295.552.546.988.372.646 1.287 2.006 1.144 2.776-.16-.191-.324-.415-.477-.614M97.795 124.451c.113-.03.175-.06.282-.104l-.04-.27c.184-.078.337.037.592.128l-.162.212c.189.493 2.256 1.234 2.846 1.605-.684-.198-3.096-1.148-3.518-1.571M126.699 110.076c.038-.269.216-.42.399-.635a23 23 0 0 1-.135 2.113c.005-.011-.335 1.481-.379 1.646-.02-.533.277-2.807.115-3.124"/><path fill="#6f6e6e" d="m71.09 125.205.025.168c-.516.65-1.212.993-1.619 1.858a.5.5 0 0 1-.186.193c-.144-.462.762-1.167.777-1.581.437-.474.437-.548 1.002-.638M84.242 151.871c-.468-.572-.887-1.593-1.046-2.316l.13-.145c.307.487.749 1.447.975 2.004.1.247.043.256-.06.457"/><path fill="#434243" d="m74.106 149.254.633.597c.153.199.317.423.477.614l.258.299-.085.417c-.43-.421-.846-.813-1.236-1.275.098-.342.06-.254-.047-.652"/><path fill="#6f6e6e" d="M67.082 137.377c.105-.689-.142-.803.093-1.305.213.419.257.59.384 1.048l-.015.109c-.068.514-.056.657-.017 1.174l-.078.03c-.153-.227-.208-.483-.288-.601z"/><path fill="#dedddd" d="m65.874 127.912.201-.201.074.081-.02.345c-.773 1.07-1.118 1.941-1.791 2.965l-.045-.048c.166-.779 1.234-2.213 1.581-3.142"/><path fill="#5d5c5c" d="m115.174 128.575.207.445c-.098.557-.35 2.547-.431 2.782l-.057-.052c-.048-1.284.064-1.927.281-3.175"/><path fill="#dedddd" d="M94.926 126.622c.54.285 1.028.539 1.583.791.409.246.731.427 1.157.647-.294.17-.345.11-.663.021-.388-.603-1.81-.693-2.077-1.459"/><path fill="#b7b6b6" d="M75.699 144.591c.165.084.33.21.479.193.042.105.401.94.406.96-.111.338-.107.209.077.634l-.494-.139-.108-.277c.022-.494-.184-.9-.36-1.371"/><path fill="#6f6e6e" d="M93.928 125.962c.496.122 2.767.883 2.581 1.451a29 29 0 0 1-1.583-.791c-.334-.27-.633-.438-.998-.66"/><path fill="#dedddd" d="M116.745 125.521c.239-.028.373-.044.611-.098-.106.22-.194.431-.339.626-.306.439-.342.57-.517 1.064-.099-.037-.037-.008-.171-.111-.026-.398.181-.93.303-1.33zM106.728 128.56c.837.326 1.672.713 2.316 1.365-.375-.016-.501.005-.83-.151l.087-.098c-.521-.451-1.042-.667-1.573-1.116M64.995 138.625c.489.104 1.293 1.009 1.427 1.474l-.092.25c-.386-.43-.967-1.243-1.335-1.724"/><path fill="#dedddd" d="m117.077 126.1.167-.096c.047.379-.306 1.214-.477 1.55l-.095.043-.002-.359-.17-.125c.175-.494.211-.625.517-1.064z"/><path fill="#898889" d="M116.5 127.113c.175-.494.211-.625.517-1.064l.06.051-.407 1.137z"/><path fill="#fff" d="m86.868 150.062.017-.153c.02-.19.017-.274.005-.469.19.057 1.025 1.351 1.214 1.622-.294-.178-.631-.373-.906-.574z"/><path fill="#6f6e6e" d="M118.716 122.544c.096.426-.56 1.99-.98 2.066.254-.671.537-1.51.98-2.066M129.809 103.718l.149-.274c.286.344.27 1.689-.013 2-.139-.367-.026-.538-.138-.88zM64.336 133.933l.074.109c-.003.547.034 1.191.22 1.708l-.039.029c-.411-.486-.787-1.328-.255-1.846M76.78 146.782l.614.949c.13.363.193.441.106.795-.299-.145-.83-1.387-.72-1.744"/><path fill="#dedddd" d="M76.584 145.744c.3.563.676 1.214.872 1.81l-.063.177-.612-.949-.12-.404c-.184-.425-.188-.296-.077-.634M103.165 126.281l.312-.308.056.12.138.076c.576.318.795.481 1.096 1.105l-.119-.097-.279-.227c-.417-.341-.712-.449-1.204-.669"/><path fill="#898889" d="M81.404 148.913c.154.149.29.261.413.436.06.261.076.287.07.549l-.134.106c-.462-.222-.5-.655-.35-1.091"/><path fill="#dedddd" d="M131.114 87.047c.435.497.452 1.599.531 2.296l-.067.047c-.262-.656-.275-1.63-.505-2.052z"/><path fill="#b7b6b6" d="m91.162 125.806-.2-.139c-.26.002-.245.013-.472-.106-.129-.254-.269-.418-.255-.66.326.058.818.495 1.096.719z"/><path fill="#6f6e6e" d="M72.122 125.208c.077.477-.434 1.479-.796 1.711-.156-.412.565-1.063.627-1.568z"/><path fill="#060606" d="M133.589 103.214c-.002-.297.043-.623.18-.888l.04.002c.174.307.134.704.139 1.069-.029.245-.053.523-.111.761-.091-.426.027-.552-.248-.944"/><path fill="#dedddd" d="m101.251 139.399.17.113c-.52.459-.503.899-1.238 1.462.25-.498.585-1.343 1.068-1.575M92.039 127.549l.1-.077c-.186-.502-.764-.556-.866-1.251l.507.442c.23.276.495.575.71.859zM104.333 152.549c-.054-.105-.025-.034-.057-.22.208-.458.298-.732.639-1.104l.033.048c-.132.39-.191.64-.279 1.044zM96.11 143.41l.125.045.163-.119c.121.196.09.12.133.344l-.09.094-.081-.01-.114-.1-.865 1.011c.22-.445.409-.891.73-1.265M67.161 137.832l-.191-.062c-.136-.315-.379-.81-.354-1.134.23.174.337.473.466.741zM126.89 116.955c-.052.422-.171 1.048-.397 1.404-.06-.105.153-1.21.188-1.434zM111.897 130.859c-.136-.301.049-.553.168-.854l.152.157z"/><path fill="#6f6e6e" d="M130.744 97.903c.898 1.027.925 2.501 1.101 3.854l.123-.253.127.067c.058.459-.046 1.155-.344 1.516-.006.309.004.922-.129 1.173-.367-1.447-.089-4.068-.927-5.767l-.011-.142z"/><path fill="#fff" d="m131.845 101.757.123-.253.127.067c.058.459-.046 1.155-.344 1.516zM130.482 98.273l.202.078.011.142c-.054 1.421-.039 3.081-.178 4.47-.744-1.696-.338-2.89-.035-4.69"/><path fill="#6f6e6e" d="M82.857 124.636c.74-.075 4.432 1.948 4.788 2.441-.585-.173-4.42-2.096-4.788-2.441"/><path fill="#5d5c5c" d="M111.889 142.691c.566.436-.288 3.663-.523 4.304-.14.385-.345.699-.583 1.03-.165-.274.148-.443.306-.94.481-1.529.787-2.798.8-4.394"/><path fill="#dedddd" d="M96.024 145.277c.188.315.055 2.737.141 3.285.09.576.34 1.159.53 1.71-1.13-1.405-.839-3.287-.671-4.995"/><path fill="#fff" d="m109.488 144.133.062.082c.013 1.189-.524 2.743-.899 3.892l-.091-.049c.045-1.144.643-2.758.928-3.925"/><path fill="#6f6e6e" d="m88.156 149.289.151.172c.044 1.423.746 1.902 1.098 3.076-1.043-.246-1.267-2.339-1.249-3.248"/><path fill="#dedddd" d="M96.729 124.496c.322.078 1.862 1.126 2.35 1.376.578.295 1.238.639 1.854.931-1.152-.076-3.403-1.437-4.204-2.307M69.148 125.943l-.001.146c-.508.955-1.067 1.348-1.906 1.998v-.159c.47-.837 1.143-1.421 1.907-1.985"/><path fill="#6f6e6e" d="M89.314 148.316c.252.21.635.81 1.033 1.164.335.298.942.728 1.153 1.001-.99-.088-2.076-1.133-2.186-2.165"/><path fill="#dedddd" d="M118.268 133.366c.362.543-.445 4.13-.657 4.917-.054-.193.567-4.468.657-4.917"/><path fill="#5d5c5c" d="M63.844 131.107c.126.304-.1.675-.222 1.011-.307.842-.418 1.418-.443 2.308-.682-.522.295-2.721.664-3.319M122.562 136.042l.077.109c-.105.69-.635 2.385-.94 3.01l-.104-.128c.082-.582.729-2.309.967-2.991"/><path fill="#6f6e6e" d="m119.9 121.768.116.099c.13.76-.415 2.01-.726 2.685l-.069-.105c.296-.879.477-1.774.679-2.679"/><path fill="#898889" d="M66.017 137.48c-.058-.354-.196-1.069-.02-1.366.143.74.677 1.179.369 1.784z"/><path fill="#6f6e6e" d="M90.9 146.842c.066.05.757 1.644.86 1.883l-.25.033c-.478-.413-.61-1.313-.61-1.916"/><path fill="#b7b6b6" d="M100.033 142.351c.088.232-.199 2.619-.238 3.017-.223-.607-.05-2.383.238-3.017"/><path fill="#6f6e6e" d="M93.541 145.262c.268.304.384 1.412.245 1.812-.41-.32-.404-1.342-.245-1.812"/><path fill="#5d5c5c" d="m114.909 143.499.095.101c.025.66-.338 1.583-1.008 1.814-.045-.175-.042-.083.004-.275l.174-.084c.443-.644.513-.835.735-1.556M113.516 144.193l.111.167c-.127.613-.377 1.18-.685 1.721l-.112-.177z"/><path fill="#898889" d="M125.888 113.093c.351.301-.097 1.663-.242 2.057l-.079-.085c.097-.649.197-1.329.321-1.972"/><path fill="#b7b6b6" d="M81.653 150.563c.178-.054.164-.049.342-.075.276.168.34.484.455.8l-.163.003c-.367-.275-.381-.33-.634-.728"/><path fill="#dedddd" d="m70.935 142.683.132.015.61 1.674-.198-.128a4.9 4.9 0 0 1-.544-1.561"/><path fill="#6f6e6e" d="M67.23 138.579c.345.244.448 1.018.536 1.445-.39-.281-.454-.981-.536-1.445"/><path fill="#b7b6b6" d="M66.366 137.899c.082.273.224.589.166.85-.246-.26-.452-.912-.515-1.269z"/><path fill="#dedddd" d="M130.481 98.273c.035-.394.052-.572.244-.907.081.25.048.263.019.537l-.06.448zM99.93 141.131l.043.131c-.062.295-.245.451-.446.685-.002-.323.204-.584.404-.816"/><path fill="#060606" d="M102.524 128.04c.476-.088 1.212-.207 1.246.487-.09.181-.192.336-.329.485-2.094 2.274-12.111 3.298-15.378 3.347-1.622.025-3.23-.258-4.84-.219l-.125.004-.033-.099c.965-.178 2.464.022 3.487.054 1.086.034 2.004.019 3.088-.066 3.46-.272 7.065-.941 10.217-2.451 1.154-.552 1.06-.965 2.667-1.542"/><path fill="#999898" d="M82.702 127.679c-.75-.379-2.989-1.777-2.937-2.69.203-.495.608-.59 1.094-.504-.127.317-.167.269-.009.622.317.706 1.672 1.953 1.852 2.572"/><path fill="#8f8e8e" d="M127.663 106.864c.229.435.133.671.288 1.113a21 21 0 0 1-.321 2.563q-.226.568-.479 1.124l-.12.034-.068-.144c.079-.772.12-1.338.135-2.113.096-1.107.208-1.512.565-2.577"/><path fill="#dedddd" d="M73.813 143.806c.371.06.353.064.673.275l.163-.004c.066-.516-.332-1.279-.099-1.765l.098.064c.178.948.171 1.121.531 2.034l-.439-.114-.13.086c-.038.362.328.841.469 1.256l-.15.015c-.603-.675-.773-1.041-1.116-1.847"/><path fill="#b7b6b6" d="M96.211 141.973c-.205-.841-.48-2.252-.28-3.093l.072-.027c.177.583.278 2.451.577 2.76.224-.152.247-.201.502-.269-.055.484-.354.686-.358 1.298l-.043.05c.004-.297.068-.712-.081-.927-.275.019-.14-.018-.389.208"/><path fill="#434243" d="M79.403 101.065c.158.138.262.188.336.367-.026 1.433.56 2.899.379 4.842-.27-1.712-.431-3.443-.715-5.209"/><path fill="#b7b6b6" d="M98.541 140.533c.176-.912.225-1.153.583-2.004.078.302-.32 2.646-.432 3.045l-.135.243c-.19-.033-.105.011-.243-.155.233-.472.237-.604.227-1.129M97.639 141.933c-.227-.754-.512-1.759-.115-2.511l.104.056c.153.557.077 1.23.076 1.821.046.178.045.23.127.391z"/><path fill="#6f6e6e" d="M71.146 140.362c.332.71.781 1.913 1.27 2.445-.112.189-.098.189-.278.309-.3-.138-.37-.459-.576-.759-.145-.61-.354-1.388-.416-1.995"/><path fill="#dedddd" d="M93.18 143.974c-.021-.431-.069-.783.036-1.198l.106-.005c.037.34.009.83.194 1l.138-.073c.167-.365.131-1.182.13-1.623l.083-.006c-.026-.13.343 2.012.321 1.738l-.102.069c-.248-.054-.308-.037-.555.022-.254.011-.174-.036-.351.076M127.663 106.864c.241-.624.493-1.234.667-1.88a38 38 0 0 1-.379 2.993c-.155-.442-.059-.678-.288-1.113"/><path fill="#898889" d="m69.989 140.099-.297-.989.032-.037.398.676.103-.011.093-.148c.25.189.598 1.25.646 1.572-.658-.212-.229-.744-.676-1.165-.215 0-.114-.03-.3.102"/><path fill="#b7b6b6" d="M95.185 140.602c.252.698.128 1.247.465 1.962-.157.109-.238.128-.314.27-.383-.812-.243-1.339-.151-2.232"/><path fill="#dedddd" d="M79.585 146.553c-.226-.256-.49-.82-.658-1.143.431.228 1.31 1.286 1.383 1.807-.247-.263-.415-.474-.725-.664"/><path fill="#b7b6b6" d="M68.716 137.733c.132-.456.05-.738.219-1.217.102.286.1 1.256.066 1.579-.22-.173-.144-.099-.285-.362"/><path fill="#898889" d="M68.728 114.687c0 .526.036 1.092-.1 1.591l-.027.02c-.12-.47-.098-.884-.077-1.368z"/><path fill="#dedddd" d="M124.022 115.907c.17-.439.218-.609.487-1.004l.064-.025c.001.332-.356.916-.452 1.371l-.067-.008zM75.699 144.591c-.342-.572.115-.24-.235-.61.284.164.43.405.609.679l.228.099-.123.025c-.15.017-.314-.109-.48-.193"/><path fill="#242324" d="M68.524 114.93c.01-.54.039-1.006.079-1.545.05.314.03.424.183.686l-.058.616z"/><path fill="#dedddd" d="M87.443 148.529c-.092-.31-.226-.758-.078-1.05.205.194.23.735.195 1.01zM83.048 148.386c-.34-.444-.412-.598-.647-1.084.329.344.487.562.762.939z"/><path fill="#060606" d="M70.026 130.57c.931.368 1.764.999 2.664 1.306.408.14 1.393.241 1.925.349-.19.145-.505.26-.737.36-.352.077-.732.152-1.087.207-.896.138-3.262-.808-3.328-1.811.125-.247.306-.29.563-.411"/><path fill="#131313" d="M68.254 118.626c.22.166.634.665.912.911.696.614 1.388 1.135 2.114 1.719.779.593 1.56 1.504 2.423 1.961.452.239 1.239.339 1.786.589-2.804.148-6.08-2.761-7.235-5.18"/><path fill="#060606" d="M83.236 119.547c.339.057.33.075.593.275.05.15.107.202.023.299-.474.544-2.427.735-3.185.925l-.093.024a2.3 2.3 0 0 1-.566.191l-.057-.082c.69-.776 2.252-1.421 3.285-1.632"/><path fill="#434243" d="M74.853 113.406c.835-.054 2.857-.075 3.131.88-.25.286-.958.184-1.4.179-1.387-.011-2.81.168-4.174.407-.601.106-.808.353-1.477.432.591-.545 2.723-.793 3.53-.883.497-.091.931-.141 1.433-.169.532-.029 1.296.083 1.78-.038-.11-.193-.274-.24-.514-.333-1.967-.761-4.159.053-5.965.812.991-.786 2.424-1.141 3.656-1.287"/><path fill="#fff" d="M134.394 97.86c-.072-3.088-.038-6.942.877-9.91.709-2.304 3.685-4.615 6.109-4.637a3.75 3.75 0 0 1 2.747 1.151c2.138 2.261 3.028 8.618 2.821 11.645-.188 2.736-1.233 6.58-2.913 8.768-1.519 1.98-2.267 2.513-2.783 5.136-.889 4.51-3.355 8.588-7.775 4.073-.659-.664-.768-2.016-.579-2.888.207-.264-.003-.29.361-.655.096-.252.164-.753.213-1.036-.301-.628.447-3.276.301-4.61l.064-.739c.058-.238.082-.516.111-.761.273-1.304.793-4.35.446-5.537"/><path fill="#131313" d="M133.472 109.507c.531-.951 1.293-2.025 2.409-2.351 1.855-.555 3.818.744 4.235 2.572.469 2.054-1.087 4.291-3.143 4.642-2.565.438-3.817-1.524-3.714-3.827.096-.252.164-.753.213-1.036"/><path fill="#434243" d="M134.395 108.964c.937-1.11 1.08-1.581 2.553-1.25.856.148 1.09.11 1.68.719l.108.11.064.069c.882.867.973 1.888.677 3.034l-.168.314c-.13.297-.294.728-.565.922-.43.407-.787.683-1.35.892-.616.211-1.151.125-1.759.017l-.483-.289c-1.448-1.077-1.527-1.913-1.273-3.578l.115-.242c.115-.298.161-.514.401-.718"/><path fill="#6f6e6e" d="M134.396 108.964c.936-1.11 1.079-1.581 2.552-1.25l.126.167c-.202.245-2.296 1.069-2.678 1.083"/><path fill="#898889" d="M135.958 109.88c.157-.121 2.622-1.226 2.842-1.268-.037.122-.064.145-.131.257-.733.371-1.902.963-2.711 1.011"/><path fill="#6f6e6e" d="M133.994 109.682c.71-.253 1.468-.533 2.216-.633-.264.202-1.727.773-2.128.918l-.203-.043z"/><path fill="#dedddd" d="M135.152 113.502c.499-.042.997-.286 1.472-.477-.308.277-.619.604-.989.766zM137.394 113.774c.237-.385.891-.864 1.35-.892-.43.407-.787.683-1.35.892M138.088 112.44q.256-.187.517-.369c.304-.206.585-.481.872-.425l-.168.313z"/><path fill="#898889" d="m137.682 111.433.098.066c-.568.49-1.42.826-2.118 1.137l-.027.003-.04-.052c.433-.37 1.533-.875 2.087-1.154"/><path fill="#6f6e6e" d="m135.326 110.651.078.124c-.357.386-.929.477-1.436.604l-.109-.057c.155-.154.98-.418 1.355-.612z"/><path fill="#dedddd" d="m135.158 111.952.194.05c-.171.273-.466.468-.727.683-.158-.008-.082.017-.22-.093.142-.264.495-.46.753-.64"/><path fill="#898889" d="m138.997 111.445.076.051c-.171.227-.76.51-1.037.664l-.075-.137c.325-.276.649-.397 1.036-.578"/><path fill="#060606" d="M141.872 93.764c.157-.176.247-.177.476-.252 1.373 3.135 2.542 5.463-1.11 7.732l-.273-.173c.394-.275.921-.839 1.258-1.197 1.789-1.906.421-4.072-.351-6.11M138.917 86.636c.069.507-1.99 7.608-2.344 8.343-.281-1.242 1.501-7.45 2.344-8.343"/><path fill="#242324" d="M145.208 96.652c.865 2.384-.816 5.413-2.341 7.108-.574.638-.989 1.353-1.647 1.943-.088-.008-.038.008-.127-.088.641-.719 1.249-1.633 1.838-2.338 1.929-2.308 2.342-3.587 2.277-6.625"/><path fill="#232020" d="M140.738 90.325c.811 1.093 1.082 1.931 1.609 3.187-.228.075-.318.076-.475.252a26 26 0 0 1-1.134-3.439"/><path fill="#242324" d="m140.965 101.071.273.173-.095.123-.196-.023a51 51 0 0 0-2.73 1.658c-1.24.023-1.392-.051-2.516.368l-.058-.044c.74-.84 1.861-.286 2.64-.646.831-.385 1.888-1.105 2.682-1.609"/><path fill="#131313" d="M141.853 84.657c.576-.035 1.392-.048 1.773.472-.256.035-.36-.044-.599-.154l-.093-.043c-.743-.11-1.151-.047-1.881-.02.222-.138.537-.19.8-.255"/><path fill="#dedddd" d="M132.898 111.198c-.081-.033-.031-.006-.124-.118.126-1.538.598-4.745.999-6.183.146 1.334-.602 3.982-.301 4.61-.049.283-.117.784-.213 1.036-.364.365-.154.391-.361.655"/><path fill="#060606" d="M85.806 87.65c1.703-.357 4.234-2.307 5.892-2.95.868-.2 1.884-.315 2.78-.381 5.206-.383 10.499-.88 15.711-.383.725.069 1.158-.437 1.9-.044.303.45.059.891-.041 1.487l-.165.135c-1.849 1.574-1.614 3.85-1.774 6.045-.078.315-.206 1.093-.085 1.389.066 1.557-.105 3.202-.336 4.742-.223 1.478-1.626 7.574-2.497 8.478a3.6 3.6 0 0 1-1.35.876c-3.124 1.104-7.237 1.343-10.537 1.745-2.367.288-4.813.745-7.2.724-1.056-.008-1.88-.116-2.65-.904-2.455-2.51-4.075-5.853-6.037-8.745-.605-.892-1.198-1.877-2.021-2.588-.66-.57-1.483-.936-2.363-.949-.617-.009-1.273.435-1.676.872-.788.856-1.216 2.442-1.65 3.516a54 54 0 0 0-1.843 5.408c-1.02 3.578-.752 4.627-4.803 5.725-2.71.735-4.69 1.05-7.518 1.232q-.994.061-1.989.04c-.035-.368-.085-.793-.099-1.159.412.085 1.142.244 1.58.239 2.736-.03 5.85-.496 8.478-1.238.477-.136 1.328-.671 1.705-.923 1.054-.707 1.654-1.185 1.888-2.49.342-1.909.603-3.805.873-5.723.153-1.086.57-2.17.517-3.313-.033-.696-.369-1.764-.706-2.358-.138-.318-.844-1.371-1.106-1.85-.603-.773-1.732-1.57-2.555-2.125-1.481-.995-3.75-.63-5.44-.516-3.195.217-6.577.482-9.691 1.264-.09-.371-.17-.78-.252-1.156 3.88-.577 7.728-1.39 11.654-1.696.505-.04 1.196.69 1.745.685.217-.223.323-.681.425-.995l.32-.021c2.643-.158 2.865.578 4.533 2.42.546.604 1.387 1.322 2.01 1.875 1.024-1.971 2.416-2.576 4.287-1.113.415-1.449 1.146-2.852 1.524-4.327.093-.363.301-.891.644-1.066 1.976-1.01 4.675-1.47 6.845-1.816.31.687.687 1.288 1.073 1.932"/><path fill="#dedddd" d="M85.806 87.65c1.703-.357 4.234-2.307 5.892-2.95.868-.2 1.884-.315 2.78-.381 5.206-.383 10.499-.88 15.711-.383.725.069 1.158-.437 1.9-.044.303.45.059.891-.041 1.487l-.165.135c-1.849 1.574-1.614 3.85-1.774 6.045-.412-.062-.947-.506-1.185-.844.344-1.52-.123-4.142-1.594-4.986-.117-.068-.252-.17-.367-.248-3.935.136-8.134.766-12.038 1.26-4.476.567-9.172 1.273-13.469 2.624-1.314.413-2.76 2.164-2.583 3.59.18 1.458.45 2.976 1.02 4.368 1.234 2.569 3.163 6.666 5.003 8.713 1.626 1.162 6.39 1.296 8.268 1.164 4.033-.283 9.958-.786 13.236-3.035 1.344-.921 2.03-9.925 2.348-10.315.505-.411.715-.573 1.276-.902.066 1.557-.105 3.202-.336 4.742-.223 1.478-1.626 7.574-2.497 8.478a3.6 3.6 0 0 1-1.35.876c-3.124 1.104-7.237 1.343-10.537 1.745-2.367.288-4.813.745-7.2.724-1.056-.008-1.88-.116-2.65-.904-2.455-2.51-4.075-5.853-6.037-8.745-.605-.892-1.198-1.877-2.021-2.588-.66-.57-1.483-.936-2.363-.949-.617-.009-1.273.435-1.676.872-.788.856-1.216 2.442-1.65 3.516a54 54 0 0 0-1.843 5.408c-1.02 3.578-.752 4.627-4.803 5.725-2.71.735-4.69 1.05-7.518 1.232q-.994.061-1.989.04c-.035-.368-.085-.793-.099-1.159.412.085 1.142.244 1.58.239 2.736-.03 5.85-.496 8.478-1.238.477-.136 1.328-.671 1.705-.923 1.054-.707 1.654-1.185 1.888-2.49.342-1.909.603-3.805.873-5.723.153-1.086.57-2.17.517-3.313-.033-.696-.369-1.764-.706-2.358-.138-.318-.844-1.371-1.106-1.85-.603-.773-1.732-1.57-2.555-2.125-1.481-.995-3.75-.63-5.44-.516-3.195.217-6.577.482-9.691 1.264-.09-.371-.17-.78-.252-1.156 3.88-.577 7.728-1.39 11.654-1.696.505-.04 1.196.69 1.745.685.217-.223.323-.681.425-.995l.32-.021c2.643-.158 2.865.578 4.533 2.42.546.604 1.387 1.322 2.01 1.875 1.024-1.971 2.416-2.576 4.287-1.113.415-1.449 1.146-2.852 1.524-4.327.093-.363.301-.891.644-1.066 1.976-1.01 4.675-1.47 6.845-1.816.31.687.687 1.288 1.073 1.932"/><path fill="#b7b6b6" d="M108.748 93.85c.095-.978.082-2.075.176-3.134.238.337.773.78 1.184.843-.077.315-.205 1.093-.084 1.389-.561.329-.771.491-1.276.902"/><path fill="#fff" d="M85.727 106.116q-.749-.957-1.473-1.929c-1.198-1.627-2.976-4.486-3.546-6.41-.315-.865-.346-2.053-.58-2.903-.616-2.222-.81-3.453 1.31-4.899.563-.365 1.36-.74 2.018-.877 6.551-1.353 13.277-2.209 19.938-2.778 1.146-.097 2.677-.034 3.797.188 1.099.857 1.097 1.955 1.146 3.236-.913-.858-1.858-1.388-2.975-1.946.754 1.044 1.994 1.546 3.097 2.725-1.09-.602-1.375-.736-2.617-1.037-1.416-.588-3.71-.747-5.238-.83-3.937-.783-8.85 1.217-11.817 3.736-.147.157-.19.213-.364.338-.783 1.285-1.478 3.041-1.843 4.506l1.279-1.696c1.149-1.739 2.661-2.106 4.573-2.71.272-.054.393-.083.677-.091l.061.068c-.204.435-.612 1.24-.715 1.668l-.12.03c-.141-.128-.114-.156-.236-.157.032.266.047.46.125.72.42 1.496.882 3.294 2.548 3.861l.688.05c-.046-.948-2.126-.519-2.158-4.097l.05-.312c.038-.23.068-.47.157-.685.327-.777 1.122-1.362 1.885-1.657.845-.328 5.963-.83 6.535-.472.358.225.538.976.676 1.356q-.088.454-.162.908c-.101.698-.681 2.095-.622 2.583.587-.214 1.171-2.08 1.5-2.731-.077-.715-.392-1.562-.258-2.035.298-.181.362-.105.787-.09 1.405.079 1.943.47 3.192 1.138-.407 1.044-.448 1.238-1.151 2.095l-.853 1.157c1.529-.868 1.354-.298 3.157-1.826-.258 1.917-.371 3.736-.901 5.645-.386 1.393-.717 3.621-2.053 4.372-.852.488-1.879.625-2.819.873-4.834 1.273-11.756 2.146-16.695.915"/><path fill="#b7b6b6" d="m93.302 94.882.05-.313c.038-.229.068-.469.157-.684.326-.777 1.122-1.362 1.885-1.657.845-.328 5.963-.83 6.535-.472.358.225.538.976.676 1.356q-.088.453-.162.908c-.363-.334-3.204.243-3.972.165l-.42.043c-.07.23-.053.113-.001.362.002.301.029.34-.129.6-.574.17-.611-.278-.983-.368l-.113-.334c-1.182.084-2.368.313-3.523.394"/><path fill="#060606" d="M96.825 94.488c-.119-1.802 1.937-1.907 2.093-.844-.121.306-.195.337-.447.54l-.42.044c-.07.23-.053.113-.001.362.002.301.029.34-.128.6-.575.17-.612-.278-.984-.368zM101.877 97.786c.815-.388 1.242-.628 2.126-.85l-3.854 3.355c-1.152.008-2.106-.115-3.25-.21-.991-.082-1.888-.031-2.882-.216.256-.119.178-.022.279-.26l-.034-.097.091-.146a8 8 0 0 1 .65-.063l.158-.006-.397-.288.008-.076.688.05c.543.06 1.257.002 1.785.022 2.27.079 2.753-.207 4.632-1.215"/><path fill="#1b191b" d="M95.46 98.98c.543.06 1.257.002 1.785.021 2.27.079 2.753-.207 4.632-1.215l.331.105c-.026.228-.003.12-.198.338-.387.166-2.09.964-2.356 1.029-1.417.34-3.833.181-5.3.104.222-.028.424-.052.65-.063l.157-.006-.397-.288.008-.076z"/><path fill="#6f6e6e" d="M94.353 99.362c1.468.077 3.884.236 5.301-.104.266-.065 1.969-.863 2.356-1.029-.484.513-1.529 1.401-2.201 1.481-1.782.213-3.724-.268-5.513-.105l-.034-.097z"/><path fill="#b7b6b6" d="M92.432 92.83c.272-.054.393-.083.678-.091l.06.068c-.204.435-.612 1.24-.715 1.668l-.12.03c-.141-.128-.114-.156-.236-.157.032.266.047.46.125.719-1.433.217-2.92.492-4.365.473 1.149-1.739 2.661-2.106 4.573-2.71"/><path fill="#131313" d="M92.432 92.83c.272-.054.393-.083.678-.091l.06.068c-.204.435-.611 1.24-.715 1.668l-.12.03c-.141-.128-.114-.156-.236-.157q.155-.76.333-1.518"/><path fill="#b7b6b6" d="M103.321 93.872c-.077-.715-.392-1.562-.258-2.035.298-.181.362-.105.787-.09 1.405.079 1.943.47 3.192 1.138-.407 1.044-.448 1.238-1.15 2.095-.251-.725-.476-1.257-1.438-1.282-.299-.008-.889.024-1.133.174"/><path fill="#242324" d="M91.762 99.509c1.02-.262 1.964-.38 3.002-.504l.397.288-.157.006c-.226.01-.428.035-.65.063l-.092.146.034.097c-.1.238-.023.141-.279.26-.677-.194-1.542-.27-2.255-.356M98.05 94.59c.374.197.375.118.521.422-.055.31-.355.564-.58.806-.472-.212-1.074-.385-1.053-.996.372.09.409.538.984.367.157-.26.13-.298.128-.6"/><path fill="#434243" d="M88.423 92.73c.135-1.062.322-1.453.885-2.328-.216.6-.505 1.358-.52 1.99-.148.157-.192.213-.365.338"/><path fill="#999898" d="m86.54 92.271.066.074c-.064.311-1.128 1.697-1.366 1.987-.036-.022-.011 0-.078-.108.44-.665.867-1.343 1.379-1.953"/><path fill="#434243" d="M100.604 88.655c1.527.084 3.822.243 5.238.831-.65-.069-1.344-.392-1.866-.146l.738.266c-.316.152-.915.378-1.038.68-.174.07-.298.083-.485.102l-.022.096.285.143.013.12c-.229.237-.559.473-.882.542-.275.076-.302.098-.592.087-.171-.153-.128-.145-.326-.234-.419.18-.439.197-.884.2-1.061.072-2.847-.096-3.892.145-.664.154-1.031.33-1.796.252-.642-.474-.514-.172-1.276.099l-.088-.067c.438-.802 2.63-1.453 2.994-2.51.05-.147.34-.185.49-.2l.175.152c.416.06.802-.356 1.4-.276.634.083 1.521.054 2.158-.05l.016-.07z"/><path fill="#6f6e6e" d="M102.832 89.156c.512.191.717.035 1.144.184l.738.266c-.316.152-.915.378-1.038.68-.174.07-.298.083-.485.102l-.022.096.285.143.013.12c-.229.237-.559.473-.882.542-.275.076-.301.098-.592.087-.171-.153-.128-.145-.326-.234-.419.18-.439.198-.884.2l-.031-.14c.283-.116.291-.136.521-.318-.252-.107-.256-.072-.546-.056.113-.4.237-.355.599-.486.232-.446.614-.41 1.067-.513l-.016-.208c.161-.152.262-.191.466-.281z"/><path fill="#242324" d="M102.393 89.829c.002.291.035.157-.105.417-.307.186-.362.17-.733.204l-.229-.108c.232-.446.614-.41 1.067-.513"/><path fill="#595759" d="M100.727 90.828c-.21-.185-.165-.123-.529-.13-.236-.657 1.331-1.494 1.844-1.69.12.152.109.144.284.226.25-.122.23-.118.506-.078l.011.184c-.204.09-.305.13-.466.281l.016.208c-.453.102-.835.067-1.066.513-.363.13-.486.086-.6.486"/><path fill="#242324" d="M96.424 90.25c.183.149.316.15.551.197l.098.02c.018.78-.75 1.005-1.381 1.024l-.303-.049q.03-.372.048-.747c.332-.125.002.092.444.147.273-.222.346-.3.543-.591"/><path fill="#dedddd" d="M98.924 90.24c.12-.004.06-.02.173.068-.245.375-1.327.755-1.776.945-.085.033-.035.028-.148-.022.264-.344 1.32-.788 1.751-.991"/><path fill="#242324" d="M105.046 89.665c.963.203 2.49.604 3.138 1.387.257.311.269 1.74.087 2.011-.253.167-.665.475-.938.536-.062-.34.124-.44.374-.648-.375-.375-.706-.45-1.048-.734-.622-.514-1.064-.946-1.94-.92-.683.019-.952.123-1.598-.095-.117.207-.109.105-.093.306-.16-.103-.271-.142-.443-.219.323-.07.653-.305.882-.542l-.013-.12-.285-.143.022-.096c.187-.019.311-.032.485-.102.123-.302.722-.528 1.038-.68z"/><path fill="#b7b6b6" d="m104.714 89.606.332.06c-.238.322-.952.482-1.37.62.123-.302.722-.528 1.038-.68"/><path fill="#434243" d="M90.728 91.296c.091.068.059.022.09.143-.552.56-1.077 1.178-1.596 1.772l-.041-.028.023-.195c.321-.492 1.056-1.354 1.524-1.692"/><path fill="#242324" d="m95.993 89.39.065.019-.01.104c-.353.256-.697.447-1.072.666l-.154-.046c.198-.36.804-.597 1.17-.742"/><path fill="#434243" d="M93.1 94.279c.083.262-.047.821-.094 1.123-.206-.431-.106-.723.093-1.123"/><path fill="#5d5c5c" d="M74.227 33.61c2.473-.269 6.658 1.731 8.497 3.423 2.911 2.535 4.484 7.276 4.684 11.05.443 8.33-8.798 14.925-16.443 15.099-3.215-.218-5.806-.835-8.15-3.046-8.813-8.317-5.74-19.889 5.019-24.527 2.638-1.138 3.452-1.726 6.393-2M19.966 88.297c.695-1.637 3.581-2.585 5.173-3.163 1.868-.626 4.01-1.608 5.928-2.055 8.017-1.87 16.447-3.441 24.656-4.058 5.22-.393 10.786-.393 16.006-.382l17.379.094q12.655.09 25.3.548c2.64.106 5.658.069 8.261.3.571-.272 3.602-.178 3.987.055-.1.14-.214.113-.444.16l.202.048c-.319.05-.44.064-.761.075 2.153.112 4.39.188 6.52.517.718-.019 1.06-.028 1.765.067l.033.057c-.339.047-.596.067-.938.088-3.929.73-8.441.304-12.466.31-3.316.004-6.611.026-9.927.077q-11.78.268-23.548.832c-2.792.106-5.607.065-8.45.18-5.418.212-10.828.62-16.217 1.222-1.671.173-3.439.454-5.133.758-3.059.55-7.632.183-9.711 2.855-.383.492-.6 1.074-.515 1.685.083.6.404 1.141.89 1.502.21.152.451.286.712.239.12-.391-.626-.981-.811-1.366-.13-.27-.203-.552-.283-.838.29-1.164.505-1.375 1.453-2.044.177 2.275.362 3.137 1.068 5.359-1.076.058-3.859.63-4.933 1.01-2.726.965-4.654.528-7.476.395-2.845-.135-5.842-.285-8.692-.593-2.471-.268-5.159-.54-7.428-1.626-1.058-.506-1.281-1.297-1.6-2.308"/><path fill="#242324" d="M122.669 79.581c.571-.272 3.602-.178 3.987.055-.1.14-.214.113-.444.16l.202.047c-.319.05-.44.065-.761.076-1.199-.008-1.803-.128-2.984-.338"/><path fill="#434243" d="M132.173 80.437c.719-.02 1.061-.029 1.765.067l.033.056c-.339.047-.596.067-.938.088l-.029-.1a8 8 0 0 0-.831-.112"/><path fill="#fff" d="m65.764 96.866.086-.034c.739.157.929.258 1.467.78.758 1.006.541 1.433.768 2.44l.212.085c.684-.407-.114-2.285-.415-2.803.615.114 1.063.575 1.605.728.787 1.525-.458 7.896-.945 9.681-.999 3.664-10.391 4.092-13.167 3.543-.219-2.368-.108-5.575-.197-8.117l-.007-.115.37-.075-.152-.174c.353-.155 1.01-.043 1.289.235l.01.129-.269.158 1.667.049c-.428-.438-.961-.77-1.464-1.135-.346-.156-.597-.328-.916-.532-.234-.228-.403-.47-.6-.73.758-1.223 2.756-2.194 4.04-2.83-.202.783-.1 1.33-.001 2.118.398.956 1.14 2.289 2.08 2.794.485.081.557.061.924-.187a.85.85 0 0 0-.28-.235c-1.132-.62-1.689-1.441-1.738-2.735.398-1.65.907-2.55 2.718-2.84.953-.152 1.954-.197 2.915-.198"/><path fill="#b7b6b6" d="m65.764 96.866.086-.034c.739.157.929.258 1.466.78-.8.458-1.626.19-1.895.665-.825-.516-1.082-.088-1.774.41-.807.182-2.648.902-3.516 1.217.398-1.65.907-2.55 2.718-2.84.953-.152 1.954-.197 2.915-.198M59.146 98.15c-.202.782-.1 1.329-.001 2.117-1.243.419-2.636.461-2.523 1.974-.346-.156-.597-.328-.916-.532-.234-.228-.403-.47-.6-.73.758-1.223 2.756-2.194 4.04-2.83"/><path fill="#434243" d="M67.11 102.356a42 42 0 0 1-4.834 2.383c-.825-.367-3.186-.753-3.577-1.286.388-.261 1.855-.188 2.402-.181l.124-.211c.485.081.557.061.925-.187l-.024.216c.212.115.25.106.49.152 1.49-.104 3.038-.522 4.493-.886"/><path fill="#dedddd" d="m62.15 102.874-.024.216c.212.114.25.106.49.152-.505.035-1.008.029-1.515.03l.124-.211c.485.081.557.061.925-.187"/><path fill="#999898" d="M59.157 103.554c1.5-.135 1.523.479 2.358.476-.543.239-1.759-.252-2.358-.476"/><path fill="#060606" d="M63.647 98.686c.692-.496.949-.925 1.774-.408.268.32.276.234.336.588-.126.27-.106.26-.354.42-.361.05-.424.046-.791.017-.084.56.739.847.967 1.398-.278.716-1.312.223-1.75-.013-.16-.74-.287-1.234-.182-2.002"/><path fill="#434243" d="m55.178 103.169-.007-.115.37-.075-.152-.174c.354-.155 1.01-.043 1.289.235l.01.129-.269.158c-.334-.07-.945-.243-1.241-.158"/><path fill="#fff" d="m85.138 82.408.12.042c-.214.532-.254.741-.37 1.298l-.167-.014c-.591 1.729.331 1.115-1.807 1.653-2.263.57-5.895.742-6.606 3.437-.238.9-.428 2.06-.983 2.7-.374.037-.815-.115-1.197-.16-1.19-.135-2.214.478-2.9 1.415-1.019-1.346-2.632-3.59-4.327-3.757-.75-.074-1.832.157-2.146.065l-.109-.136-.299.315-.16-.03c-.192-.757-.378-1.52-.601-2.268l-.08-.052-.107-.14c-.167.18-.119.148-.217.395-.006.148-.025.384-.016.523-.403-.459-.601-.731-1.164-.996.52.539.758.757 1.135 1.407-.17-.142-1.222-1.039-1.347-1.088-2.939-1.15-6.162-.16-9.05.673-.633.182-1.637.799-1.84 1.445-.004.396.042.211-.166.569l-.13.046-.02-.138c-.029-.296-.034-.63-.047-.931-.022-1.202-.12-1.543.352-2.647 3.107-1.122 7.62-1.59 10.951-2.103 7.721-1.188 15.532-1.158 23.298-1.523"/><path fill="#999898" d="M50.537 88.68c2.984-2.486 9.5-4.737 12.645-1.509-.006.148-.025.384-.016.523-.403-.459-.601-.731-1.164-.996.52.539.758.757 1.136 1.407-.17-.142-1.223-1.039-1.348-1.088-2.939-1.15-6.162-.16-9.05.673-.633.182-1.637.799-1.84 1.445-.003.396.042.21-.165.569l-.132.046-.019-.138c-.029-.296-.034-.63-.047-.931"/><path fill="#b7b6b6" d="M50.584 89.613c.06-.266.057-.624.178-.84.036.186.049.199.138.362-.003.396.042.211-.165.569l-.131.046z"/><path fill="#999898" d="M63.586 86.969c.598.337.554.99 1.04 1.702.033-.316.037-.729.2-.985.17.375.047 1.015-.071 1.4l-.109-.134-.299.314-.16-.03c-.192-.756-.378-1.52-.601-2.267"/><path fill="#434243" d="m85.138 82.408.12.042c-.214.532-.254.741-.37 1.298l-.167-.014c.053-.44.217-.934.417-1.326"/><path fill="#fff" d="M41.918 95.453c-.113-.499-.245-.825-.005-1.278.833-.643 6.879-2.026 8.177-2.271.075.416.174.83.268 1.243-1.7.574-3.896 1.085-4.545 3.075-.338 1.041-.346 2.658.159 3.645l.195-.136c.278.069.346.17.552.368-.304-.789-.333-1.629-.382-2.468l.063-.314c.097-.344.097-.722.243-1.074.667-1.62 2.442-1.867 3.921-2.462.225.631.444 1.434.64 2.087l.072.326c-.009.206-.107.321-.214.49l.06.053.256-.215c.422.405.265.774.028 1.184l.069.034c.146-.156.082-.143.246-.194.253.389.98 2.041 1.074 2.46-.456.399-.827.696-1.147 1.217.035.224-.005.128.104.294.573.351 1.095.471 1.686.751.347.528.831 1.132.995 1.744.037.137.052 6.72-.006 7.032l-.107.1.075.404c.219.406.182 1.075.189 1.549-1.267-.566-3.022-1.509-3.836-2.664-2.802-3.974-4.871-8.815-6.505-13.387-.047-.132-1.856-1.148-2.237-1.509z"/><path fill="#dedddd" d="M41.918 95.453c-.113-.499-.245-.825-.005-1.278.833-.643 6.879-2.026 8.177-2.271.075.416.174.83.268 1.243-1.7.574-3.896 1.085-4.545 3.075-.338 1.041-.346 2.658.159 3.645l.195-.136c.278.069.346.17.552.368.387.739.969 2.141 1.346 2.761 1.163 1.912 4.466 7.449 6.362 8.184l-.107.1.075.404c.219.406.182 1.075.189 1.549-1.267-.566-3.022-1.509-3.836-2.664-2.802-3.974-4.871-8.815-6.505-13.387-.047-.132-1.856-1.148-2.237-1.509z"/><path fill="#0b0a0a" d="m45.971 99.868.196-.137c.278.069.346.17.552.368.387.739.969 2.142 1.346 2.761 1.163 1.913 4.466 7.449 6.362 8.184l-.108.1.076.404c-.279-.072-.567-.138-.838-.237-1.752-.644-6.626-9.43-7.586-11.443"/><path fill="#dedddd" d="M46.4 97.317c.097-.344.097-.722.242-1.074.668-1.62 2.443-1.867 3.922-2.462.225.631.443 1.434.64 2.087-.763.159-4.52 1.534-4.805 1.449"/><path fill="#242324" d="m51.205 95.869.071.326c-1.63.129-3.439 1.121-4.939 1.437l.063-.315c.284.085 4.041-1.29 4.805-1.448"/><path fill="#dedddd" d="m135.187 80.815.295-.051c.791.27 2.034 2.21 2.549 2.934-.389.257-1.665 1.298-1.913 1.337-.314-.117-.737-.762-.992-1.079-4.677-.275-3.541 1.53-7.215 2.264-2.153.249-4.588.623-6.754.582-2.518-.047-4.336.123-6.815.498-1.222.214-2.294.529-3.464.905.591-1.929 1.516-1.468 2.198-3.316 1.762-.697 4.417-1.115 6.301-1.516 4-.85 8.071-1.51 12.13-2.01 1.228-.152 2.452-.457 3.68-.548"/><path fill="#fff" d="M51.176 93.582c3.405-.83 9.11-1.381 12.655-1.241 1.221.047 3.913 1.481 4.603 2.388.13-.02.113-.031.236-.104l.014-.32c.263.479.968 1.532 1.107 1.85l-.165.006-.25-.224c.036.025.014.006.05.07l-.06.144c.077.393.113.232 0 .54l.199.933c.003.234.012.223-.077.438-.543-.153-.991-.614-1.606-.728-.095-.023-.034-.002-.167-.1l.046-.16c-.148-.45-.178-.41-.484-.782-.883-.55-1.875-1.026-2.805-1.5-5.488.823-6.393.908-10.812 4.304-.098.05-.243.134-.341.162l-.101.158c-.354-.218-.913-2.135-1.072-2.63.422-.642.901-1.24 1.38-1.84-.356.26-1.118 1.183-1.424 1.558l-.166-.052-.068-.182c.107-.67.637-1.268 1.043-1.827-.387.37-.806.87-1.168 1.279-.25-.79-.394-1.33-.567-2.14"/><path fill="#434243" d="M67.276 96.292c-.151-.453-.96-.969-1.238-1.427.675.547 2.83 2.71 3.47 2.797l.057-.038c.003.234.012.223-.078.438-.542-.153-.99-.614-1.605-.728-.095-.023-.034-.002-.167-.1l.046-.16c-.148-.45-.178-.41-.485-.782M68.684 94.305c.263.479.968 1.532 1.107 1.85l-.166.006-.25-.224c.037.026.015.006.051.07l-.06.144c.077.393.113.232 0 .54-.243-.699-.57-1.318-.932-1.962.13-.02.113-.031.236-.104zM53.319 99.258c.104-.722.648-1.692 1.01-2.357l.047.03c-.104.701-.664 1.455-.716 2.165-.098.05-.243.134-.341.162"/><path fill="#999898" d="M65.958 94.245c.318.038.71.052.919.257-.368.092-.634-.042-.92-.257"/><path fill="#fff" d="M110.138 81.605c.84-.11 4.462-.082 5.453-.07 3.348.045 7.188-.105 10.491.174-1.952.22-11.979 2.468-12.723 2.287-.218-.052-.283-.187-.392-.364-.018-.028-.121-.203-.146-.232a.6.6 0 0 0-.416-.22c-.497-.067-1.099.03-1.607.04-.58.01-1.163-.036-1.742-.078-5.767.014-10.539.467-16.214.803.605-.403 3.725-1.9 4.366-1.93 4.22-.196 8.714-.307 12.93-.41"/><path fill="#999898" d="m51.737 89.169.115.05c2.1-2.148 4.474-2.4 7.335-2.416 1.273-.008 2.819.483 3.75 1.37.302.3.451.753.587 1.156-.357.055-.786.133-1.14.168-1.954-1.295-4.078-2.012-6.403-1.409 2.624-.111 3.865.263 6.19 1.579a13 13 0 0 0-1.587-.418c-3.039-.592-7.145-1.531-9.528 1.067l-.295.317-.113-.04-.073-.523c.33-.496.464-.724.887-1.147z"/><path fill="#dedddd" d="m51.462 88.923.275.245c-.69.407-.498.834-1.162.902.33-.496.464-.724.887-1.147"/><path fill="#242324" d="M57.048 97.266c.703-.253 1.727-.95 2.169-1.007l.03.088c.715.553 1.292.236 1.56.478-.151.172-.14.166-.34.276l.01.162-1.22.423-.264.158c-.491.09-1.422.428-1.71.834-.713.313-1.635.878-2.156 1.457-.39.432-.419.564-.9.927.303.052.54.062.794.229l.086-.312c.196.26.365.502.6.73-.408.39-.381.373-.94.401-.031.055-.254.249-.316.306-.298-.126-.286-.132-.5-.353-.099-.408-.04-.35.093-.817l-.082-.044-.396.335c-.283 0-.142.024-.417-.182l-.074-.046c-.674-.308-.78-.313-1.323.208-.11-.166-.07-.07-.105-.293.32-.522.692-.819 1.147-1.218.043.187.021.124.12.289l.163-.05c.293-.345.375-.463.763-.686l.476-.352c.185-.228 1.373-1.12 1.604-1.243.324-.247.746-.568 1.128-.698"/><path fill="#5d5c5c" d="M57.048 97.266c.703-.253 1.727-.95 2.169-1.007l.03.088c.716.553 1.292.236 1.56.478-.151.172-.14.166-.34.276l.01.162-1.22.423-.264.158c-.793-.038-2.598.324-3.072.12.323-.247.745-.568 1.127-.698"/><path fill="#dedddd" d="M57.048 97.266c.703-.253 1.727-.95 2.169-1.007l.03.088c-.31.466-1.67 1.207-2.199.919M60.467 97.1l.01.163-1.22.423c.029-.214.006-.133.133-.325.328-.2.687-.207 1.077-.26"/><path fill="#373537" d="M55.92 97.964c.475.204 2.28-.159 3.073-.12-.491.09-1.422.428-1.71.834-.806-.05-1.102.038-1.831.352l-.103-.099c-.4.127-.624.197-1.033.276.185-.228 1.373-1.12 1.605-1.243"/><path fill="#242324" d="m55.022 101.29.085-.311c.196.26.365.502.6.73-.408.39-.381.373-.94.4-.2-.282-.191-.152-.171-.41.21-.149.27-.203.426-.409"/><path fill="#434243" d="M53.075 101.309c.156-.394 1.53-1.414 1.97-1.327l-.032.133c-.482.147-1.443.897-1.864 1.241z"/><path fill="#5d5c5c" d="M54.316 99.206a8 8 0 0 0 1.033-.275l.103.099c-.325.157-1.308.628-1.612.529z"/><path fill="#999898" d="M55.765 89.075c.205.138.212.146.442.23.025-.02.234-.19.267-.194 1.087-.123 3.631.349 4.614.578-.776.117-2.188.356-2.92.375-.886.122-6.849 1.182-7.18 1.08.117-.115.062-.087.14-.12 1.307-1.383 2.775-1.804 4.637-1.949"/><path fill="#fff" d="M51.128 91.024c2.157-.622 4.53-1.576 6.858-1.113.145.03.088.005.182.152-.886.123-6.849 1.183-7.18 1.081.117-.115.062-.087.14-.12"/><path fill="#999898" d="m95.028 82.08.272-.1.154.12-.057-.14.144.092-.023-.098.15.062c-.07.075-3.752 1.955-4.044 2.035-.263.09-.167.058-.481-.003-.338.092-.697.228-.96-.024l-.116-.13c-.32.344-.328.332-.781.47-.293.003-.315-.023-.584-.122.151-.616.478-.824.692-1.398.56-.535 2.27-1.074 2.893-.642.245.009 1.167-.114 1.512-.144.286-.12.929-.063 1.23.021"/><path fill="#434243" d="M89.394 82.844c.56-.535 2.27-1.074 2.893-.642l-2.104 1.822-.116-.13c-.32.344-.328.332-.781.47-.293.003-.315-.023-.584-.122.151-.616.478-.824.692-1.398"/><path fill="#999898" d="M91.94 82.144c-.481.594-1.278 1.086-1.873 1.75-.32.344-.328.332-.781.471l-.13-.11c.18-.566 2.183-1.732 2.785-2.111"/><path fill="#434243" d="m95.028 82.08.272-.1.154.12-.058-.14.144.092-.022-.098.15.062c-.07.075-3.752 1.955-4.044 2.035-.263.09-.167.058-.481-.003.706-.519 3.057-1.601 3.398-1.941l-.742-.05c.286-.119.929-.062 1.23.022"/><path fill="#b7b6b6" d="m95.028 82.08.272-.1.154.12-.058-.14.144.092-.022-.098.149.062c-.07.075-3.751 1.955-4.043 2.035.186-.38 2.739-1.536 3.404-1.972"/><path fill="#999898" d="m86.413 82.37.086.007q.915-.01 1.832-.034c-.512.483-1.44 1.539-1.647 2.197l-.258.174c-.24.09-.65.27-.902.2l-.384-.04c-.147-.473-.19-.637-.252-1.126.116-.556.156-.766.37-1.297l.329-.01c.191-.08.593-.065.826-.072"/><path fill="#999898" d="m86.413 82.37-.039.106c-.357.947-.687 1.262-.85 2.437l-.384-.04c-.147-.472-.19-.636-.252-1.125.116-.557.156-.766.37-1.298l.329-.008c.191-.082.593-.066.826-.073"/><path fill="#dedddd" d="m85.259 82.45.328-.008.004.109c-.753.548-.168 1.66-.451 2.323-.147-.473-.19-.637-.252-1.126.116-.556.156-.766.37-1.297"/><path fill="#242324" d="m86.413 82.37.086.007c-.149.844-.525 1.318-.71 2.734.53-.768.84-1.44 1.374-2.211-.141.578-.722 1.17-.737 1.814-.24.09-.651.269-.902.199.163-1.175.493-1.49.85-2.437z"/><path fill="#999898" d="m89.247 82.332.228-.08.182.124-.09-.137.248.044c-.172.161-.28.26-.467.408l.046.153c-.214.574-.54.782-.692 1.398-.28.194-1.705.395-2.018.298.704-.57 1.128-2.072 2.216-2.262z"/><path fill="#5d5c5c" d="m88.9 82.278.347.054c-.25.281-.807 1.013-1.051 1.114l-.077-.037c.182-.257.752-.887.78-1.131"/><path fill="#999898" d="m87.702 85.217.29-.172.12.056c-.046.459-.333 1.322-.706 1.644l-.233.002c-.166.274-.407.536-.724.595l-.173-.12c-.308-.681-.238-.974-.194-1.717.486-.15.979-.232 1.478-.329z"/><path fill="#b7b6b6" d="m87.703 85.217.29-.172.118.056c-.045.459-.331 1.322-.705 1.644.005-.311.219-1.176.296-1.528"/><path fill="#434243" d="m87.56 85.176.142.04c-.077.353-.291 1.218-.296 1.529l-.233.001q.179-.789.387-1.57M59.217 96.26c.67.09.56.367 1.438.225l-.038-.099c-.213-.078-.573-.162-.666-.317.399-.223 3.747.257 4.303.42l.413.115c-.86 0-2.035.057-2.889.242-.456.1-.692.328-1.301.417l-.01-.162c.2-.11.189-.104.34-.276-.268-.242-.845.075-1.56-.478z"/><path fill="#999898" d="M88.56 84.877c.216.026.27.043.483.096.271.468-.347.886-.693 1.133l-.264.167-.085-.08c.08-.444.35-.903.558-1.316"/><path fill="#898889" d="M51.462 88.924c.21-.648 1.677-1.101 2.284-1.26-.85.523-1.352.723-2.01 1.505z"/><path fill="#b7b6b6" d="M63.182 87.172c.098-.248.05-.216.217-.396l.107.14c-.199.429.394 1.533.212 2.194-.296-.529-.271-.884-.552-1.416-.008-.14.01-.375.016-.523"/><path fill="#6f6e6e" d="m53.932 88.961.162.027c-.183.188-1.28.573-1.597.695l-.08.011-.016-.068c.5-.389.909-.562 1.53-.665"/><path fill="#898889" d="m89.734 84.84.47-.008.034.082-.638.407c-.152.093-.069.069-.254.066.147-.316.139-.302.388-.546"/><path fill="#434243" d="m65.764 96.866-.36-.108-.08-.186.091-.096c.266.002.403 0 .67.043l.009.11-.23.13-.014.074zM61.541 95.662c.526-.102.841-.071 1.3.203-.348.054-1.015.011-1.3-.203"/></g></g></g><defs><clipPath id="a"><path fill="#fff" d="M0 0h180v180H0z"/></clipPath></defs></svg>