<svg width="200" height="200" viewBox="0 0 200 200" fill="none" xmlns="http://www.w3.org/2000/svg">
<g clip-path="url(#clip0_3715_454)">
<mask id="mask0_3715_454" style="mask-type:luminance" maskUnits="userSpaceOnUse" x="0" y="0" width="200" height="200">
<path d="M200 0H0V200H200V0Z" fill="white"/>
</mask>
<g mask="url(#mask0_3715_454)">
<path opacity="0.5" d="M0 0H200V200H0V0Z" fill="#FFE7CC"/>
<path d="M45.6776 103.986C38.546 103.563 18.9745 103.131 14.3088 97.8614C13.8947 97.3938 13.485 96.8028 13.5218 96.148C13.5686 95.316 14.6022 94.522 15.2073 94.0304C16.3082 93.136 17.6518 92.4068 18.8828 91.7038C20.6206 90.711 22.39 89.7042 24.2408 88.9348C27.2678 87.6762 31.1826 86.7334 34.3736 85.8076C36.9072 85.0726 39.4288 84.2316 42.027 83.7496C43.488 83.4786 44.9706 83.2266 46.4444 83.0412C47.7458 82.8774 49.2302 82.9586 50.4648 82.4948C51.395 82.1452 51.72 81.3854 51.829 80.4366C52.0568 78.4516 51.1074 75.3298 50.6832 73.3024C50.3624 71.7922 50.0714 70.2758 49.81 68.754C48.926 63.8574 48.3542 58.9098 48.0982 53.9406C47.8776 49.9668 48.1998 51.3062 50.2314 48.3118C54.7696 41.6224 59.9542 36.3526 65.9522 31.0146C67.849 29.3 69.7744 27.6172 71.7274 25.9668C73.0026 24.9066 74.2026 24.344 75.8586 24.0416C84.2998 22.5002 92.8096 22.0668 101.344 21.3114C107.347 20.78 113.418 19.66 119.495 19.8419C121.317 19.8965 123.262 21.7896 124.664 22.9036C126.323 24.2018 127.968 25.518 129.599 26.8518C133.292 29.878 137.104 32.8524 140.834 35.8422C141.903 36.7 143.125 37.567 144.271 38.3224C145.983 39.4512 147.039 39.2676 148.401 40.9894C149.569 42.4656 149.697 43.5804 150.432 45.2602C151.266 47.1672 152.157 49.3336 152.672 51.3522C154.784 59.6378 154.084 68.6312 154.819 77.1038C155.039 79.6386 155.346 82.2006 155.594 84.7354C155.688 85.6962 156.314 87.3106 156.195 88.225C155.98 89.886 154.167 90.4248 154.32 92.224C154.557 92.3396 154.672 92.2682 154.921 92.17C161.068 89.754 162.217 94.4546 163.121 99.1456C164.157 104.526 164.212 108.773 162.083 113.934C161.125 116.255 159.377 117.818 158.226 119.975C157.589 121.149 157.743 122.394 157.571 123.666C156.958 126.14 155.776 128.522 153.252 129.494C151.156 130.301 149.57 129.024 147.995 127.82C147.736 127.085 147.528 126.737 147.143 126.052C146.837 128.465 146.225 130.18 145.645 132.527C145.382 133.595 145.187 134.905 144.885 135.914C144.62 136.8 143.911 137.913 143.542 138.856L140.436 146.766C139.379 149.478 136.659 157.203 134.311 158.832C126.976 163.926 118.989 168.907 111.188 173.318C109.648 174.189 108.366 175.033 106.641 175.427C102.705 176.505 100.208 175.918 96.286 175.549C94.6326 175.394 92.0474 174.773 90.5584 174.067C89.9722 173.789 90.0082 173.78 89.327 173.6C88.7758 172.834 88.954 173.054 88.254 172.524C86.762 171.397 85.0236 169.367 83.7662 167.979C83.2872 167.511 82.8254 167.075 82.3924 166.563C80.2076 164.238 77.5242 162.303 75.3628 159.998C72.875 157.345 69.197 153.649 67.187 150.646C62.6972 143.934 61.54 134.311 60.6996 126.407C53.7916 125.393 51.0534 113.966 48.3344 108.712C47.5088 107.116 44.9408 106.61 45.6776 103.986Z" fill="#131313"/>
<path d="M149.426 94.087C149.102 97.278 148.975 100.542 148.793 103.746C148.634 106.566 148.788 109.341 148.63 112.171L148.629 112.147L148.738 112.39L148.632 112.32L148.683 112.538C148.629 112.431 148.66 112.507 148.643 112.292L148.759 112.357C148.954 111.404 149.269 109.7 149.326 108.733C149.712 110.053 149.135 113.437 148.831 114.886C148.799 115.158 148.772 115.467 148.708 115.731C148.606 115.258 148.738 115.118 148.433 114.682C148.027 116.646 147.599 118.43 147.058 120.355C146.656 121.784 146.492 123.112 146.018 124.569L146.055 124.64L146.266 124.434C146.257 124.94 145.651 127.826 145.513 128.49C144.144 135.006 142.166 140.078 139.299 146.067C139.171 146.479 139.156 146.527 138.934 146.891C138.304 149.04 136.06 153.778 134.74 155.758C134.46 156.179 131.913 158.157 131.391 158.561C131.098 158.856 131.063 158.872 130.693 159.077C130.24 159.4 129.861 159.772 129.424 160.114C127.021 161.983 124.449 163.586 121.96 165.33C120.901 166.071 119.883 166.897 118.778 167.565C118.6 167.662 118.446 167.745 118.264 167.834C118.022 168.184 116.711 168.997 116.299 169.241L115.926 169.499C115.149 170.108 113.904 170.823 113.086 171.37C107.486 175.108 104.935 176.005 98.3036 175.103C93.046 174.387 92.6264 174.354 87.878 171.56C87.2126 171.173 86.8658 170.716 86.4142 170.114C85.694 169.48 84.5624 168.241 83.8596 167.516L83.7662 167.979C83.2872 167.511 82.8254 167.075 82.3924 166.562C82.501 166.183 82.4582 166.28 82.3398 165.838C82.0746 165.461 81.2342 164.648 80.86 164.214C78.4794 161.447 76.0012 158.777 73.7 155.943C73.271 155.466 72.6254 154.562 72.2166 154.027C71.4946 153.447 69.8248 150.42 68.9726 149.689C68.4952 149.28 68.3816 149.055 68.0296 148.537C67.424 147.593 66.355 145.91 65.9146 144.905C63.9962 140.527 62.8954 135.628 62.2946 130.896C62.1616 129.848 61.854 127.798 61.931 126.859C62.6976 126.782 63.8418 126.775 64.6536 126.746C68.8314 126.592 72.492 125.599 76.3126 123.765L76.2252 125.983C76.2802 126.332 76.2576 126.455 76.429 126.745C76.599 126.006 76.7248 124.94 76.8626 124.159C77.133 122.711 77.4296 121.269 77.7524 119.831C78.5994 116.131 80.0618 112.604 81.2634 109.036C81.7624 107.555 83.5758 107.405 84.746 107.973C86.028 108.593 87.7586 111.089 88.2258 112.295C88.4016 112.448 88.5166 112.504 88.5988 112.702C89.4942 114.542 93.4704 120.689 95.022 121.833L95.7032 122.341C99.3222 122.745 103.029 121.908 106.669 121.531C109.768 121.211 117.149 120.464 119.605 118.741C120.276 117.401 120.557 115.953 120.969 114.597C122.142 110.729 122.651 107.253 122.949 103.233C123.045 101.944 122.906 100.427 123.172 99.2548C123.331 98.5498 125.627 98.2666 126.355 98.1464C128.445 97.8008 130.879 97.2394 132.999 97.141C136.168 96.9938 139.472 96.925 142.628 96.5638C143.372 96.4786 145.256 95.6062 145.951 95.2348L146.18 95.0732L146.947 94.7542C147.918 94.2486 148.293 94.1638 149.426 94.087Z" fill="#FFF9F2"/>
<path d="M149.426 94.087C149.102 97.278 148.975 100.542 148.793 103.746C148.634 106.566 148.788 109.341 148.63 112.171L148.629 112.147L148.738 112.39L148.632 112.32L148.683 112.538C148.629 112.431 148.66 112.507 148.643 112.292L148.759 112.357C148.954 111.404 149.269 109.7 149.326 108.733C149.712 110.053 149.135 113.437 148.831 114.886C148.799 115.158 148.772 115.467 148.708 115.731C148.606 115.258 148.738 115.118 148.433 114.682C148.027 116.646 147.599 118.43 147.058 120.355C146.656 121.784 146.492 123.112 146.018 124.569L146.055 124.64L146.266 124.434C146.257 124.94 145.651 127.826 145.513 128.49C144.144 135.006 142.166 140.078 139.299 146.067C139.171 146.479 139.156 146.527 138.934 146.891C138.304 149.04 136.06 153.778 134.74 155.758C134.46 156.179 131.913 158.157 131.391 158.561C131.098 158.856 131.063 158.872 130.693 159.077C130.24 159.4 129.861 159.772 129.424 160.114C127.021 161.983 124.449 163.586 121.96 165.33C120.901 166.071 119.883 166.897 118.778 167.565C118.6 167.662 118.446 167.745 118.264 167.834C118.022 168.184 116.711 168.997 116.299 169.241L115.926 169.499C115.149 170.108 113.904 170.823 113.086 171.37C107.486 175.108 104.935 176.005 98.3035 175.103C93.0459 174.387 92.6263 174.354 87.8779 171.56C87.2125 171.173 86.8657 170.716 86.4141 170.114C85.6939 169.48 84.5623 168.241 83.8595 167.516L83.7661 167.979C83.2871 167.511 82.8253 167.075 82.3923 166.562C82.5009 166.183 82.4583 166.28 82.3397 165.838C82.0745 165.461 81.2341 164.648 80.8599 164.214C78.4793 161.447 76.0011 158.777 73.6999 155.943C73.2709 155.466 72.6253 154.562 72.2165 154.027C71.4945 153.447 69.8247 150.42 68.9725 149.689C68.4951 149.28 68.3815 149.055 68.0295 148.537C68.3811 147.837 68.5847 147.426 69.0259 146.785C69.2273 146.402 69.4559 146.008 69.6679 145.629C69.8099 145.16 69.8987 145.03 70.2611 144.755L70.1869 144.93C71.1669 143.979 72.1449 142.999 73.1933 142.125L73.4165 141.901L73.4983 141.991L73.4771 142.375C74.8193 140.976 75.6495 140.171 77.4525 139.524C77.4953 139.509 77.7177 139.374 77.8335 139.331L77.9455 139.413C77.6971 139.611 77.7099 139.528 77.6201 139.762L77.8743 139.825C78.3599 139.299 78.3597 139.217 78.9877 139.116C79.3395 139.067 79.6017 139.18 79.9475 139.278L80.1357 139.12C80.8921 138.72 81.2247 138.844 82.0797 138.941C83.1833 139.78 81.8443 140.459 81.9121 140.825L82.2387 140.702C82.4537 141.259 81.9539 142.193 81.3965 142.483C80.6675 142.508 80.4775 142.11 80.8547 141.5L80.7629 141.397C79.8565 141.353 80.1299 141.858 79.4351 142.107C78.9831 142.042 78.9629 142.041 78.5819 142.367C76.5289 144.125 74.6245 146.118 72.4467 147.733C73.4369 145.656 74.6629 144.865 75.9511 143.189C73.4541 144.85 73.0333 145.283 71.4623 147.739C71.4791 148.09 71.5145 148.47 71.4843 148.814L71.5665 148.936C72.2035 149.272 74.1055 150.687 74.6381 151.191C74.8755 151.656 74.9237 151.847 75.0655 152.355C75.3253 153.261 75.6597 153.955 76.0789 154.796C75.9917 154.341 75.8009 153.451 75.7753 153.03C75.9603 153.109 75.9217 153.123 76.0699 153.311L76.1679 153.272L76.1121 152.771L76.1637 152.776L76.1731 152.904L76.2969 152.928L76.3511 153.037C76.5079 153.329 76.4225 153.247 76.6671 153.439L76.6541 153.531C76.8085 154.345 77.3005 155.527 77.6055 156.333L77.8375 156.558C77.9537 156.343 77.8209 155.965 77.7647 155.666C77.9705 155.519 77.8583 155.552 78.0971 155.553C78.5941 156.02 78.1173 156.611 78.8489 156.847C78.9747 157.241 79.2183 157.882 79.5133 158.175C79.7419 158.508 79.8205 158.864 80.1531 159.018C80.3533 158.885 80.3373 158.885 80.4615 158.675C80.8775 158.853 81.2299 159.895 81.4647 160.34C81.8769 161.119 82.2041 161.718 82.7879 162.388C82.4173 161.489 81.9905 160.626 81.6417 159.717C81.3297 158.903 81.6175 158.752 81.6249 157.938C81.8569 158.646 81.9079 159.05 82.0143 159.784C82.3951 160.68 82.5841 161.087 83.2535 161.837L83.4209 161.82C83.2637 161.359 82.8579 160.827 82.8999 160.425L83.0447 160.329L83.5321 160.455C83.7863 161.077 84.1525 161.611 84.5103 162.18C84.5347 161.631 84.3055 161.18 84.1095 160.656C84.2927 160.75 84.4761 160.89 84.6417 160.871L84.7785 160.844C85.6167 161.043 85.2973 160.957 85.7863 161.559C86.2391 162.115 87.5481 165.232 87.9815 165.454C87.9749 164.857 86.5919 162.224 86.3363 161.202C86.6225 161.589 86.9593 162.299 87.1875 162.746C87.8619 164.066 88.6877 165.467 89.8261 166.443C89.3121 165.251 88.9551 163.895 88.4279 162.837C88.7723 163.048 88.9587 163.282 89.2331 163.574C89.5815 164.253 89.8917 164.924 90.4483 165.459C90.6203 165.625 90.7699 165.749 90.9071 165.943C91.0509 165.573 91.1665 165.239 91.5147 165.067C91.9277 165.18 92.3233 165.672 92.5837 166.011C92.7157 165.608 92.4691 165.266 92.2753 164.873L92.4031 164.712C94.5067 166.754 94.0611 166.242 96.5063 167.648C96.4813 167.393 96.4105 167.079 96.3609 166.817L96.2419 166.681C96.5723 166.01 96.2551 165.896 96.4261 165.442L96.7283 165.723L96.8785 165.675L96.9999 165.304L97.1173 165.264L97.1587 165.032L97.2887 164.988C97.4089 165.273 97.3893 165.274 97.6149 165.478C97.7263 164.205 98.9197 162.176 99.6267 161.084C99.4803 161.535 98.9871 162.977 99.1581 163.38C99.5165 163.229 100.354 161.842 100.632 161.419C101.379 161.335 101.785 161.337 102.409 160.899L102.58 160.669C102.951 160.572 103.262 160.234 103.533 159.971C103.729 159.847 103.642 159.899 103.923 159.887C103.824 160.503 103.863 160.904 103.892 161.525C104.591 160.402 105.104 159.717 105.93 158.704C106.014 158.547 106.103 158.525 106.277 158.404L106.901 157.748C107.177 157.497 107.027 157.538 107.333 157.517C107.499 157.756 107.428 158.217 107.423 158.547C106.987 158.793 107.011 158.876 106.789 159.345L106.928 159.395L107.108 159.262C107.243 159.479 107.208 159.396 107.257 159.645C107.537 159.075 108.118 158.257 108.487 157.703L108.701 157.434C108.61 157.255 108.611 157.196 108.56 156.999C108.698 157.163 108.638 157.107 108.841 157.205C109.135 157.02 109.301 156.521 109.49 156.147C109.501 156.731 109.497 156.878 109.237 157.402C109.391 157.587 109.297 157.538 109.508 157.574L109.658 157.305L109.677 157.324C109.909 157.329 109.939 157.04 110.133 156.706C110.531 156.018 111.143 155.561 111.635 154.936C111.69 154.885 112.1 154.151 112.164 154.154C113.165 154.207 112.943 152.598 113.681 152.186L113.733 152.29C113.413 153.057 113.027 154.307 112.501 154.888L112.69 155.014C113.393 154.275 114.368 152.768 115.116 152.261C115.401 151.916 115.848 151.195 116.115 151.14L116.474 151.104C116.784 150.564 116.94 150.367 117.511 150.151L117.702 150.173L117.706 150.268C117.061 150.928 116.98 151.784 116.774 152.663C117.178 152.097 117.589 151.537 118.008 150.982C118.506 150.098 119.232 148.649 120.334 148.543C120.909 147.829 120.951 147.7 121.661 147.103L122.147 146.604C122.764 146.043 123.405 145.401 124.01 144.819C123.204 144.642 121.744 144.026 120.85 143.733C121.233 144.103 121.339 144.195 121.615 144.644C121.425 144.649 121.355 144.523 121.16 144.361C120.743 144.343 120.603 144.367 120.238 144.193C119.959 144.151 119.333 144.13 119.114 144.067C118.554 143.907 117.54 143.319 116.99 143.196C116.313 143.044 116.023 143.036 115.3 142.808C115.263 142.037 114.444 142.169 113.915 142.267C113.504 142.079 112.995 142.098 112.55 142.029C110.884 141.774 110.201 142.928 108.517 142.289C108.191 142.478 108.135 142.411 107.781 142.313C107.11 142.234 105.925 141.956 105.188 141.825L104.476 141.709C103.934 141.737 103.314 141.705 102.766 141.691L102.266 141.722C101.868 141.681 101.183 141.569 100.823 141.658C101.004 141.922 101.046 141.865 101.017 142.066C100.744 141.948 100.734 141.879 100.565 141.632L100.265 141.595C99.4255 141.519 98.1063 141.429 97.3219 141.263C97.7361 141.86 98.1775 142.343 98.2009 143.061L98.0769 143.207C97.4797 143.237 96.3999 142.276 95.3421 141.921C95.8717 142.539 96.1309 142.863 96.8381 143.306C95.5965 143.195 94.7291 142.75 93.5441 142.557C93.8869 142.82 94.1157 143.002 94.4291 143.298L94.4203 143.369C93.9329 143.128 93.1943 142.87 92.8289 142.565C92.5379 142.38 92.1725 142.082 91.8911 141.866C91.6911 141.178 90.1859 139.792 89.8337 139.008C89.6581 138.616 89.7023 138.669 89.8433 138.316C90.6011 138.54 92.1015 139.605 92.8239 140.092C91.5531 138.777 91.0117 137.311 93.5563 137.307C94.8001 137.237 96.8037 138.128 97.9237 138.093C100.454 138.016 102.687 137.672 105.252 138.249C105.659 138.341 106.428 138.318 106.92 138.388L107.021 138.402L107.09 138.323L106.59 137.979L106.582 137.849C107.43 137.409 107.968 137.838 108.661 138.278C108.786 138.245 108.855 138.212 108.975 138.163L108.93 137.863C109.135 137.776 109.305 137.904 109.588 138.006C111.539 138.679 112.84 139.266 114.628 140.313L114.975 139.97C115.913 140.198 116.225 139.92 117.033 140.106C119.131 140.591 120.724 141.778 122.456 142.969C123.012 143.349 123.891 143.496 124.567 143.969C124.613 144.216 124.598 144.206 124.517 144.45L124.685 144.625C124.868 144.225 125.834 142.584 126.155 142.42C126.112 142.69 126.071 142.91 126.014 143.179C126.585 142.638 126.312 142.132 127.219 141.694C127.34 141.245 127.746 140.878 128.08 140.582L128.403 140.869C128.545 140.246 129.35 138.31 130.064 138.468C130.108 138.782 129.867 139.161 129.717 139.468C129.982 139.437 130.131 139.419 130.395 139.359C130.483 139.11 130.696 138.706 130.817 138.456C131.1 137.71 131.414 136.777 131.906 136.16C131.914 136.148 131.921 136.138 131.928 136.126C132.748 135.338 133.582 134.297 134.343 133.421C134.398 133.255 134.582 132.918 134.668 132.747C135.138 132.43 135.349 132.156 135.706 131.726L135.809 131.665C135.851 131.773 135.944 132.04 135.993 132.128C136.106 131.655 136.255 131.192 136.397 130.728C137.171 130.137 137.431 129.646 137.803 128.785L137.838 129.156L137.912 129.166L138.823 128.596C139.261 127.325 139.413 125.871 139.857 124.476L140.111 124.35C140.297 124.098 140.663 122.688 140.776 122.307C140.818 122.008 141.016 121.84 141.22 121.602C141.203 122.462 141.158 123.091 141.07 123.949L141.145 124.109L141.279 124.071C141.467 123.659 141.643 123.243 141.811 122.822C141.711 124.986 141.199 127.795 140.757 129.917L140.989 129.95C142.451 124.849 142.536 120.754 143.189 115.594C143.13 115.172 143.261 113.944 143.712 113.72C143.908 114.049 143.858 114.603 143.821 115.001C143.874 115.377 143.896 115.826 144.087 116.141L144.23 116.183L144.232 115.242C144.242 110.024 144.455 104.275 145.3 99.1172L145.424 98.6934C145.347 98.164 145.518 97.5686 145.637 97.0416L145.683 96.7192L145.951 95.2348L146.18 95.0732L146.947 94.7542C147.918 94.2486 148.293 94.1638 149.426 94.087Z" fill="#999898"/>
<path d="M127.219 141.694C127.138 142.814 126.476 144.271 126.493 145.223C126.387 145.279 126.462 145.247 126.255 145.274C126.166 144.631 126.553 143.973 126.406 143.291L126.275 143.263C125.906 143.672 125.822 143.851 125.562 144.329L125.459 144.137C125.054 144.774 123.005 148.965 122.783 149.135L122.668 149.019C123.082 147.906 124.035 146.394 124.33 145.398L124.686 144.625C124.868 144.225 125.834 142.584 126.155 142.42C126.112 142.69 126.071 142.91 126.014 143.179C126.585 142.638 126.312 142.132 127.219 141.694Z" fill="#898889"/>
<path d="M118.008 150.982C118.506 150.098 119.232 148.649 120.334 148.543L120.198 148.813C119.698 149.66 118.969 151.053 118.218 151.623L118.092 151.705C118.118 151.819 118.142 151.934 118.164 152.049C117.975 152.555 117.613 153.984 117.378 154.202L117.291 154.118C117.306 153.895 117.921 151.396 118.008 150.982Z" fill="#898889"/>
<path d="M118.218 151.623C118.581 150.82 119.286 148.976 120.198 148.812C119.698 149.66 118.969 151.053 118.218 151.623Z" fill="#DEDDDD"/>
<path d="M115.116 152.261C115.401 151.916 115.848 151.195 116.115 151.14L116.474 151.104C115.938 152.235 115.421 153.316 114.924 154.465C114.693 154.997 113.966 156.89 113.732 157.268C113.748 156.708 114.076 156.042 114.283 155.488C114.116 154.667 114.848 153.134 115.116 152.261Z" fill="#DEDDDD"/>
<path d="M115.116 152.261C115.401 151.916 115.848 151.195 116.115 151.14C116.1 151.175 116.084 151.21 116.067 151.245C115.263 152.571 114.861 154.115 114.283 155.488C114.116 154.667 114.848 153.134 115.116 152.261Z" fill="#898889"/>
<path d="M127.219 141.694C127.34 141.245 127.746 140.878 128.08 140.582L128.403 140.869L128.142 141.668C127.83 142.408 127.368 143.484 127.108 144.234C127.047 144.612 126.92 145.121 126.493 145.223C126.476 144.271 127.138 142.814 127.219 141.694Z" fill="#9F9E9E"/>
<path d="M128.08 140.582L128.403 140.869L128.142 141.668C127.83 142.408 127.368 143.484 127.108 144.234C127.078 143.689 127.873 141.294 128.08 140.582Z" fill="#DEDDDD"/>
<path d="M101.479 139.578C102.098 139.994 101.931 140.159 102.403 140.51C102.994 140.948 104.977 140.976 105.188 141.825L104.477 141.709C103.935 141.737 103.314 141.705 102.767 141.691C102.528 141.375 102.234 141.043 101.978 140.736L101.415 140.245C101.387 140.199 101.257 140.081 101.212 140.037L101.291 139.784L101.479 139.578Z" fill="#898889"/>
<path d="M101.978 140.736C102.211 140.812 104.34 141.614 104.477 141.709C103.935 141.737 103.314 141.705 102.767 141.691C102.528 141.375 102.234 141.043 101.978 140.736Z" fill="#999898"/>
<path d="M128.403 140.869C128.545 140.246 129.351 138.31 130.064 138.468C130.108 138.782 129.867 139.161 129.717 139.468L129.591 139.636C129.338 139.731 129.322 139.677 129.214 139.992C128.84 141.074 128.514 142.256 128.201 143.355L127.971 142.861C128.033 142.464 128.09 142.066 128.142 141.668L128.403 140.869Z" fill="#777676"/>
<path d="M125.562 144.329C125.822 143.851 125.906 143.672 126.275 143.263L126.406 143.291C125.001 145.919 124.878 149.162 124.43 152.05C124.275 151.869 124.379 150.828 124.399 150.552C124.529 148.845 124.819 145.843 125.562 144.329Z" fill="#DEDDDD"/>
<path d="M94.6708 138.279C96.4892 138.516 99.4434 139.958 100.519 141.338L100.566 141.632L100.265 141.595C99.0128 140.082 96.1 139.221 94.6708 138.279Z" fill="#6F6E6E"/>
<path d="M143.189 115.594C143.13 115.172 143.261 113.944 143.712 113.72C143.908 114.049 143.858 114.603 143.821 115.001C143.417 115.715 143.359 119.839 143.306 120.889C143.211 119.996 143.113 119.379 143.141 118.458C143.158 117.885 143.406 115.974 143.189 115.594Z" fill="#DEDDDD"/>
<path d="M89.8436 138.316C90.3458 139.348 92.8092 141.871 92.8292 142.565C92.5382 142.38 92.1728 142.082 91.8914 141.866C91.6914 141.178 90.1862 139.792 89.834 139.008C89.6582 138.616 89.7026 138.669 89.8436 138.316Z" fill="#6F6E6E"/>
<path d="M146.18 95.0732L146.947 94.7542L146.944 95.1266L146.716 95.3446C146.892 96.5868 147.367 97.829 147.307 99.1182C146.952 98.711 146.319 95.7412 146.18 95.0732Z" fill="#FFF9F2"/>
<path d="M134.668 132.747L134.801 132.909C134.647 133.986 133.733 137.57 133.224 138.432L133.108 138.497C133.171 137.778 133.895 136.115 133.9 135.22C133.903 134.822 134.295 133.908 134.343 133.421C134.398 133.255 134.582 132.918 134.668 132.747Z" fill="#6F6E6E"/>
<path d="M83.421 161.82C83.2638 161.359 82.858 160.827 82.9 160.425L83.0448 160.329L83.5322 160.455C83.7864 161.077 84.1526 161.611 84.5104 162.18L84.6298 162.487C84.5636 162.752 84.6186 162.638 84.4408 162.822C84.0224 162.696 83.9508 162.062 83.421 161.82Z" fill="#6F6E6E"/>
<path d="M119.917 163.396C119.999 165.817 118.744 166.248 118.778 167.565C118.6 167.662 118.446 167.745 118.264 167.834C118.678 166.618 118.566 166.468 119.212 165.212L119.207 165.303C119.604 164.713 119.729 164.084 119.917 163.396Z" fill="#6F6E6E"/>
<path d="M108.56 156.999C108.698 157.163 108.638 157.107 108.841 157.205C109.135 157.02 109.301 156.521 109.49 156.147C109.501 156.731 109.497 156.878 109.237 157.402C108.462 158.858 108.5 161.11 107.977 162.095C107.939 160.978 108.226 159.802 108.485 158.72C108.595 158.264 108.918 157.782 108.9 157.368L108.701 157.434C108.61 157.255 108.611 157.196 108.56 156.999Z" fill="#DEDDDD"/>
<path d="M84.7415 167.219C85.2107 167.789 87.8205 171.101 87.8781 171.56C87.2127 171.173 86.8659 170.716 86.4143 170.114C85.9481 169.057 85.2169 168.303 84.7415 167.219Z" fill="#DEDDDD"/>
<path d="M138.935 146.891C138.891 146.584 139.104 141.345 139.153 141.107C139.635 142.021 138.97 145.231 139.299 146.067C139.171 146.479 139.156 146.527 138.935 146.891Z" fill="#5D5C5C"/>
<path d="M96.361 166.817L96.5204 166.735L96.8868 167.209C96.4664 167.994 97.5724 170.297 97.2188 170.915C96.898 170.718 96.4406 168.178 96.5064 167.648C96.4814 167.393 96.4106 167.079 96.361 166.817Z" fill="#6F6E6E"/>
<path d="M102.409 160.899L102.58 160.669C102.614 161.692 102.482 162.68 102.536 163.735C102.566 164.297 102.907 165.331 102.876 165.601L102.74 165.605C101.983 164.666 102.253 162.374 102.375 161.212L102.409 160.899Z" fill="#5D5C5C"/>
<path d="M130.693 159.077C130.927 158.229 131.483 157.265 131.747 156.402C131.946 155.752 131.847 155.248 132.104 154.617C132.525 155.27 131.46 157.717 131.392 158.561C131.098 158.856 131.063 158.872 130.693 159.077Z" fill="#5D5C5C"/>
<path d="M76.6541 153.531C76.8087 154.345 77.3007 155.527 77.6057 156.333C77.3753 156.553 77.4997 156.521 77.2497 156.532C76.7775 155.979 76.3725 154.335 76.4573 153.592L76.6541 153.531Z" fill="#6F6E6E"/>
<path d="M122.147 146.604C122.197 147.445 120.492 150.353 119.894 150.995C120.291 149.548 121.268 148.991 121.661 147.103L122.147 146.604Z" fill="#6F6E6E"/>
<path d="M145.424 98.6934C146.069 100.384 146.328 101.614 146.562 103.407L146.476 103.498L146.554 103.665C146.579 103.545 146.574 103.606 146.564 103.479L146.447 103.407C146.198 102.393 145.667 99.962 145.3 99.1172L145.424 98.6934Z" fill="#DEDDDD"/>
<path d="M69.6682 145.629C69.847 146.172 69.3342 146.925 69.2452 147.564C69.1836 148.007 69.307 148.799 69.1546 149.138C68.544 148.565 69.024 147.527 69.0262 146.785C69.2274 146.402 69.456 146.008 69.6682 145.629Z" fill="#6F6E6E"/>
<path d="M135.706 131.726L135.81 131.665C135.852 131.773 135.944 132.04 135.993 132.128C135.913 132.372 135.894 133.522 135.87 133.882C135.8 134.97 135.671 135.991 135.515 137.07C135.298 135.085 135.854 133.689 135.706 131.726Z" fill="#DEDDDD"/>
<path d="M83.0434 166.501C82.915 165.463 81.6664 163.265 81.6952 163.001C82.218 163.451 82.0236 163.614 82.3022 164.099C82.7154 164.816 83.7318 166.327 83.573 167.184C83.3962 166.972 83.2132 166.723 83.0434 166.501Z" fill="#DEDDDD"/>
<path d="M108.661 138.278C108.786 138.245 108.855 138.212 108.975 138.163L108.93 137.863C109.135 137.776 109.305 137.904 109.588 138.006L109.408 138.241C109.617 138.789 111.914 139.612 112.569 140.024C111.81 139.805 109.13 138.749 108.661 138.278Z" fill="#DEDDDD"/>
<path d="M140.776 122.307C140.818 122.008 141.017 121.84 141.22 121.602C141.203 122.462 141.158 123.091 141.07 123.949C141.075 123.937 140.697 125.595 140.648 125.777C140.627 125.186 140.956 122.659 140.776 122.307Z" fill="#DEDDDD"/>
<path d="M78.988 139.116L79.0164 139.304C78.4432 140.025 77.6704 140.406 77.2182 141.368C77.173 141.464 77.0946 141.521 77.0106 141.582C76.8512 141.069 77.858 140.285 77.8744 139.825C78.3602 139.299 78.36 139.217 78.988 139.116Z" fill="#6F6E6E"/>
<path d="M93.6018 168.745C93.0828 168.11 92.6162 166.976 92.4398 166.173L92.5838 166.011C92.9252 166.553 93.4164 167.619 93.668 168.238C93.7798 168.513 93.7152 168.522 93.6018 168.745Z" fill="#6F6E6E"/>
<path d="M82.3398 165.838L83.0434 166.501C83.213 166.723 83.3962 166.972 83.573 167.184L83.8596 167.516L83.7662 167.979C83.2872 167.511 82.8254 167.075 82.3924 166.562C82.501 166.183 82.4584 166.28 82.3398 165.838Z" fill="#434243"/>
<path d="M74.5356 152.641C74.6524 151.876 74.3776 151.749 74.6384 151.191C74.8758 151.656 74.924 151.847 75.0656 152.355L75.0486 152.477C74.9734 153.048 74.987 153.207 75.0296 153.781L74.9438 153.814C74.7738 153.563 74.7118 153.277 74.6236 153.146L74.5356 152.641Z" fill="#6F6E6E"/>
<path d="M73.1936 142.125L73.4168 141.901L73.4986 141.991L73.4774 142.375C72.6178 143.563 72.2348 144.531 71.4864 145.669L71.436 145.616C71.6214 144.75 72.8074 143.157 73.1936 142.125Z" fill="#DEDDDD"/>
<path d="M127.971 142.861L128.201 143.355C128.092 143.975 127.813 146.186 127.723 146.447L127.659 146.389C127.606 144.962 127.73 144.248 127.971 142.861Z" fill="#5D5C5C"/>
<path d="M105.474 140.691C106.074 141.008 106.615 141.29 107.232 141.57C107.687 141.843 108.045 142.044 108.518 142.289C108.191 142.478 108.135 142.411 107.781 142.312C107.35 141.642 105.771 141.542 105.474 140.691Z" fill="#DEDDDD"/>
<path d="M84.1099 160.656C84.2931 160.75 84.4763 160.89 84.6421 160.871C84.6891 160.988 85.0885 161.916 85.0935 161.937C84.9701 162.313 84.9751 162.17 85.1793 162.643L84.6301 162.487L84.5107 162.18C84.5349 161.631 84.3059 161.18 84.1099 160.656Z" fill="#B7B6B6"/>
<path d="M104.364 139.958C104.916 140.094 107.438 140.938 107.232 141.57C106.615 141.29 106.074 141.008 105.474 140.691C105.103 140.392 104.77 140.204 104.364 139.958Z" fill="#6F6E6E"/>
<path d="M129.717 139.468C129.982 139.437 130.131 139.419 130.396 139.359C130.278 139.604 130.181 139.838 130.019 140.055C129.679 140.542 129.639 140.687 129.444 141.236C129.335 141.196 129.403 141.228 129.255 141.113C129.226 140.672 129.455 140.08 129.591 139.636L129.717 139.468Z" fill="#DEDDDD"/>
<path d="M118.587 142.845C119.517 143.207 120.444 143.637 121.16 144.361C120.743 144.343 120.604 144.367 120.238 144.193L120.335 144.085C119.756 143.583 119.177 143.343 118.587 142.845Z" fill="#DEDDDD"/>
<path d="M72.2168 154.027C72.7596 154.144 73.6538 155.148 73.8024 155.665L73.7002 155.943C73.2712 155.466 72.6256 154.563 72.2168 154.027Z" fill="#DEDDDD"/>
<path d="M130.085 140.111L130.271 140.005C130.323 140.426 129.932 141.354 129.741 141.727L129.636 141.774L129.634 141.375L129.444 141.236C129.639 140.687 129.679 140.542 130.019 140.055L130.085 140.111Z" fill="#DEDDDD"/>
<path d="M129.444 141.236C129.639 140.687 129.679 140.542 130.019 140.055L130.085 140.111L129.634 141.375L129.444 141.236Z" fill="#898889"/>
<path d="M96.5204 166.735L96.5388 166.565C96.561 166.354 96.5576 166.261 96.5446 166.044C96.7552 166.107 97.6834 167.545 97.8934 167.847C97.567 167.648 97.192 167.433 96.8868 167.209L96.5204 166.735Z" fill="#FFF9F2"/>
<path d="M131.906 136.16C132.014 136.633 131.284 138.371 130.817 138.456C131.1 137.71 131.414 136.777 131.906 136.16Z" fill="#6F6E6E"/>
<path d="M144.232 115.242L144.397 114.938C144.716 115.32 144.698 116.814 144.384 117.16C144.229 116.752 144.354 116.563 144.23 116.183L144.232 115.242Z" fill="#6F6E6E"/>
<path d="M71.4846 148.814L71.5666 148.936C71.5632 149.544 71.6044 150.259 71.8102 150.833L71.7682 150.865C71.311 150.326 70.8934 149.391 71.4846 148.814Z" fill="#6F6E6E"/>
<path d="M85.3122 163.091L85.9928 164.146C86.1368 164.549 86.2076 164.636 86.1112 165.028C85.7794 164.868 85.1898 163.488 85.3122 163.091Z" fill="#6F6E6E"/>
<path d="M85.0932 161.938C85.4276 162.563 85.845 163.286 86.0624 163.949L85.9926 164.146L85.312 163.091L85.179 162.643C84.9748 162.17 84.97 162.313 85.0932 161.938Z" fill="#DEDDDD"/>
<path d="M114.628 140.313L114.975 139.97L115.036 140.104L115.189 140.187C115.83 140.541 116.073 140.722 116.407 141.416L116.275 141.308L115.966 141.056C115.502 140.677 115.174 140.557 114.628 140.313Z" fill="#DEDDDD"/>
<path d="M90.4485 165.459C90.6203 165.625 90.7701 165.749 90.9073 165.943C90.9743 166.233 90.9919 166.262 90.9849 166.554L90.8361 166.671C90.3235 166.425 90.2811 165.943 90.4485 165.459Z" fill="#898889"/>
<path d="M145.683 96.7192C146.165 97.2708 146.185 98.4952 146.272 99.2696L146.197 99.3222C145.906 98.5938 145.892 97.51 145.637 97.0416L145.683 96.7192Z" fill="#DEDDDD"/>
<path d="M101.291 139.784L101.068 139.63C100.78 139.632 100.797 139.645 100.544 139.513C100.401 139.229 100.246 139.048 100.261 138.778C100.623 138.843 101.17 139.329 101.478 139.578L101.291 139.784Z" fill="#B7B6B6"/>
<path d="M80.1361 139.12C80.2211 139.649 79.6535 140.764 79.2517 141.021C79.0779 140.563 79.8793 139.84 79.9479 139.278L80.1361 139.12Z" fill="#6F6E6E"/>
<path d="M148.433 114.682C148.43 114.352 148.48 113.99 148.633 113.695L148.677 113.698C148.87 114.039 148.825 114.479 148.831 114.886C148.799 115.158 148.772 115.467 148.708 115.731C148.606 115.258 148.738 115.118 148.433 114.682Z" fill="#060606"/>
<path d="M112.501 154.888L112.69 155.014C112.112 155.523 112.131 156.013 111.314 156.638C111.592 156.084 111.965 155.146 112.501 154.888Z" fill="#DEDDDD"/>
<path d="M102.266 141.722L102.376 141.636C102.17 141.078 101.527 141.018 101.415 140.245L101.978 140.736C102.234 141.043 102.528 141.375 102.767 141.691L102.266 141.722Z" fill="#DEDDDD"/>
<path d="M115.926 169.499C115.865 169.383 115.897 169.461 115.862 169.254C116.094 168.746 116.193 168.441 116.572 168.027L116.609 168.081C116.462 168.515 116.396 168.792 116.299 169.241L115.926 169.499Z" fill="#DEDDDD"/>
<path d="M106.789 159.345L106.928 159.395L107.108 159.262C107.243 159.479 107.208 159.396 107.257 159.645L107.156 159.749L107.066 159.737L106.94 159.627L105.979 160.75C106.223 160.256 106.433 159.76 106.789 159.345Z" fill="#DEDDDD"/>
<path d="M74.6235 153.146L74.4109 153.078C74.2599 152.728 73.9901 152.178 74.0181 151.817C74.2731 152.011 74.3917 152.343 74.5355 152.641L74.6235 153.146Z" fill="#DEDDDD"/>
<path d="M140.989 129.95C140.932 130.419 140.799 131.114 140.548 131.51C140.481 131.394 140.718 130.166 140.757 129.917L140.989 129.95Z" fill="#DEDDDD"/>
<path d="M124.33 145.398C124.179 145.064 124.385 144.784 124.517 144.45L124.685 144.625L124.33 145.398Z" fill="#DEDDDD"/>
<path d="M145.271 108.781C146.269 109.923 146.299 111.56 146.494 113.063L146.631 112.782L146.772 112.856C146.837 113.367 146.721 114.14 146.39 114.541C146.383 114.885 146.395 115.565 146.247 115.845C145.839 114.236 146.147 111.324 145.217 109.437L145.204 109.278L145.271 108.781Z" fill="#6F6E6E"/>
<path d="M146.494 113.063L146.631 112.782L146.772 112.856C146.837 113.367 146.721 114.14 146.39 114.541L146.494 113.063Z" fill="#FFF9F2"/>
<path d="M144.98 109.192L145.204 109.278L145.217 109.437C145.156 111.016 145.173 112.859 145.019 114.403C144.192 112.519 144.644 111.192 144.98 109.192Z" fill="#FFF9F2"/>
<path d="M92.0632 138.484C92.8864 138.401 96.988 140.648 97.3832 141.196C96.7332 141.004 92.4718 138.868 92.0632 138.484Z" fill="#6F6E6E"/>
<path d="M124.321 158.546C124.95 159.03 124.001 162.615 123.74 163.328C123.584 163.756 123.356 164.104 123.092 164.473C122.909 164.168 123.257 163.98 123.432 163.428C123.967 161.729 124.307 160.319 124.321 158.546Z" fill="#5D5C5C"/>
<path d="M106.693 161.419C106.902 161.769 106.755 164.46 106.851 165.069C106.95 165.709 107.227 166.356 107.438 166.969C106.183 165.408 106.507 163.316 106.693 161.419Z" fill="#DEDDDD"/>
<path d="M121.653 160.147L121.723 160.239C121.736 161.56 121.14 163.287 120.724 164.563L120.622 164.509C120.672 163.238 121.337 161.444 121.653 160.147Z" fill="#FFF9F2"/>
<path d="M97.9512 165.877L98.119 166.067C98.168 167.648 98.9482 168.182 99.3388 169.485C98.1806 169.212 97.9306 166.887 97.9512 165.877Z" fill="#6F6E6E"/>
<path d="M107.477 138.329C107.834 138.415 109.545 139.58 110.087 139.857C110.729 140.186 111.464 140.567 112.147 140.892C110.868 140.808 108.366 139.296 107.477 138.329Z" fill="#DEDDDD"/>
<path d="M76.8306 139.937L76.8298 140.099C76.2654 141.16 75.644 141.597 74.7118 142.319L74.7128 142.143C75.2346 141.212 75.982 140.563 76.8306 139.937Z" fill="#DEDDDD"/>
<path d="M99.2374 164.796C99.5176 165.029 99.9434 165.695 100.386 166.089C100.758 166.42 101.432 166.898 101.667 167.201C100.566 167.104 99.3594 165.942 99.2374 164.796Z" fill="#6F6E6E"/>
<path d="M131.409 148.185C131.811 148.787 130.914 152.773 130.679 153.647C130.619 153.434 131.309 148.684 131.409 148.185Z" fill="#DEDDDD"/>
<path d="M70.9372 145.675C71.0782 146.013 70.8272 146.425 70.691 146.798C70.3494 147.733 70.2268 148.373 70.1986 149.362C69.4408 148.782 70.5264 146.339 70.9372 145.675Z" fill="#5D5C5C"/>
<path d="M136.181 151.158L136.266 151.279C136.149 152.046 135.56 153.929 135.221 154.623L135.105 154.481C135.197 153.834 135.916 151.915 136.181 151.158Z" fill="#5D5C5C"/>
<path d="M133.223 135.298L133.352 135.408C133.496 136.252 132.89 137.641 132.544 138.392L132.468 138.274C132.797 137.298 132.998 136.303 133.223 135.298Z" fill="#6F6E6E"/>
<path d="M73.3522 152.756C73.2878 152.362 73.1346 151.567 73.3308 151.238C73.4888 152.061 74.0824 152.548 73.7396 153.221L73.3522 152.756Z" fill="#898889"/>
<path d="M101.001 163.158C101.073 163.214 101.841 164.984 101.956 165.25L101.678 165.287C101.147 164.828 100.999 163.828 101.001 163.158Z" fill="#6F6E6E"/>
<path d="M111.147 158.168C111.246 158.426 110.927 161.078 110.884 161.52C110.636 160.846 110.827 158.872 111.147 158.168Z" fill="#B7B6B6"/>
<path d="M103.935 161.402C104.232 161.74 104.361 162.971 104.207 163.415C103.751 163.06 103.758 161.925 103.935 161.402Z" fill="#6F6E6E"/>
<path d="M127.677 159.443L127.782 159.556C127.81 160.289 127.406 161.314 126.662 161.571C126.612 161.377 126.615 161.479 126.666 161.266L126.86 161.173C127.352 160.457 127.43 160.244 127.677 159.443Z" fill="#5D5C5C"/>
<path d="M126.129 160.215C126.17 160.276 126.211 160.338 126.252 160.4C126.111 161.081 125.833 161.711 125.491 162.312L125.366 162.115L126.129 160.215Z" fill="#5D5C5C"/>
<path d="M139.876 125.659C140.266 125.993 139.768 127.507 139.606 127.944L139.519 127.85C139.627 127.129 139.738 126.373 139.876 125.659Z" fill="#898889"/>
<path d="M90.7258 167.292C90.9228 167.232 90.9076 167.237 91.1058 167.209C91.412 167.396 91.4824 167.747 91.6108 168.098L91.4298 168.102C91.0226 167.796 91.0064 167.734 90.7258 167.292Z" fill="#B7B6B6"/>
<path d="M78.8168 158.536L78.9632 158.554L79.6418 160.413L79.4216 160.271C79.1224 159.731 78.9178 159.145 78.8168 158.536Z" fill="#DEDDDD"/>
<path d="M74.6996 153.977C75.083 154.248 75.1976 155.107 75.2958 155.582C74.8618 155.271 74.7914 154.492 74.6996 153.977Z" fill="#6F6E6E"/>
<path d="M73.7396 153.221C73.8304 153.524 73.989 153.876 73.9242 154.165C73.6514 153.877 73.4222 153.152 73.3522 152.756L73.7396 153.221Z" fill="#B7B6B6"/>
<path d="M144.979 109.192C145.018 108.754 145.036 108.557 145.25 108.185C145.34 108.463 145.304 108.477 145.271 108.781L145.204 109.278L144.979 109.192Z" fill="#DEDDDD"/>
<path d="M111.034 156.812L111.081 156.958C111.012 157.285 110.809 157.459 110.586 157.719C110.583 157.36 110.813 157.07 111.034 156.812Z" fill="#DEDDDD"/>
<path d="M113.915 142.267C114.444 142.169 115.263 142.037 115.3 142.808C115.2 143.009 115.087 143.182 114.935 143.347C112.608 145.873 101.478 147.012 97.8478 147.065C96.0458 147.093 94.258 146.779 92.4698 146.822L92.3314 146.826L92.295 146.717C93.3666 146.519 95.032 146.741 96.169 146.776C97.3762 146.814 98.3956 146.798 99.5998 146.703C103.444 146.401 107.45 145.657 110.952 143.98C112.234 143.366 112.13 142.907 113.915 142.267Z" fill="#060606"/>
<path d="M91.8914 141.866C91.057 141.444 88.5702 139.892 88.6276 138.877C88.8528 138.327 89.3034 138.222 89.8436 138.316C89.7024 138.669 89.6582 138.616 89.8338 139.008C90.186 139.792 91.6914 141.178 91.8914 141.866Z" fill="#999898"/>
<path d="M141.848 118.738C142.103 119.222 141.996 119.483 142.168 119.975C142.117 120.906 141.977 121.903 141.812 122.822C141.644 123.243 141.467 123.659 141.279 124.071L141.145 124.109L141.07 123.949C141.158 123.091 141.203 122.462 141.22 121.602C141.326 120.371 141.451 119.922 141.848 118.738Z" fill="#8F8E8E"/>
<path d="M82.0144 159.784C82.4266 159.852 82.4068 159.855 82.7622 160.09L82.9432 160.086C83.0168 159.512 82.575 158.664 82.8338 158.125L82.9422 158.195C83.14 159.249 83.1322 159.441 83.5322 160.455L83.0448 160.329L82.9 160.425C82.858 160.827 83.2638 161.359 83.421 161.82L83.2536 161.837C82.5842 161.087 82.3952 160.68 82.0144 159.784Z" fill="#DEDDDD"/>
<path d="M106.901 157.748C106.673 156.813 106.368 155.245 106.589 154.312L106.67 154.281C106.867 154.929 106.979 157.004 107.311 157.348C107.56 157.179 107.585 157.124 107.869 157.049C107.808 157.587 107.476 157.812 107.471 158.491L107.423 158.547C107.428 158.217 107.499 157.756 107.333 157.517C107.027 157.538 107.177 157.497 106.901 157.748Z" fill="#B7B6B6"/>
<path d="M88.2258 112.295C88.4016 112.448 88.5166 112.504 88.5988 112.702C88.57 114.294 89.2218 115.924 89.0194 118.082C88.72 116.181 88.5408 114.257 88.2258 112.295Z" fill="#434243"/>
<path d="M109.49 156.147C109.686 155.134 109.74 154.866 110.138 153.921C110.225 154.257 109.783 156.861 109.658 157.305L109.508 157.574C109.297 157.538 109.392 157.587 109.237 157.402C109.497 156.878 109.501 156.731 109.49 156.147Z" fill="#B7B6B6"/>
<path d="M108.487 157.703C108.235 156.865 107.919 155.749 108.36 154.913L108.476 154.976C108.645 155.595 108.561 156.343 108.56 156.999C108.611 157.196 108.61 157.255 108.701 157.434L108.487 157.703Z" fill="#B7B6B6"/>
<path d="M79.0505 155.958C79.4203 156.746 79.9189 158.083 80.4615 158.675C80.3373 158.885 80.3533 158.885 80.1531 159.018C79.8205 158.864 79.7421 158.508 79.5135 158.175C79.3523 157.496 79.1197 156.632 79.0505 155.958Z" fill="#6F6E6E"/>
<path d="M103.533 159.971C103.51 159.492 103.457 159.102 103.573 158.64L103.691 158.635C103.732 159.012 103.701 159.557 103.906 159.745L104.06 159.665C104.245 159.259 104.206 158.351 104.205 157.861L104.297 157.854C104.268 157.71 104.678 160.09 104.653 159.785L104.54 159.862C104.265 159.802 104.197 159.821 103.923 159.887C103.642 159.899 103.73 159.847 103.533 159.971Z" fill="#DEDDDD"/>
<path d="M141.848 118.738C142.115 118.044 142.396 117.367 142.589 116.649C142.493 117.764 142.353 118.873 142.168 119.975C141.996 119.483 142.103 119.222 141.848 118.738Z" fill="#DEDDDD"/>
<path d="M77.7649 155.666L77.4355 154.566L77.4707 154.525L77.9133 155.276L78.0275 155.265L78.1307 155.1C78.4081 155.311 78.7957 156.489 78.8491 156.847C78.1173 156.611 78.5943 156.02 78.0971 155.553C77.8583 155.552 77.9705 155.519 77.7649 155.666Z" fill="#898889"/>
<path d="M105.761 156.225C106.041 157 105.903 157.61 106.277 158.404C106.104 158.525 106.014 158.547 105.93 158.704C105.503 157.803 105.659 157.217 105.761 156.225Z" fill="#B7B6B6"/>
<path d="M88.4282 162.837C88.1762 162.553 87.8834 161.926 87.6968 161.566C88.176 161.82 89.153 162.996 89.2334 163.574C88.959 163.282 88.7724 163.048 88.4282 162.837Z" fill="#DEDDDD"/>
<path d="M76.3512 153.037C76.4974 152.53 76.4076 152.217 76.594 151.685C76.708 152.002 76.7062 153.08 76.6672 153.439C76.4226 153.247 76.508 153.329 76.3512 153.037Z" fill="#B7B6B6"/>
<path d="M76.3646 127.43C76.364 128.015 76.4046 128.644 76.2528 129.198L76.2228 129.221C76.0904 128.698 76.1148 128.237 76.1382 127.7L76.3646 127.43Z" fill="#898889"/>
<path d="M137.803 128.785C137.991 128.298 138.045 128.108 138.344 127.67L138.415 127.643C138.416 128.011 138.019 128.66 137.912 129.166L137.838 129.156L137.803 128.785Z" fill="#DEDDDD"/>
<path d="M84.1098 160.656C83.7296 160.021 84.2382 160.39 83.8488 159.979C84.164 160.161 84.326 160.429 84.5256 160.733L84.7786 160.844L84.642 160.871C84.4762 160.89 84.293 160.75 84.1098 160.656Z" fill="#DEDDDD"/>
<path d="M76.1382 127.7C76.1484 127.101 76.181 126.582 76.2254 125.983C76.2804 126.332 76.2578 126.455 76.4292 126.745L76.3646 127.43L76.1382 127.7Z" fill="#242324"/>
<path d="M97.159 165.032C97.0568 164.688 96.9078 164.19 97.0728 163.866C97.3004 164.081 97.3272 164.683 97.2888 164.988L97.159 165.032Z" fill="#DEDDDD"/>
<path d="M92.2754 164.873C91.8976 164.38 91.8176 164.209 91.5568 163.669C91.9222 164.051 92.0982 164.293 92.4034 164.712L92.2754 164.873Z" fill="#DEDDDD"/>
<path d="M77.8066 145.077C78.8412 145.486 79.7666 146.187 80.7664 146.529C81.2204 146.685 82.3146 146.797 82.906 146.916C82.6946 147.077 82.3442 147.205 82.087 147.316C81.6958 147.402 81.2736 147.485 80.879 147.547C79.8832 147.7 77.255 146.648 77.1808 145.534C77.32 145.26 77.5212 145.212 77.8066 145.077Z" fill="#060606"/>
<path d="M75.8383 131.807C76.0831 131.991 76.5429 132.545 76.8517 132.818C77.6245 133.501 78.3929 134.08 79.1999 134.729C80.0653 135.388 80.9337 136.4 81.8921 136.908C82.3943 137.174 83.2687 137.284 83.8765 137.563C80.7613 137.727 77.1203 134.494 75.8383 131.807Z" fill="#131313"/>
<path d="M92.4842 132.83C92.8606 132.894 92.851 132.913 93.143 133.136C93.1978 133.303 93.2622 133.36 93.1684 133.468C92.6422 134.072 90.4722 134.284 89.63 134.495L89.5262 134.522C89.2404 134.649 89.2018 134.664 88.8978 134.734L88.8348 134.644C89.6018 133.781 91.3364 133.064 92.4842 132.83Z" fill="#060606"/>
<path d="M83.1707 126.007C84.0983 125.947 86.3441 125.923 86.6491 126.984C86.3721 127.302 85.5849 127.188 85.0935 127.184C83.5529 127.171 81.9721 127.37 80.4563 127.636C79.7877 127.753 79.5579 128.027 78.8145 128.115C79.4713 127.51 81.8407 127.234 82.7363 127.135C83.2891 127.033 83.7713 126.978 84.3295 126.947C84.9205 126.915 85.7687 127.039 86.3067 126.904C86.1847 126.69 86.0021 126.638 85.7355 126.534C83.5499 125.689 81.1151 126.593 79.1077 127.437C80.2095 126.563 81.8013 126.169 83.1707 126.007Z" fill="#434243"/>
<path d="M149.326 108.733C149.247 105.303 149.284 101.02 150.301 97.7226C151.089 95.162 154.395 92.595 157.089 92.5704C158.239 92.5576 159.344 93.0204 160.142 93.8496C162.517 96.3614 163.506 103.425 163.275 106.788C163.066 109.828 161.905 114.099 160.039 116.53C158.351 118.73 157.52 119.322 156.946 122.237C155.959 127.248 153.219 131.779 148.308 126.763C147.575 126.024 147.454 124.522 147.664 123.554C147.895 123.26 147.661 123.231 148.065 122.825C148.172 122.546 148.248 121.989 148.303 121.675C147.968 120.977 148.799 118.034 148.637 116.553L148.708 115.731C148.772 115.467 148.799 115.158 148.831 114.886C149.135 113.436 149.712 110.053 149.326 108.733Z" fill="#FFF9F2"/>
<path d="M148.303 121.675C148.893 120.618 149.739 119.425 150.979 119.062C153.04 118.445 155.221 119.889 155.685 121.92C156.205 124.202 154.477 126.688 152.192 127.077C149.342 127.564 147.951 125.385 148.065 122.825C148.172 122.546 148.248 121.989 148.303 121.675Z" fill="#131313"/>
<path d="M149.328 121.071C150.369 119.838 150.527 119.314 152.164 119.683C153.115 119.847 153.376 119.805 154.031 120.481L154.151 120.604C154.175 120.629 154.199 120.654 154.223 120.68C155.202 121.644 155.303 122.777 154.975 124.051L154.787 124.399C154.644 124.73 154.461 125.209 154.16 125.425C153.683 125.877 153.285 126.184 152.66 126.415C151.976 126.649 151.381 126.554 150.705 126.435L150.169 126.113C148.56 124.916 148.472 123.987 148.754 122.138L148.882 121.869C149.01 121.538 149.061 121.298 149.328 121.071Z" fill="#434243"/>
<path d="M149.328 121.071C150.369 119.838 150.527 119.314 152.164 119.683L152.305 119.867C152.08 120.14 149.753 121.056 149.328 121.071Z" fill="#6F6E6E"/>
<path d="M151.064 122.089C151.239 121.955 153.978 120.727 154.223 120.68C154.181 120.815 154.151 120.841 154.076 120.966C153.262 121.378 151.964 122.035 151.064 122.089Z" fill="#898889"/>
<path d="M148.882 121.869C149.671 121.588 150.514 121.276 151.345 121.165C151.051 121.39 149.426 122.024 148.979 122.186L148.754 122.138L148.882 121.869Z" fill="#6F6E6E"/>
<path d="M150.169 126.113C150.724 126.066 151.276 125.796 151.805 125.583C151.462 125.892 151.117 126.254 150.705 126.435L150.169 126.113Z" fill="#DEDDDD"/>
<path d="M152.66 126.415C152.923 125.987 153.65 125.456 154.16 125.425C153.683 125.877 153.285 126.184 152.66 126.415Z" fill="#DEDDDD"/>
<path d="M153.431 124.934C153.621 124.794 153.813 124.658 154.006 124.523C154.343 124.294 154.655 123.989 154.975 124.051L154.787 124.399L153.431 124.934Z" fill="#DEDDDD"/>
<path d="M152.979 123.814L153.089 123.888C152.458 124.433 151.511 124.806 150.735 125.151L150.705 125.154L150.661 125.097C151.142 124.686 152.364 124.125 152.979 123.814Z" fill="#898889"/>
<path d="M150.362 122.945L150.449 123.083C150.053 123.512 149.417 123.613 148.854 123.754L148.732 123.691C148.904 123.52 149.821 123.227 150.238 123.011L150.362 122.945Z" fill="#6F6E6E"/>
<path d="M150.176 124.392L150.392 124.446C150.201 124.75 149.873 124.967 149.583 125.206C149.408 125.196 149.492 125.225 149.339 125.103C149.497 124.809 149.889 124.591 150.176 124.392Z" fill="#DEDDDD"/>
<path d="M154.441 123.828L154.525 123.885C154.336 124.137 153.682 124.451 153.373 124.622L153.29 124.471C153.651 124.163 154.011 124.029 154.441 123.828Z" fill="#898889"/>
<path d="M157.636 104.183C157.81 103.986 157.91 103.985 158.164 103.902C159.69 107.386 160.989 109.973 156.931 112.493L156.628 112.301C157.065 111.995 157.651 111.369 158.025 110.971C160.014 108.854 158.493 106.447 157.636 104.183Z" fill="#060606"/>
<path d="M154.353 96.2624C154.429 96.825 152.141 104.716 151.748 105.532C151.436 104.152 153.416 97.2548 154.353 96.2624Z" fill="#060606"/>
<path d="M161.342 107.392C162.303 110.04 160.436 113.405 158.741 115.289C158.104 115.998 157.642 116.792 156.911 117.448C156.813 117.439 156.868 117.457 156.77 117.35C157.482 116.551 158.157 115.536 158.813 114.752C160.955 112.188 161.414 110.767 161.342 107.392Z" fill="#242324"/>
<path d="M156.376 100.361C157.276 101.576 157.578 102.507 158.164 103.902C157.91 103.985 157.81 103.986 157.636 104.183C157.127 102.94 156.706 101.663 156.376 100.361Z" fill="#232020"/>
<path d="M156.628 112.301L156.931 112.493L156.825 112.63C156.753 112.622 156.68 112.613 156.607 112.604C155.524 113.216 154.62 113.772 153.574 114.446C152.197 114.473 152.027 114.39 150.778 114.855L150.715 114.807C151.537 113.873 152.782 114.489 153.647 114.089C154.571 113.661 155.745 112.861 156.628 112.301Z" fill="#242324"/>
<path d="M157.614 94.0634C158.255 94.024 159.161 94.0104 159.585 94.588C159.3 94.627 159.185 94.5392 158.919 94.4172L158.815 94.3688C157.99 94.2464 157.537 94.3168 156.726 94.3476C156.973 94.1938 157.322 94.1352 157.614 94.0634Z" fill="#131313"/>
<path d="M147.664 123.554C147.574 123.517 147.63 123.547 147.526 123.423C147.667 121.714 148.191 118.15 148.637 116.553C148.799 118.034 147.968 120.977 148.303 121.675C148.248 121.989 148.172 122.546 148.065 122.825C147.661 123.231 147.895 123.26 147.664 123.554Z" fill="#DEDDDD"/>
<path d="M95.3396 97.3894C97.2322 96.9926 100.045 94.8256 101.887 94.1122C102.851 93.8896 103.98 93.761 104.975 93.6878C110.76 93.2624 116.642 92.7102 122.433 93.2618C123.238 93.3386 123.719 92.7768 124.543 93.2132C124.88 93.7128 124.608 94.2038 124.498 94.8654C124.437 94.9148 124.375 94.9652 124.314 95.0162C122.26 96.764 122.521 99.293 122.343 101.732C122.257 102.082 122.114 102.946 122.249 103.275C122.322 105.006 122.132 106.833 121.875 108.544C121.628 110.187 120.069 116.96 119.101 117.965C118.698 118.383 118.147 118.745 117.601 118.938C114.13 120.164 109.56 120.43 105.894 120.877C103.264 121.197 100.546 121.705 97.8936 121.682C96.7196 121.672 95.8034 121.552 94.948 120.677C92.2214 117.888 90.4216 114.174 88.241 110.96C87.569 109.969 86.9098 108.874 85.9954 108.085C85.2616 107.452 84.348 107.045 83.3702 107.03C82.6846 107.021 81.9558 107.514 81.508 107.999C80.6316 108.95 80.1572 110.713 79.674 111.905C78.886 113.871 78.2026 115.877 77.6268 117.914C76.4932 121.891 76.791 123.056 72.2898 124.275C69.279 125.092 67.0788 125.442 63.9372 125.645C63.2012 125.69 62.4638 125.705 61.7266 125.689C61.6882 125.28 61.632 124.808 61.6172 124.401C62.0744 124.496 62.8852 124.672 63.3726 124.667C66.4122 124.634 69.872 124.116 72.7916 123.291C73.322 123.141 74.2674 122.546 74.6864 122.266C75.8574 121.48 76.525 120.949 76.7846 119.499C77.1644 117.378 77.4546 115.271 77.7544 113.14C77.9242 111.934 78.3886 110.729 78.3284 109.459C78.2916 108.686 77.919 107.499 77.545 106.839C77.391 106.485 76.6072 105.315 76.3158 104.783C75.646 103.925 74.391 103.038 73.4764 102.423C71.8308 101.316 69.3106 101.722 67.4314 101.85C63.8824 102.09 60.1246 102.385 56.6642 103.253C56.5638 102.841 56.4752 102.387 56.3848 101.969C60.6958 101.328 64.9708 100.425 69.3328 100.085C69.8942 100.041 70.6618 100.852 71.2722 100.846C71.5128 100.598 71.6308 100.089 71.7442 99.7402C71.8628 99.7314 71.9816 99.7236 72.1002 99.7168C75.0368 99.541 75.2832 100.359 77.1366 102.406C77.7432 103.077 78.6776 103.875 79.3708 104.489C80.5082 102.299 82.055 101.627 84.1332 103.252C84.5944 101.643 85.4066 100.083 85.827 98.4444C85.9304 98.041 86.1612 97.4542 86.542 97.2596C88.7378 96.1372 91.7364 95.6272 94.1474 95.2426C94.4922 96.0058 94.9108 96.6738 95.3396 97.3894Z" fill="#060606"/>
<path d="M95.3396 97.3894C97.2322 96.9926 100.045 94.8256 101.887 94.1122C102.851 93.8896 103.98 93.761 104.975 93.6878C110.76 93.2624 116.642 92.7102 122.433 93.2618C123.238 93.3386 123.719 92.7768 124.543 93.2132C124.88 93.7128 124.608 94.2038 124.498 94.8654C124.437 94.9148 124.375 94.9652 124.314 95.0162C122.26 96.764 122.521 99.293 122.343 101.732C121.886 101.663 121.291 101.17 121.026 100.795C121.409 99.1054 120.89 96.1928 119.256 95.2542C119.125 95.1788 118.976 95.065 118.848 94.9784C114.476 95.13 109.81 95.8296 105.473 96.3788C100.499 97.0086 95.2814 97.794 90.5066 99.295C89.0468 99.753 87.4404 101.699 87.6362 103.284C87.8364 104.903 88.1358 106.59 88.7698 108.137C90.141 110.991 92.284 115.543 94.329 117.817C96.1352 119.109 101.429 119.258 103.516 119.111C107.997 118.797 114.58 118.238 118.223 115.739C119.716 114.716 120.478 104.711 120.831 104.277C121.393 103.821 121.626 103.641 122.249 103.275C122.322 105.006 122.132 106.833 121.875 108.544C121.628 110.187 120.069 116.96 119.101 117.965C118.698 118.383 118.147 118.745 117.601 118.938C114.13 120.164 109.56 120.43 105.894 120.877C103.264 121.197 100.546 121.705 97.8936 121.682C96.7196 121.672 95.8034 121.552 94.948 120.677C92.2214 117.888 90.4216 114.174 88.241 110.96C87.569 109.969 86.9098 108.874 85.9954 108.085C85.2616 107.452 84.348 107.045 83.3702 107.03C82.6846 107.021 81.9558 107.514 81.508 107.999C80.6316 108.95 80.1572 110.713 79.674 111.905C78.886 113.871 78.2026 115.877 77.6268 117.914C76.4932 121.891 76.791 123.056 72.2898 124.275C69.279 125.092 67.0788 125.442 63.9372 125.645C63.2012 125.69 62.4638 125.705 61.7266 125.689C61.6882 125.28 61.632 124.808 61.6172 124.401C62.0744 124.496 62.8852 124.672 63.3726 124.667C66.4122 124.634 69.872 124.116 72.7916 123.291C73.322 123.141 74.2674 122.546 74.6864 122.266C75.8574 121.48 76.525 120.949 76.7846 119.499C77.1644 117.378 77.4546 115.271 77.7544 113.14C77.9242 111.934 78.3886 110.729 78.3284 109.459C78.2916 108.686 77.919 107.499 77.545 106.839C77.391 106.485 76.6072 105.315 76.3158 104.783C75.646 103.925 74.391 103.038 73.4764 102.423C71.8308 101.316 69.3106 101.722 67.4314 101.85C63.8824 102.09 60.1246 102.385 56.6642 103.253C56.5638 102.841 56.4752 102.387 56.3848 101.969C60.6958 101.328 64.9708 100.425 69.3328 100.085C69.8942 100.041 70.6618 100.852 71.2722 100.846C71.5128 100.598 71.6308 100.089 71.7442 99.7402C71.8628 99.7314 71.9816 99.7236 72.1002 99.7168C75.0368 99.541 75.2832 100.359 77.1366 102.406C77.7432 103.077 78.6776 103.875 79.3708 104.489C80.5082 102.299 82.055 101.627 84.1332 103.252C84.5944 101.643 85.4066 100.083 85.827 98.4444C85.9304 98.041 86.1612 97.4542 86.542 97.2596C88.7378 96.1372 91.7364 95.6272 94.1474 95.2426C94.4922 96.0058 94.9108 96.6738 95.3396 97.3894Z" fill="#DEDDDD"/>
<path d="M120.831 104.277C120.937 103.191 120.922 101.972 121.026 100.795C121.291 101.17 121.886 101.663 122.343 101.732C122.257 102.082 122.114 102.946 122.249 103.275C121.626 103.641 121.393 103.821 120.831 104.277Z" fill="#B7B6B6"/>
<path d="M95.252 117.906C94.6984 117.198 94.1528 116.483 93.6152 115.763C92.2848 113.956 90.3088 110.779 89.6754 108.642C89.3252 107.68 89.2914 106.359 89.0304 105.416C88.3472 102.946 88.1312 101.578 90.4876 99.9726C91.1126 99.5664 91.9982 99.1494 92.729 98.998C100.008 97.494 107.481 96.5438 114.883 95.9116C116.155 95.803 117.856 95.8728 119.102 96.1202C120.322 97.072 120.32 98.292 120.375 99.7158C119.36 98.7618 118.311 98.1738 117.069 97.5536C117.907 98.7138 119.284 99.2716 120.51 100.581C119.299 99.9122 118.982 99.7628 117.603 99.4288C116.029 98.7754 113.48 98.5986 111.782 98.5058C107.408 97.637 101.948 99.8584 98.6524 102.658C98.4892 102.832 98.4404 102.895 98.248 103.033C97.3782 104.461 96.605 106.412 96.2006 108.04L97.621 106.155C98.8974 104.224 100.578 103.815 102.702 103.145C103.005 103.084 103.139 103.052 103.455 103.043L103.522 103.119C103.296 103.603 102.843 104.496 102.728 104.972L102.595 105.005C102.438 104.863 102.468 104.832 102.332 104.831C102.368 105.126 102.385 105.342 102.471 105.63C102.938 107.293 103.451 109.291 105.302 109.921L106.066 109.978C106.016 108.924 103.704 109.4 103.669 105.424C103.687 105.308 103.706 105.192 103.725 105.077C103.767 104.822 103.8 104.556 103.899 104.316C104.262 103.453 105.146 102.804 105.993 102.476C106.933 102.111 112.619 101.553 113.254 101.951C113.652 102.201 113.853 103.035 114.006 103.458C113.94 103.794 113.88 104.13 113.825 104.467C113.714 105.242 113.069 106.794 113.135 107.337C113.786 107.099 114.436 105.026 114.801 104.302C114.716 103.508 114.365 102.566 114.515 102.041C114.846 101.84 114.917 101.925 115.389 101.941C116.95 102.028 117.548 102.463 118.936 103.205C118.483 104.365 118.438 104.581 117.657 105.533L116.709 106.818C118.408 105.855 118.213 106.487 120.217 104.79C119.93 106.92 119.805 108.941 119.216 111.063C118.787 112.61 118.419 115.085 116.935 115.92C115.987 116.462 114.847 116.614 113.803 116.89C108.431 118.305 100.74 119.274 95.252 117.906Z" fill="#FFF9F2"/>
<path d="M103.669 105.424C103.687 105.308 103.706 105.192 103.725 105.077C103.767 104.822 103.8 104.556 103.899 104.316C104.262 103.453 105.146 102.804 105.993 102.476C106.933 102.111 112.619 101.553 113.254 101.951C113.652 102.201 113.853 103.035 114.006 103.458C113.94 103.794 113.88 104.13 113.825 104.467C113.423 104.096 110.266 104.736 109.412 104.649L108.946 104.698C108.868 104.954 108.887 104.823 108.944 105.1C108.946 105.435 108.977 105.477 108.802 105.766C108.163 105.956 108.122 105.458 107.709 105.357L107.583 104.986C106.271 105.08 104.952 105.334 103.669 105.424Z" fill="#B7B6B6"/>
<path d="M107.583 104.986C107.451 102.984 109.735 102.867 109.908 104.049C109.774 104.389 109.692 104.423 109.412 104.649L108.946 104.698C108.868 104.954 108.887 104.823 108.944 105.1C108.946 105.435 108.977 105.478 108.802 105.766C108.163 105.956 108.122 105.458 107.709 105.357L107.583 104.986Z" fill="#060606"/>
<path d="M113.197 108.651C114.103 108.221 114.577 107.953 115.559 107.707L111.276 111.435C109.997 111.443 108.937 111.307 107.666 111.201C106.564 111.11 105.568 111.167 104.464 110.961C104.748 110.829 104.661 110.937 104.773 110.672L104.735 110.564L104.837 110.402C105.085 110.371 105.309 110.344 105.56 110.332L105.734 110.325L105.293 110.006L105.302 109.921L106.066 109.978C106.67 110.044 107.464 109.979 108.05 110.001C110.573 110.089 111.109 109.771 113.197 108.651Z" fill="#060606"/>
<path d="M106.066 109.978C106.67 110.044 107.464 109.979 108.05 110.001C110.573 110.089 111.109 109.771 113.197 108.651L113.564 108.768C113.535 109.021 113.561 108.9 113.345 109.144C112.914 109.328 111.022 110.215 110.727 110.286C109.152 110.664 106.468 110.488 104.837 110.402C105.085 110.371 105.309 110.344 105.56 110.332L105.734 110.325L105.293 110.006L105.302 109.921L106.066 109.978Z" fill="#1B191B"/>
<path d="M104.837 110.402C106.468 110.488 109.152 110.664 110.727 110.286C111.022 110.215 112.914 109.328 113.345 109.144C112.807 109.713 111.646 110.7 110.898 110.789C108.919 111.025 106.761 110.491 104.773 110.672L104.735 110.564L104.837 110.402Z" fill="#6F6E6E"/>
<path d="M102.702 103.145C103.005 103.084 103.139 103.052 103.455 103.043L103.523 103.119C103.296 103.603 102.843 104.496 102.728 104.972L102.595 105.005C102.438 104.863 102.468 104.832 102.332 104.831C102.368 105.126 102.385 105.342 102.471 105.63C100.879 105.871 99.2276 106.177 97.621 106.155C98.8976 104.224 100.578 103.815 102.702 103.145Z" fill="#B7B6B6"/>
<path d="M102.702 103.145C103.005 103.084 103.139 103.052 103.455 103.043L103.522 103.119C103.296 103.603 102.843 104.496 102.728 104.972L102.595 105.005C102.437 104.863 102.468 104.832 102.332 104.831C102.447 104.268 102.57 103.705 102.702 103.145Z" fill="#131313"/>
<path d="M114.801 104.302C114.716 103.508 114.365 102.566 114.515 102.041C114.846 101.84 114.917 101.925 115.389 101.941C116.95 102.028 117.548 102.463 118.936 103.205C118.483 104.365 118.438 104.581 117.657 105.533C117.379 104.728 117.129 104.137 116.061 104.108C115.728 104.1 115.072 104.136 114.801 104.302Z" fill="#B7B6B6"/>
<path d="M101.958 110.565C103.092 110.274 104.14 110.143 105.293 110.006L105.734 110.325L105.56 110.332C105.309 110.344 105.085 110.371 104.837 110.402L104.735 110.564L104.773 110.672C104.661 110.937 104.748 110.829 104.464 110.961C103.711 110.746 102.75 110.661 101.958 110.565Z" fill="#242324"/>
<path d="M108.944 105.1C109.36 105.318 109.361 105.231 109.523 105.569C109.462 105.913 109.129 106.195 108.878 106.465C108.355 106.229 107.686 106.037 107.709 105.357C108.122 105.458 108.163 105.956 108.802 105.766C108.977 105.478 108.946 105.435 108.944 105.1Z" fill="#242324"/>
<path d="M98.248 103.033C98.3984 101.854 98.6055 101.419 99.2315 100.446C98.9913 101.113 98.67 101.955 98.6524 102.658C98.4892 102.832 98.4404 102.895 98.248 103.033Z" fill="#434243"/>
<path d="M96.1564 102.523L96.2294 102.605C96.1578 102.951 94.9752 104.491 94.7114 104.813C94.671 104.789 94.699 104.813 94.6244 104.693C95.1134 103.955 95.5882 103.201 96.1564 102.523Z" fill="#999898"/>
<path d="M111.782 98.5058C113.479 98.5986 116.029 98.7754 117.603 99.4288C116.88 99.3526 116.109 98.9932 115.529 99.2666L116.349 99.5616C115.998 99.7314 115.332 99.9824 115.195 100.317C115.002 100.396 114.864 100.41 114.657 100.432L114.632 100.537L114.949 100.696L114.964 100.83C114.709 101.094 114.342 101.355 113.983 101.433C113.678 101.517 113.648 101.541 113.325 101.529C113.136 101.358 113.184 101.368 112.964 101.269C112.498 101.469 112.476 101.488 111.981 101.49C110.802 101.571 108.817 101.384 107.657 101.652C106.919 101.823 106.511 102.019 105.661 101.933C104.948 101.405 105.09 101.741 104.243 102.042L104.146 101.968C104.633 101.077 107.067 100.354 107.473 99.1778C107.528 99.0156 107.85 98.9736 108.017 98.957L108.211 99.125C108.674 99.1924 109.103 98.7304 109.767 98.8184C110.472 98.9112 111.457 98.879 112.165 98.7626L112.183 98.6856L111.782 98.5058Z" fill="#434243"/>
<path d="M114.258 99.0624C114.826 99.2744 115.055 99.1006 115.529 99.2666L116.349 99.5616C115.998 99.7314 115.332 99.9824 115.195 100.317C115.002 100.396 114.864 100.41 114.657 100.432L114.632 100.537L114.949 100.696L114.964 100.83C114.709 101.094 114.342 101.355 113.983 101.433C113.678 101.517 113.648 101.541 113.325 101.529C113.136 101.358 113.184 101.368 112.964 101.269C112.498 101.469 112.476 101.488 111.981 101.49L111.947 101.336C112.261 101.207 112.27 101.185 112.525 100.982C112.245 100.863 112.241 100.902 111.919 100.92C112.045 100.476 112.183 100.525 112.585 100.38C112.842 99.8848 113.267 99.9238 113.77 99.8096L113.752 99.579C113.932 99.4102 114.043 99.3662 114.27 99.2666L114.258 99.0624Z" fill="#6F6E6E"/>
<path d="M113.77 99.8096C113.772 100.134 113.809 99.9844 113.653 100.273C113.313 100.48 113.251 100.463 112.839 100.5L112.585 100.38C112.842 99.8848 113.267 99.9238 113.77 99.8096Z" fill="#242324"/>
<path d="M111.919 100.92C111.686 100.715 111.735 100.783 111.331 100.775C111.068 100.045 112.81 99.1152 113.38 98.8984C113.514 99.0664 113.501 99.0576 113.695 99.1494C113.974 99.0136 113.951 99.0176 114.258 99.0626L114.27 99.2666C114.043 99.3662 113.932 99.4102 113.752 99.5792L113.77 99.8096C113.267 99.9238 112.842 99.8848 112.585 100.38C112.183 100.525 112.045 100.476 111.919 100.92Z" fill="#595759"/>
<path d="M107.138 100.278C107.341 100.443 107.489 100.444 107.75 100.497L107.858 100.519C107.879 101.386 107.025 101.636 106.324 101.657L105.988 101.603C106.011 101.326 106.028 101.05 106.041 100.772C106.41 100.634 106.043 100.875 106.534 100.936C106.838 100.689 106.919 100.603 107.138 100.278Z" fill="#242324"/>
<path d="M109.916 100.267C110.049 100.262 109.982 100.244 110.107 100.342C109.836 100.759 108.633 101.182 108.135 101.393C108.04 101.429 108.096 101.424 107.97 101.368C108.264 100.985 109.436 100.492 109.916 100.267Z" fill="#DEDDDD"/>
<path d="M116.718 99.628C117.788 99.8536 119.484 100.299 120.204 101.169C120.49 101.515 120.503 103.103 120.301 103.403C120.021 103.589 119.563 103.932 119.259 103.999C119.19 103.621 119.396 103.511 119.675 103.278C119.258 102.862 118.891 102.778 118.51 102.463C117.819 101.892 117.328 101.412 116.354 101.44C115.596 101.462 115.297 101.578 114.579 101.336C114.449 101.565 114.458 101.452 114.476 101.676C114.298 101.561 114.175 101.518 113.983 101.433C114.342 101.355 114.709 101.094 114.964 100.83L114.949 100.696L114.632 100.537L114.657 100.432C114.864 100.41 115.002 100.396 115.195 100.317C115.332 99.9824 115.998 99.7314 116.349 99.5616L116.718 99.628Z" fill="#242324"/>
<path d="M116.349 99.5616L116.718 99.628C116.453 99.9864 115.66 100.164 115.195 100.317C115.332 99.9824 115.998 99.7314 116.349 99.5616Z" fill="#B7B6B6"/>
<path d="M100.809 101.44C100.91 101.516 100.874 101.465 100.909 101.599C100.295 102.221 99.712 102.908 99.1358 103.567L99.0898 103.537L99.1152 103.32C99.4726 102.773 100.289 101.815 100.809 101.44Z" fill="#434243"/>
<path d="M106.658 99.3232L106.73 99.3428L106.721 99.459C106.327 99.7432 105.945 99.956 105.528 100.199L105.357 100.147C105.577 99.748 106.251 99.4844 106.658 99.3232Z" fill="#242324"/>
<path d="M103.443 104.754C103.536 105.046 103.393 105.667 103.34 106.002C103.111 105.523 103.223 105.199 103.443 104.754Z" fill="#434243"/>
<path d="M82.474 37.3444C85.2218 37.0458 89.872 39.2682 91.9154 41.148C95.15 43.9648 96.8972 49.2318 97.1204 53.426C97.6126 62.681 87.344 70.009 78.8494 70.2022C75.2772 69.96 72.3994 69.2746 69.7954 66.8178C60.002 57.5772 63.4168 44.7192 75.3706 39.5654C78.3016 38.3016 79.2062 37.6474 82.474 37.3444Z" fill="#5D5C5C"/>
<path d="M22.1848 98.1074C22.9572 96.2888 26.1636 95.2352 27.9326 94.5934C30.008 93.8982 32.3878 92.8068 34.5188 92.31C43.4264 90.2322 52.7934 88.4862 61.9144 87.8006C67.715 87.3646 73.8986 87.3644 79.6988 87.3768L99.0088 87.4814C108.382 87.5478 117.753 87.7504 127.12 88.0896C130.054 88.2074 133.406 88.166 136.299 88.4236C136.934 88.1208 140.301 88.2256 140.729 88.484C140.618 88.6402 140.491 88.6102 140.235 88.6614L140.46 88.715C140.105 88.7708 139.972 88.7866 139.614 88.7982C142.007 88.9236 144.492 89.0078 146.858 89.3736C147.657 89.3524 148.037 89.3422 148.82 89.4482L148.856 89.5114C148.48 89.5634 148.194 89.5858 147.814 89.6092C143.449 90.4192 138.436 89.9462 133.963 89.9526C130.279 89.9578 126.618 89.9816 122.934 90.0384C114.208 90.2374 105.486 90.5456 96.7692 90.9628C93.667 91.0806 90.539 91.0358 87.3808 91.1636C81.3598 91.3984 75.3492 91.8514 69.361 92.5214C67.5044 92.7138 65.5404 93.0258 63.658 93.3638C60.2592 93.974 55.1778 93.5666 52.8676 96.5356C52.4428 97.0816 52.202 97.7284 52.2958 98.4082C52.3876 99.0742 52.7444 99.6758 53.2854 100.076C53.5176 100.245 53.786 100.394 54.0758 100.342C54.2082 99.9072 53.3804 99.252 53.174 98.8242C53.0292 98.5234 52.9492 98.2108 52.86 97.8936C53.1822 96.6004 53.4212 96.3658 54.474 95.6222C54.6714 98.1494 54.8768 99.1074 55.6614 101.576C54.4652 101.641 51.3736 102.276 50.1804 102.698C47.1516 103.77 45.0084 103.285 41.8732 103.138C38.712 102.988 35.3822 102.821 32.215 102.478C29.4696 102.181 26.4836 101.879 23.9626 100.672C22.7864 100.109 22.5386 99.2314 22.1848 98.1074Z" fill="#5D5C5C"/>
<path d="M136.299 88.4236C136.934 88.1208 140.301 88.2256 140.729 88.484C140.618 88.6402 140.491 88.6102 140.235 88.6614L140.46 88.715C140.105 88.7708 139.972 88.7866 139.614 88.7984C138.282 88.7898 137.611 88.6566 136.299 88.4236Z" fill="#242324"/>
<path d="M146.858 89.3738C147.657 89.3524 148.037 89.3424 148.82 89.4482L148.856 89.5116C148.48 89.5634 148.194 89.5858 147.814 89.6094L147.782 89.4968C147.442 89.4306 147.204 89.4066 146.858 89.3738Z" fill="#434243"/>
<path d="M73.0716 107.629L73.1668 107.592C73.9874 107.766 74.1986 107.878 74.7962 108.458C75.6392 109.575 75.3982 110.05 75.6496 111.169L75.8856 111.264C76.646 110.812 75.7586 108.725 75.4242 108.148C76.1076 108.275 76.6056 108.788 77.2084 108.958C78.0818 110.652 76.6992 117.731 76.158 119.715C75.0478 123.785 64.6122 124.261 61.5274 123.651C61.2846 121.02 61.4078 117.457 61.309 114.633L61.301 114.504L61.7126 114.421L61.5432 114.228C61.9362 114.056 62.6658 114.18 62.9754 114.489L62.9866 114.632L62.6884 114.808L64.5398 114.862C64.064 114.376 63.472 114.007 62.9136 113.602C62.5284 113.428 62.25 113.236 61.8962 113.01C61.6356 112.757 61.448 112.488 61.23 112.199C62.0706 110.84 64.2916 109.761 65.7174 109.055C65.4934 109.925 65.6066 110.532 65.7164 111.408C66.1592 112.47 66.984 113.951 68.028 114.513C68.5664 114.603 68.6468 114.58 69.055 114.305C68.9494 114.182 68.8884 114.123 68.7428 114.044C67.4862 113.354 66.8668 112.442 66.8118 111.005C67.2544 109.172 67.8206 108.172 69.8324 107.85C70.8908 107.68 72.0036 107.63 73.0716 107.629Z" fill="#FFF9F2"/>
<path d="M73.0716 107.629L73.1668 107.592C73.9872 107.766 74.1984 107.878 74.796 108.458C73.9064 108.967 72.989 108.668 72.6896 109.197C71.7732 108.623 71.4874 109.1 70.7188 109.651C69.8222 109.854 67.777 110.654 66.8118 111.005C67.2544 109.172 67.8204 108.172 69.8322 107.85C70.8906 107.68 72.0034 107.63 73.0716 107.629Z" fill="#B7B6B6"/>
<path d="M65.7174 109.055C65.4934 109.925 65.6066 110.532 65.7164 111.408C64.336 111.873 62.7874 111.92 62.9136 113.602C62.5284 113.428 62.25 113.236 61.8962 113.01C61.6356 112.757 61.448 112.488 61.23 112.199C62.0706 110.84 64.2916 109.761 65.7174 109.055Z" fill="#B7B6B6"/>
<path d="M74.5659 113.729C72.8343 114.727 71.0403 115.611 69.1949 116.377C68.2787 115.969 65.6549 115.54 65.2209 114.948C65.6523 114.658 67.2819 114.739 67.8895 114.747L68.0279 114.513C68.5663 114.603 68.6467 114.58 69.0549 114.305L69.0291 114.545C69.2639 114.672 69.3065 114.662 69.5735 114.714C71.2295 114.598 72.9489 114.133 74.5659 113.729Z" fill="#434243"/>
<path d="M69.055 114.305L69.029 114.545C69.264 114.672 69.3064 114.662 69.5736 114.714C69.0116 114.752 68.4528 114.745 67.8894 114.747L68.0278 114.513C68.5664 114.603 68.6466 114.58 69.055 114.305Z" fill="#DEDDDD"/>
<path d="M65.7296 115.061C67.3958 114.91 67.4216 115.592 68.35 115.589C67.7466 115.854 66.3958 115.309 65.7296 115.061Z" fill="#999898"/>
<path d="M70.7188 109.651C71.4874 109.1 71.7732 108.623 72.6896 109.197C72.9874 109.553 72.997 109.458 73.063 109.851C72.9238 110.15 72.945 110.14 72.6698 110.317C72.2684 110.373 72.1992 110.368 71.7908 110.337C71.6982 110.958 72.6116 111.278 72.8654 111.89C72.5562 112.686 71.408 112.138 70.9206 111.876C70.7424 111.053 70.6024 110.505 70.7188 109.651Z" fill="#060606"/>
<path d="M61.3088 114.633L61.301 114.504L61.7124 114.421L61.543 114.228C61.9362 114.056 62.6658 114.18 62.9754 114.489L62.9864 114.632L62.6882 114.808C62.3164 114.73 61.638 114.538 61.3088 114.633Z" fill="#434243"/>
<path d="M94.598 91.5642L94.732 91.6116C94.4934 92.202 94.449 92.435 94.3196 93.0534L94.1344 93.0374C93.4778 94.9588 94.5026 94.2766 92.1272 94.875C89.6122 95.5086 85.5766 95.6986 84.7862 98.6934C84.522 99.6934 84.3108 100.981 83.6944 101.693C83.2796 101.734 82.7892 101.565 82.3648 101.517C81.0418 101.365 79.9042 102.047 79.1428 103.088C78.0104 101.593 76.2182 99.0996 74.3348 98.913C73.5014 98.831 72.2992 99.0878 71.95 98.9854L71.8292 98.835L71.4968 99.1846L71.3192 99.1504C71.1054 98.3106 70.8984 97.4624 70.6508 96.6316L70.5626 96.5732L70.4436 96.4174C70.2584 96.6172 70.3112 96.5818 70.2026 96.8572C70.1956 97.0214 70.175 97.2832 70.1848 97.4382C69.7366 96.928 69.5166 96.6256 68.8908 96.3308C69.468 96.9296 69.7334 97.1718 70.1528 97.8946C69.964 97.7364 68.7944 96.7402 68.656 96.686C65.3902 95.407 61.8092 96.5086 58.5994 97.4332C57.897 97.6356 56.7816 98.3212 56.5552 99.039C56.5516 99.4786 56.602 99.2734 56.3718 99.6708L56.226 99.7226L56.2046 99.5694C56.1726 99.2402 56.1664 98.8682 56.1526 98.5342C56.128 97.1992 56.0188 96.8198 56.544 95.593C59.9958 94.347 65.0102 93.8268 68.7114 93.2572C77.2904 91.937 85.9692 91.97 94.598 91.5642Z" fill="#FFF9F2"/>
<path d="M56.1526 98.5342C59.4674 95.771 66.7072 93.27 70.2026 96.8572C70.1956 97.0214 70.175 97.2832 70.1848 97.4382C69.7366 96.928 69.5166 96.6256 68.8908 96.3308C69.468 96.9296 69.7334 97.1718 70.1528 97.8946C69.964 97.7364 68.7944 96.7402 68.656 96.686C65.3902 95.407 61.8092 96.5086 58.5994 97.4334C57.897 97.6356 56.7816 98.3212 56.5552 99.039C56.5516 99.4786 56.602 99.2734 56.3718 99.671L56.226 99.7226L56.2046 99.5694C56.1726 99.2402 56.1664 98.8682 56.1526 98.5342Z" fill="#999898"/>
<path d="M56.2046 99.5694C56.27 99.2744 56.2678 98.876 56.4018 98.6376C56.4424 98.8428 56.4564 98.8574 56.5554 99.039C56.5518 99.4786 56.602 99.2734 56.372 99.671L56.2262 99.7226L56.2046 99.5694Z" fill="#B7B6B6"/>
<path d="M70.6508 96.6316C71.3156 97.0066 71.2662 97.7314 71.8064 98.5234C71.8434 98.1718 71.8474 97.7138 72.0292 97.429C72.2168 97.8456 72.0806 98.5566 71.95 98.9854L71.829 98.835L71.4968 99.1846L71.319 99.1504C71.1052 98.3106 70.8984 97.4624 70.6508 96.6316Z" fill="#999898"/>
<path d="M94.5978 91.5642L94.7318 91.6116C94.4932 92.202 94.4488 92.435 94.3194 93.0534L94.1344 93.0374C94.1934 92.5498 94.3754 91.9996 94.5978 91.5642Z" fill="#434243"/>
<path d="M46.5754 106.059C46.4496 105.505 46.3036 105.143 46.57 104.639C47.4958 103.925 54.2132 102.388 55.6552 102.115C55.7384 102.578 55.8488 103.038 55.9534 103.497C54.0638 104.135 51.6244 104.702 50.9036 106.914C50.5272 108.07 50.5188 109.867 51.0794 110.964L51.297 110.812C51.6052 110.889 51.6808 111.001 51.9096 111.221C51.5724 110.345 51.5396 109.411 51.486 108.479L51.5552 108.13C51.6636 107.748 51.6636 107.328 51.8252 106.937C52.5664 105.137 54.5392 104.862 56.1824 104.201C56.4326 104.902 56.6752 105.795 56.894 106.521L56.9738 106.883C56.9638 107.111 56.8542 107.239 56.7358 107.428L56.8016 107.485L57.087 107.247C57.5552 107.697 57.3812 108.107 57.1174 108.563L57.1942 108.6C57.3564 108.427 57.285 108.441 57.4678 108.385C57.7486 108.816 58.5572 110.652 58.6604 111.118C58.1542 111.562 57.7416 111.892 57.3862 112.471C57.4254 112.719 57.381 112.612 57.5024 112.797C58.139 113.187 58.7193 113.32 59.3753 113.631C59.7607 114.218 60.2988 114.889 60.481 115.569C60.5218 115.722 60.5389 123.035 60.4745 123.382L60.355 123.493L60.4393 123.942C60.6817 124.394 60.641 125.137 60.6484 125.663C59.2412 125.034 57.2912 123.986 56.3864 122.703C53.2728 118.288 50.974 112.909 49.1592 107.829C49.1068 107.683 47.097 106.554 46.6728 106.152L46.5754 106.059Z" fill="#FFF9F2"/>
<path d="M46.5754 106.059C46.4496 105.505 46.3036 105.143 46.57 104.639C47.4958 103.925 54.2132 102.388 55.6552 102.115C55.7384 102.578 55.8488 103.038 55.9534 103.497C54.0638 104.135 51.6244 104.702 50.9036 106.914C50.5272 108.07 50.5188 109.867 51.0794 110.964L51.297 110.812C51.6052 110.889 51.6808 111.001 51.9096 111.221C52.34 112.042 52.9864 113.601 53.4052 114.289C54.6974 116.414 58.3679 122.565 60.4745 123.382L60.355 123.493L60.4393 123.942C60.6817 124.394 60.641 125.137 60.6484 125.663C59.2412 125.034 57.2912 123.986 56.3864 122.703C53.2728 118.288 50.974 112.909 49.1592 107.829C49.1068 107.683 47.097 106.554 46.6728 106.152L46.5754 106.059Z" fill="#DEDDDD"/>
<path d="M51.0792 110.964L51.2968 110.812C51.6052 110.889 51.6806 111.001 51.9096 111.221C52.34 112.042 52.9864 113.601 53.4052 114.289C54.6974 116.414 58.3676 122.565 60.4744 123.382L60.355 123.493L60.439 123.942C60.1292 123.862 59.809 123.789 59.5084 123.679C57.561 122.964 52.146 113.201 51.0792 110.964Z" fill="#0B0A0A"/>
<path d="M51.5551 108.13C51.6637 107.748 51.6635 107.328 51.8251 106.937C52.5665 105.137 54.5391 104.862 56.1825 104.201C56.4327 104.902 56.6751 105.795 56.8941 106.521C56.0459 106.696 51.8707 108.225 51.5551 108.13Z" fill="#DEDDDD"/>
<path d="M56.894 106.521L56.9738 106.883C55.1626 107.026 53.1524 108.129 51.486 108.479L51.555 108.13C51.8706 108.225 56.0458 106.696 56.894 106.521Z" fill="#242324"/>
<path d="M150.208 89.7946L150.535 89.7376C151.414 90.0374 152.796 92.1932 153.367 92.998C152.936 93.2834 151.518 94.4398 151.242 94.4828C150.894 94.3532 150.423 93.6366 150.14 93.2844C144.943 92.9792 146.205 94.9836 142.123 95.8004C139.731 96.0766 137.025 96.492 134.619 96.4468C131.821 96.3942 129.801 96.583 127.047 96.9996C125.689 97.238 124.498 97.5876 123.198 98.0058C123.854 95.8622 124.882 96.3738 125.64 94.321C127.598 93.5466 130.548 93.0816 132.642 92.6366C137.086 91.6914 141.609 90.959 146.119 90.403C147.483 90.2348 148.843 89.8954 150.208 89.7946Z" fill="#DEDDDD"/>
<path d="M56.8624 103.98C60.646 103.058 66.985 102.445 70.9234 102.601C72.2802 102.653 75.2708 104.247 76.0374 105.254C76.1816 105.232 76.1632 105.22 76.3 105.139L76.3158 104.783C76.6072 105.315 77.391 106.485 77.545 106.839L77.3616 106.846L77.0834 106.597C77.1242 106.625 77.1002 106.604 77.14 106.675L77.0724 106.835C77.159 107.272 77.199 107.092 77.0736 107.435L77.2942 108.471C77.298 108.731 77.308 108.719 77.2084 108.958C76.6056 108.788 76.1076 108.275 75.424 108.148C75.319 108.124 75.387 108.147 75.2388 108.038L75.2896 107.86C75.125 107.359 75.0926 107.405 74.7516 106.991C73.7716 106.381 72.6688 105.851 71.6356 105.325C65.5378 106.238 64.5322 106.333 59.622 110.106C59.5136 110.162 59.352 110.256 59.243 110.287L59.1306 110.462C58.7382 110.22 58.1164 108.09 57.94 107.54C58.4082 106.827 58.9416 106.163 59.4724 105.496C59.0776 105.784 58.2306 106.81 57.8916 107.227L57.7068 107.169L57.6306 106.967C57.75 106.223 58.3392 105.558 58.7904 104.937C58.3596 105.349 57.8938 105.902 57.4924 106.357C57.214 105.48 57.0546 104.88 56.8624 103.98Z" fill="#FFF9F2"/>
<path d="M74.7516 106.991C74.583 106.488 73.6836 105.915 73.3754 105.406C74.1258 106.014 76.5194 108.417 77.232 108.514L77.2942 108.471C77.298 108.731 77.308 108.719 77.2084 108.958C76.6056 108.788 76.1076 108.275 75.424 108.148C75.319 108.124 75.387 108.146 75.2388 108.038L75.2896 107.86C75.125 107.359 75.0926 107.405 74.7516 106.991Z" fill="#434243"/>
<path d="M76.316 104.783C76.6072 105.315 77.3912 106.485 77.5452 106.839L77.3616 106.846L77.0834 106.597C77.1244 106.625 77.1004 106.604 77.14 106.675L77.0726 106.835C77.1592 107.271 77.1992 107.092 77.0736 107.435C76.8028 106.658 76.441 105.97 76.0376 105.254C76.1818 105.232 76.1632 105.22 76.3002 105.139L76.316 104.783Z" fill="#434243"/>
<path d="M59.243 110.287C59.3594 109.484 59.964 108.407 60.3652 107.668L60.4174 107.7C60.3026 108.48 59.6806 109.317 59.622 110.106C59.5134 110.162 59.352 110.256 59.243 110.287Z" fill="#434243"/>
<path d="M73.2864 104.717C73.6396 104.759 74.0756 104.774 74.3078 105.002C73.8992 105.104 73.6032 104.956 73.2864 104.717Z" fill="#999898"/>
<path d="M122.376 90.6722C123.309 90.5494 127.333 90.5808 128.435 90.5952C132.154 90.644 136.421 90.4778 140.091 90.7878C137.922 91.0324 126.781 93.5298 125.954 93.3294C125.713 93.2708 125.64 93.121 125.519 92.9248C125.499 92.8934 125.385 92.6994 125.356 92.667C125.219 92.5124 125.095 92.449 124.895 92.422C124.342 92.3476 123.674 92.4552 123.109 92.4658C122.465 92.4778 121.816 92.427 121.174 92.3798C114.766 92.395 109.464 92.8986 103.158 93.2716C103.83 92.8248 107.297 91.161 108.009 91.1278C112.698 90.9096 117.691 90.7868 122.376 90.6722Z" fill="#FFF9F2"/>
<path d="M57.4853 99.0762L57.6139 99.1318C59.9459 96.746 62.5841 96.4664 65.7637 96.4474C67.1773 96.4388 68.8953 96.984 69.9291 97.9708C70.2651 98.3028 70.4313 98.8066 70.5821 99.254C70.1855 99.3154 69.7085 99.4024 69.3165 99.4414C67.1441 98.002 64.7849 97.2052 62.2015 97.876C65.1161 97.752 66.4959 98.168 69.0779 99.6298C68.4991 99.4384 67.9141 99.2832 67.3159 99.166C63.9393 98.5078 59.3767 97.464 56.7289 100.352L56.4007 100.703L56.2755 100.659L56.1949 100.078C56.5607 99.5264 56.7105 99.2734 57.1801 98.8038L57.4853 99.0762Z" fill="#999898"/>
<path d="M57.1801 98.8038L57.4853 99.0762C56.7191 99.5274 56.9319 100.002 56.1949 100.078C56.5607 99.5264 56.7105 99.2734 57.1801 98.8038Z" fill="#DEDDDD"/>
<path d="M63.3868 108.073C64.1674 107.792 65.3052 107.019 65.7962 106.955L65.8292 107.052C66.625 107.667 67.2658 107.314 67.5634 107.583C67.3956 107.774 67.4078 107.768 67.1858 107.89L67.1964 108.07L65.8418 108.54L65.548 108.716C65.002 108.816 63.9682 109.191 63.647 109.642C62.8556 109.99 61.8316 110.618 61.2528 111.261C60.82 111.741 60.7874 111.888 60.2522 112.291C60.589 112.349 60.8518 112.36 61.135 112.545L61.23 112.199C61.4478 112.488 61.6356 112.757 61.8962 113.01C61.4436 113.443 61.473 113.425 60.8524 113.455C60.8178 113.517 60.57 113.732 60.5018 113.796C60.1702 113.655 60.1836 113.649 59.9454 113.403C59.8358 112.95 59.9014 113.015 60.0488 112.496L59.9576 112.446L59.518 112.819C59.204 112.818 59.3606 112.846 59.0542 112.617L58.9722 112.565C58.2232 112.224 58.1066 112.218 57.5024 112.797C57.381 112.612 57.4252 112.719 57.3862 112.471C57.7416 111.892 58.1542 111.562 58.6602 111.118C58.7076 111.325 58.6836 111.256 58.7934 111.439L58.9744 111.384C59.3 111 59.3914 110.869 59.8218 110.621L60.3516 110.229C60.5566 109.977 61.8768 108.985 62.134 108.849C62.4934 108.574 62.9622 108.218 63.3868 108.073Z" fill="#242324"/>
<path d="M63.3868 108.073C64.1674 107.792 65.3052 107.019 65.7962 106.955L65.8292 107.052C66.625 107.667 67.2658 107.314 67.5634 107.583C67.3954 107.774 67.4076 107.768 67.1856 107.89L67.1964 108.07L65.8416 108.54L65.5478 108.716C64.667 108.673 62.6616 109.075 62.134 108.849C62.4934 108.574 62.962 108.218 63.3868 108.073Z" fill="#5D5C5C"/>
<path d="M63.3868 108.073C64.1674 107.792 65.3052 107.019 65.7962 106.955L65.8292 107.052C65.4856 107.57 63.9744 108.394 63.3868 108.073Z" fill="#DEDDDD"/>
<path d="M67.1858 107.89L67.1964 108.07L65.8418 108.54C65.8728 108.302 65.848 108.393 65.989 108.179C66.3528 107.957 66.7526 107.949 67.1858 107.89Z" fill="#DEDDDD"/>
<path d="M62.134 108.849C62.6616 109.075 64.667 108.673 65.5478 108.716C65.002 108.816 63.968 109.191 63.647 109.642C62.7528 109.587 62.4236 109.685 61.6132 110.033L61.4984 109.924C61.0548 110.064 60.805 110.143 60.3516 110.23C60.5566 109.977 61.8766 108.985 62.134 108.849Z" fill="#373537"/>
<path d="M61.135 112.545L61.23 112.199C61.4478 112.488 61.6356 112.757 61.8962 113.01C61.4436 113.443 61.473 113.425 60.8524 113.455C60.6302 113.141 60.6398 113.285 60.6618 112.999C60.8954 112.833 60.9626 112.773 61.135 112.545Z" fill="#242324"/>
<path d="M58.9722 112.565C59.1458 112.128 60.6714 110.994 61.1614 111.091L61.1252 111.239C60.5902 111.402 59.5226 112.235 59.0542 112.617L58.9722 112.565Z" fill="#434243"/>
<path d="M60.3516 110.229C60.8052 110.143 61.055 110.064 61.4986 109.924L61.6132 110.033C61.2518 110.208 60.1602 110.731 59.8218 110.621L60.3516 110.229Z" fill="#5D5C5C"/>
<path d="M61.9613 98.9726C62.1891 99.125 62.1969 99.1348 62.4521 99.2276C62.4799 99.205 62.7127 99.0156 62.7489 99.0118C63.9563 98.876 66.7833 99.3994 67.8751 99.6544C67.0133 99.7842 65.4445 100.05 64.6311 100.07C63.6465 100.207 57.0215 101.385 56.6523 101.271C56.7839 101.144 56.7225 101.175 56.8093 101.138C58.2613 99.6016 59.8921 99.1328 61.9613 98.9726Z" fill="#999898"/>
<path d="M56.8093 101.138C59.2053 100.446 61.8415 99.3866 64.4291 99.9014C64.5901 99.9336 64.5271 99.9062 64.6311 100.07C63.6465 100.207 57.0215 101.385 56.6523 101.271C56.7839 101.144 56.7225 101.175 56.8093 101.138Z" fill="#FFF9F2"/>
<path d="M105.587 91.199L105.889 91.089L106.06 91.2222L105.996 91.0668L106.156 91.1684L106.131 91.0596L106.297 91.1284C106.22 91.2124 102.129 93.3016 101.805 93.3904C101.512 93.4894 101.619 93.4546 101.27 93.3868C100.895 93.4894 100.495 93.6404 100.203 93.3598L100.074 93.215C99.7178 93.598 99.71 93.5842 99.206 93.7388C98.8808 93.7414 98.8564 93.712 98.5576 93.6022C98.7256 92.9182 99.0888 92.6866 99.3262 92.0486C99.9492 91.4542 101.85 90.856 102.541 91.3352C102.813 91.3454 103.838 91.2088 104.222 91.175C104.539 91.0426 105.253 91.1052 105.587 91.199Z" fill="#999898"/>
<path d="M99.3262 92.0486C99.9492 91.4542 101.85 90.856 102.541 91.3352L100.203 93.3598L100.074 93.215C99.7178 93.598 99.71 93.5842 99.206 93.7388C98.8808 93.7412 98.8564 93.7118 98.5576 93.6022C98.7256 92.9182 99.0888 92.6866 99.3262 92.0486Z" fill="#434243"/>
<path d="M102.156 91.2708C101.621 91.9312 100.735 92.4778 100.074 93.215C99.7178 93.598 99.71 93.5842 99.206 93.7388L99.0616 93.6162C99.2626 92.9874 101.488 91.6924 102.156 91.2708Z" fill="#999898"/>
<path d="M105.587 91.199L105.889 91.089L106.06 91.2222L105.996 91.0668L106.156 91.1684L106.131 91.0596L106.297 91.1284C106.22 91.2124 102.129 93.3016 101.805 93.3904C101.512 93.4894 101.619 93.4546 101.27 93.3868C102.055 92.8106 104.667 91.6078 105.046 91.23L104.222 91.175C104.539 91.0426 105.253 91.1052 105.587 91.199Z" fill="#434243"/>
<path d="M105.587 91.199L105.889 91.089L106.06 91.2222L105.996 91.0668L106.156 91.1684L106.131 91.0596L106.297 91.1284C106.22 91.2124 102.129 93.3016 101.805 93.3904C102.011 92.9674 104.848 91.6834 105.587 91.199Z" fill="#B7B6B6"/>
<path d="M96.0146 91.5214L96.1096 91.5304C96.7882 91.5226 97.467 91.51 98.1456 91.4924C97.5768 92.0284 96.5454 93.202 96.3156 93.9334L96.0284 94.127C95.762 94.2268 95.3056 94.4256 95.027 94.3478L94.5996 94.3042C94.4362 93.779 94.3878 93.5968 94.3196 93.0534C94.449 92.435 94.4934 92.202 94.732 91.6116L95.0966 91.602C95.3094 91.5114 95.7552 91.5286 96.0146 91.5214Z" fill="#999898"/>
<path d="M96.0146 91.5214L95.971 91.6402C95.5742 92.6924 95.2078 93.0422 95.027 94.3478L94.5996 94.3042C94.4362 93.779 94.3878 93.5968 94.3196 93.0534C94.449 92.435 94.4934 92.202 94.732 91.6116L95.0966 91.602C95.3094 91.5114 95.7552 91.5286 96.0146 91.5214Z" fill="#999898"/>
<path d="M94.732 91.6116L95.0966 91.602L95.1006 91.723C94.2638 92.3322 94.9138 93.567 94.5996 94.3042C94.4362 93.779 94.3878 93.5968 94.3196 93.0534C94.449 92.435 94.4934 92.202 94.732 91.6116Z" fill="#DEDDDD"/>
<path d="M96.0144 91.5214L96.1096 91.5304C95.9444 92.4678 95.527 92.995 95.3208 94.568C95.9092 93.7144 96.2536 92.9672 96.848 92.1112C96.6906 92.754 96.0456 93.411 96.0284 94.127C95.7618 94.2268 95.3054 94.4256 95.027 94.3478C95.2078 93.0422 95.574 92.6924 95.9708 91.6402L96.0144 91.5214Z" fill="#242324"/>
<path d="M99.1632 91.4796L99.4161 91.3916L99.6192 91.5286L99.5185 91.3764L99.794 91.4258C99.6036 91.6048 99.4834 91.7144 99.2754 91.879L99.3262 92.0486C99.089 92.6866 98.7256 92.9182 98.5578 93.6022C98.2462 93.8176 96.6632 94.0414 96.3156 93.9334C97.0978 93.301 97.5687 91.6316 98.7773 91.4198L99.1632 91.4796Z" fill="#999898"/>
<path d="M98.7774 91.4198L99.163 91.4796C98.8858 91.7926 98.2666 92.606 97.9952 92.718L97.9102 92.677C98.1124 92.391 98.746 91.6906 98.7774 91.4198Z" fill="#5D5C5C"/>
<path d="M97.4472 94.6852L97.7694 94.494L97.9014 94.5566C97.8516 95.0664 97.5328 96.0258 97.118 96.383L96.8592 96.385C96.6744 96.6904 96.4072 96.9808 96.0548 97.0462L95.862 96.913C95.5202 96.1564 95.598 95.8306 95.6472 95.0058C96.1864 94.8398 96.7342 94.748 97.2884 94.64L97.4472 94.6852Z" fill="#999898"/>
<path d="M97.4472 94.6852L97.7694 94.494L97.9012 94.5566C97.8514 95.0664 97.5328 96.0258 97.118 96.383C97.123 96.0374 97.3608 95.0762 97.4472 94.6852Z" fill="#B7B6B6"/>
<path d="M97.2886 94.64L97.4474 94.6852C97.361 95.0762 97.1232 96.0374 97.1182 96.383L96.8594 96.385C96.9912 95.8006 97.1342 95.2188 97.2886 94.64Z" fill="#434243"/>
<path d="M65.7961 106.955C66.5417 107.057 66.4181 107.363 67.3943 107.206L67.3521 107.096C67.1153 107.009 66.7159 106.915 66.6121 106.743C67.0555 106.495 70.7751 107.029 71.3929 107.21L71.8525 107.338C70.8957 107.339 69.5915 107.401 68.6423 107.606C68.1355 107.717 67.8737 107.972 67.1963 108.07L67.1857 107.89C67.4077 107.768 67.3955 107.774 67.5633 107.583C67.2657 107.314 66.6249 107.667 65.8291 107.052L65.7961 106.955Z" fill="#434243"/>
<path d="M98.3994 94.3074C98.6396 94.3372 98.7002 94.3556 98.9366 94.4144C99.2382 94.9344 98.5518 95.3994 98.167 95.6738L97.873 95.859L97.7784 95.7708C97.8672 95.277 98.168 94.7672 98.3994 94.3074Z" fill="#999898"/>
<path d="M57.1801 98.8038C57.4127 98.084 59.0431 97.581 59.7179 97.4044C58.7741 97.9854 58.2159 98.208 57.4853 99.0762L57.1801 98.8038Z" fill="#898889"/>
<path d="M70.2025 96.8572C70.3111 96.5818 70.2583 96.6172 70.4435 96.4174L70.5623 96.5732C70.3411 97.0498 71.0001 98.2764 70.7981 99.0108C70.4685 98.4238 70.4965 98.0292 70.1847 97.4382C70.1749 97.2832 70.1953 97.0214 70.2025 96.8572Z" fill="#B7B6B6"/>
<path d="M59.9244 98.8458L60.1044 98.876C59.9016 99.084 58.6824 99.5118 58.3296 99.6474L58.2414 99.6602L58.223 99.585C58.778 99.1524 59.2332 98.96 59.9244 98.8458Z" fill="#6F6E6E"/>
<path d="M99.704 94.2674L100.227 94.2572L100.265 94.3492L99.5556 94.8008C99.3868 94.9038 99.4794 94.8772 99.2734 94.874C99.4366 94.5238 99.4278 94.539 99.704 94.2674Z" fill="#898889"/>
<path d="M73.0716 107.629L72.6716 107.509L72.5822 107.302L72.6838 107.195C72.9784 107.198 73.1308 107.195 73.4278 107.243L73.4378 107.366L73.1822 107.511L73.1666 107.592L73.0716 107.629Z" fill="#434243"/>
<path d="M68.379 106.291C68.963 106.178 69.3138 106.212 69.8224 106.517C69.4372 106.576 68.6954 106.529 68.379 106.291Z" fill="#434243"/>
</g>
</g>
<defs>
<clipPath id="clip0_3715_454">
<rect width="200" height="200" rx="100" fill="white"/>
</clipPath>
</defs>
</svg>
