<?xml version="1.0" encoding="UTF-8"?>
<svg width="768px" height="48px" viewBox="0 0 768 48" version="1.1" xmlns="http://www.w3.org/2000/svg" xmlns:xlink="http://www.w3.org/1999/xlink">
    <title>Graphic</title>
    <defs>
        <path d="M0,0 L767.545367,0 L767.545367,47.36 L0,47.36 L0,0 Z" id="path-1"></path>
        <path d="M666.554133,-5.68434189e-14 C670.820799,-5.68434189e-14 674.906133,0.512 678.810133,1.536 C682.714133,2.56 686.159466,3.968 689.146133,5.76 L682.618133,18.624 C680.058133,17.4293333 677.583466,16.512 675.194133,15.872 C672.804799,15.232 670.543466,14.912 668.410133,14.912 C667.428799,14.912 666.714133,15.008 666.266133,15.2 C665.818133,15.392 665.594133,15.7013333 665.594133,16.128 C665.594133,16.64 666.031466,17.0026667 666.906133,17.216 C667.780799,17.4293333 669.242133,17.6426667 671.290133,17.856 C674.746133,18.1546667 677.722133,18.624 680.218133,19.264 C682.714133,19.904 684.922133,21.2053333 686.842133,23.168 C688.762133,25.1306667 689.722133,27.9466667 689.722133,31.616 C689.722133,34.7733333 688.740799,37.536 686.778133,39.904 C684.815466,42.272 682.074133,44.1066667 678.554133,45.408 C675.034133,46.7093333 670.991466,47.36 666.426133,47.36 C661.903466,47.36 657.135466,46.8053333 652.122133,45.696 C647.108799,44.5866667 643.343466,43.1786667 640.826133,41.472 L646.330133,27.2 C652.687466,29.9733333 658.831466,31.36 664.762133,31.36 C665.914133,31.36 666.724799,31.264 667.194133,31.072 C667.663466,30.88 667.898133,30.592 667.898133,30.208 C667.898133,29.7386667 667.450133,29.3973333 666.554133,29.184 C665.714133,28.984 664.330383,28.7465 662.402883,28.4715 L662.010133,28.416 C658.426133,27.9466667 655.375466,27.3706667 652.858133,26.688 C650.340799,26.0053333 648.100799,24.768 646.138133,22.976 C644.175466,21.184 643.194133,18.6666667 643.194133,15.424 C643.194133,12.224 644.122133,9.46133333 645.978133,7.136 C647.834133,4.81066667 650.511466,3.04 654.010133,1.824 C657.508799,0.608 661.690133,-5.68434189e-14 666.554133,-5.68434189e-14 Z M496.763836,1.28 C502.054502,1.28 506.214502,1.74933333 509.243836,2.688 C512.273169,3.62666667 514.395836,4.97066667 515.611836,6.72 C516.827836,8.46933333 517.435836,10.6453333 517.435836,13.248 C517.435836,16.6186667 516.283836,19.232 513.979836,21.088 C511.675836,22.944 507.899836,24.1493333 502.651836,24.704 L502.651836,25.088 L503.622997,25.1318272 C507.260996,25.3108224 509.923942,25.6162133 511.611836,26.048 C513.446502,26.5173333 514.726502,27.4026667 515.451836,28.704 C516.142629,29.9433651 516.504474,31.9277037 516.537369,34.6570159 L516.544818,36.4076955 C516.56032,38.3846828 516.611993,39.891451 516.699836,40.928 C516.806502,42.1866667 517.051836,43.1466667 517.435836,43.808 C517.819836,44.4693333 518.438502,44.9493333 519.291836,45.248 L519.291836,46.08 L497.659836,46.08 C495.526502,46.08 494.043836,45.5573333 493.211836,44.512 C492.379836,43.4666667 491.963836,41.8986667 491.963836,39.808 L491.963836,36.352 C491.963836,34.944 491.750502,33.9626667 491.323836,33.408 C490.897169,32.8533333 490.171836,32.576 489.147836,32.576 L487.995836,32.576 L487.995836,46.08 L463.931836,46.08 L463.931836,1.28 L496.763836,1.28 Z M718.841875,1.28 L718.841875,46.08 L694.841875,46.08 L694.841875,1.28 L718.841875,1.28 Z M24,1.28 L24,46.08 L0,46.08 L0,1.28 L24,1.28 Z M566.011445,1.28 L578.683445,46.08 L555.451445,46.08 L554.875445,40.96 L545.083445,40.96 L544.763445,46.08 L520.699445,46.08 L532.475445,1.28 L566.011445,1.28 Z M603.450703,1.28 L613.818703,18.176 L613.818703,1.28 L636.666703,1.28 L636.666703,46.08 L615.546703,46.08 L605.178703,30.592 L605.178703,46.08 L582.330703,46.08 L582.330703,1.28 L603.450703,1.28 Z M50.8794922,1.28 L61.2474922,18.176 L61.2474922,1.28 L84.0954922,1.28 L84.0954922,46.08 L62.9754922,46.08 L52.6074922,30.592 L52.6074922,46.08 L29.7594922,46.08 L29.7594922,1.28 L50.8794922,1.28 Z M132.798922,1.28 L132.798922,21.312 L122.686922,21.312 L122.686922,46.08 L98.6869218,46.08 L98.6869218,21.312 L88.5749218,21.312 L88.5749218,1.28 L132.798922,1.28 Z M177.662477,1.28 L177.662477,14.144 L161.278477,14.144 L161.278477,17.536 L177.470477,17.536 L177.470477,29.184 L161.278477,29.184 L161.278477,32.832 L178.942477,32.832 L178.942477,46.08 L137.278477,46.08 L137.278477,1.28 L177.662477,1.28 Z M216.894383,1.28 C222.185049,1.28 226.345049,1.74933333 229.374383,2.688 C232.403716,3.62666667 234.526383,4.97066667 235.742383,6.72 C236.958383,8.46933333 237.566383,10.6453333 237.566383,13.248 C237.566383,16.6186667 236.414383,19.232 234.110383,21.088 C231.806383,22.944 228.030383,24.1493333 222.782383,24.704 L222.782383,25.088 L223.753544,25.1318272 C227.391543,25.3108224 230.054489,25.6162133 231.742383,26.048 C233.577049,26.5173333 234.857049,27.4026667 235.582383,28.704 C236.273176,29.9433651 236.635021,31.9277037 236.667916,34.6570159 L236.675365,36.4076955 C236.690867,38.3846828 236.74254,39.891451 236.830383,40.928 C236.937049,42.1866667 237.182383,43.1466667 237.566383,43.808 C237.950383,44.4693333 238.569049,44.9493333 239.422383,45.248 L239.422383,46.08 L217.790383,46.08 C215.657049,46.08 214.174383,45.5573333 213.342383,44.512 C212.510383,43.4666667 212.094383,41.8986667 212.094383,39.808 L212.094383,36.352 C212.094383,34.944 211.881049,33.9626667 211.454383,33.408 C211.027716,32.8533333 210.302383,32.576 209.278383,32.576 L208.126383,32.576 L208.126383,46.08 L184.062383,46.08 L184.062383,1.28 L216.894383,1.28 Z M767.545367,1.28 L767.545367,21.312 L757.433367,21.312 L757.433367,46.08 L733.433367,46.08 L733.433367,21.312 L723.321367,21.312 L723.321367,1.28 L767.545367,1.28 Z M264.061992,1.28 L274.429992,18.176 L274.429992,1.28 L297.277992,1.28 L297.277992,46.08 L276.157992,46.08 L265.789992,30.592 L265.789992,46.08 L242.941992,46.08 L242.941992,1.28 L264.061992,1.28 Z M346.237422,1.28 L358.909422,46.08 L335.677422,46.08 L335.101422,40.96 L325.309422,40.96 L324.989422,46.08 L300.925422,46.08 L312.701422,1.28 L346.237422,1.28 Z M386.55668,1.28 L386.55668,27.072 L399.54868,27.072 L399.54868,46.08 L362.55668,46.08 L362.55668,1.28 L386.55668,1.28 Z M459.452281,1.28 L459.452281,21.312 L449.340281,21.312 L449.340281,46.08 L425.340281,46.08 L425.340281,21.312 L415.228281,21.312 L415.228281,1.28 L459.452281,1.28 Z M549.499445,14.784 L548.923445,14.784 L547.003445,26.112 L552.059445,26.112 L549.499445,14.784 Z M329.725422,14.784 L329.149422,14.784 L327.229422,26.112 L332.285422,26.112 L329.725422,14.784 Z M208.126383,12.544 L208.126383,20.352 C209.577049,20.352 210.611716,20.032 211.230383,19.392 C211.849049,18.752 212.158383,17.6213333 212.158383,16 C212.158383,14.6773333 211.838383,13.7493333 211.198383,13.216 C210.558383,12.6826667 209.534383,12.4586667 208.126383,12.544 Z M487.995836,12.544 L487.995836,20.352 C489.446502,20.352 490.481169,20.032 491.099836,19.392 C491.718502,18.752 492.027836,17.6213333 492.027836,16 C492.027836,14.6773333 491.707836,13.7493333 491.067836,13.216 C490.427836,12.6826667 489.403836,12.4586667 487.995836,12.544 Z" id="path-2"></path>
    </defs>
    <g id="Graphic" stroke="none" fill="none" transform="translate(0, -0)" xlink:href="#path-1" fill-rule="evenodd" stroke-width="1">
        <g id="Combined-Shape" transform="translate(0, 0)">
            <mask id="mask-3" fill="white">
                <use xlink:href="#path-2"></use>
            </mask>
            <g id="Mask" fill-rule="nonzero" fill="#292929">
                <use xlink:href="#path-2"></use>
                <use xlink:href="#path-2"></use>
            </g>
            <path d="M0.5,44.5007 L775.5,44.5007 M0.5,41.5006 L775.5,41.5006 M0.5,38.5005 L775.5,38.5005 M0.5,35.5004 L775.5,35.5004 M0.5,32.5003 L775.5,32.5003 M0.5,29.5002 L775.5,29.5002 M0.5,26.5001 L775.5,26.5001 M0.5,23.5 L775.5,23.5" stroke="#F2EEEA" stroke-linecap="square" mask="url(#mask-3)"></path>
        </g>
    </g>
</svg>