<?xml version="1.0" encoding="UTF-8"?>
<svg width="870px" height="396px" viewBox="0 0 870 396" version="1.1" xmlns="http://www.w3.org/2000/svg" xmlns:xlink="http://www.w3.org/1999/xlink">
    <title>internal-transit-icon-v12 copy</title>
    <g id="internal-transit-icon-v12-copy" stroke="none" fill="none" opacity="0.99" fill-rule="nonzero" stroke-width="1">
        <g id="Line" fill-rule="evenodd" transform="translate(0, 158)" fill="#FF6A00">
            <rect id="Rectangle-Copy-26" x="0" y="0" width="80" height="80"></rect>
            <rect id="Rectangle-Copy-31" x="79" y="0" width="80" height="80"></rect>
            <rect id="Rectangle-Copy-33" x="158" y="0" width="80" height="80"></rect>
            <rect id="Rectangle-Copy-35" x="237" y="0" width="80" height="80"></rect>
            <rect id="Rectangle-Copy-36" x="316" y="0" width="80" height="80"></rect>
            <rect id="Rectangle-Copy-37" x="395" y="0" width="80" height="80"></rect>
            <rect id="Rectangle-Copy-38" x="474" y="0" width="80" height="80"></rect>
            <rect id="Rectangle-Copy-18" x="632" y="0" width="80" height="80"></rect>
            <rect id="Rectangle-Copy-19" x="711" y="0" width="80" height="80"></rect>
            <rect id="Rectangle-Copy-20" x="790" y="0" width="80" height="80"></rect>
            <rect id="Rectangle-Copy-32" x="553" y="0" width="80" height="80"></rect>
        </g>
        <g id="Knob" fill-rule="evenodd" transform="translate(237, 0)" fill="#292929">
            <rect id="Rectangle-Copy-28" x="0" y="79" width="80" height="80"></rect>
            <rect id="Rectangle-Copy" x="80" y="0" width="80" height="80"></rect>
            <rect id="Rectangle-Copy-29" x="79" y="79" width="80" height="80"></rect>
            <rect id="Rectangle-Copy-27" x="159" y="0" width="80" height="80"></rect>
            <rect id="Rectangle-Copy-30" x="158" y="79" width="80" height="80"></rect>
            <rect id="Rectangle-Copy-39" x="238" y="0" width="80" height="80"></rect>
            <rect id="Rectangle-Copy-41" x="237" y="79" width="80" height="80"></rect>
            <rect id="Rectangle-Copy-42" x="316" y="79" width="80" height="80"></rect>
            <rect id="Rectangle-Copy-46" x="0" y="158" width="80" height="80"></rect>
            <rect id="Rectangle-Copy-45" x="79" y="158" width="80" height="80"></rect>
            <rect id="Rectangle-Copy-34" x="158" y="158" width="80" height="80"></rect>
            <rect id="Rectangle-Copy-44" x="237" y="158" width="80" height="80"></rect>
            <rect id="Rectangle-Copy-43" x="316" y="158" width="80" height="80"></rect>
            <rect id="Rectangle-Copy-51" x="0" y="237" width="80" height="80"></rect>
            <rect id="Rectangle-Copy-50" x="79" y="237" width="80" height="80"></rect>
            <rect id="Rectangle-Copy-49" x="158" y="237" width="80" height="80"></rect>
            <rect id="Rectangle-Copy-48" x="237" y="237" width="80" height="80"></rect>
            <rect id="Rectangle-Copy-47" x="316" y="237" width="80" height="80"></rect>
            <rect id="Rectangle-Copy-55" x="80" y="316" width="80" height="80"></rect>
            <rect id="Rectangle-Copy-54" x="159" y="316" width="80" height="80"></rect>
            <rect id="Rectangle-Copy-53" x="238" y="316" width="80" height="80"></rect>
        </g>
    </g>
</svg>